<svg width="570" height="447" viewBox="0 0 570 447" fill="none" xmlns="http://www.w3.org/2000/svg">
<g clip-path="url(#clip0)">
<path opacity="0.1" d="M560.657 199.047C560.555 199.681 560.453 200.315 560.34 200.949C556.691 222.546 550.734 243.367 541.875 262.483C541.585 263.117 541.289 263.752 540.987 264.386C535.302 276.439 528.321 287.767 520.181 298.145C515.768 303.746 510.957 309.063 505.236 312.902C497.217 318.281 487.842 320.467 478.628 322.256C469.054 324.119 459.356 325.654 449.68 327.352C446.25 327.941 442.841 328.558 439.455 329.204C430.106 330.982 420.828 333.037 411.771 335.761C400.571 339.159 389.705 343.536 379.48 349.736C378.662 350.227 377.853 350.731 377.053 351.248C376.251 351.757 375.438 352.278 374.658 352.811C373.878 353.343 373.092 353.87 372.317 354.408L371.122 355.257C370.729 355.529 370.342 355.823 369.954 356.095C368.803 356.922 367.667 357.794 366.531 358.632L366.488 358.666C365.74 359.232 364.998 359.798 364.255 360.364C360.063 363.632 355.962 367.052 351.877 370.483L349.299 372.652C347.968 373.762 346.637 374.87 345.306 375.976C344.525 376.627 343.734 377.273 342.949 377.918C342.378 378.388 341.813 378.858 341.232 379.322C338.32 381.684 335.371 383.994 332.363 386.202C331.647 386.729 330.92 387.255 330.21 387.771C324.188 392.105 317.783 395.818 311.083 398.858L310.997 398.897C307.697 400.377 304.302 401.609 300.836 402.584C298.85 403.15 296.864 403.597 294.852 403.948C289.49 404.924 284.016 405.023 278.626 404.243C268.029 402.663 258.099 397.448 247.53 395.704C225.723 392.142 204.545 403.631 184.025 412.652C179.002 414.864 173.923 416.94 168.789 418.88C165.388 420.171 161.97 421.4 158.537 422.566C137.618 429.685 116.064 434.537 94.2083 437.045C85.2853 438.07 75.9802 438.557 66.8958 437.821C63.4652 437.556 60.0514 437.089 56.6704 436.423C45.1695 434.158 34.4329 429.35 25.7844 420.568C18.5997 413.382 13.5301 403.988 9.66596 394.186C8.11242 390.249 6.74365 386.221 5.55966 382.103C3.69865 375.648 2.30084 369.055 1.37803 362.38C1.16814 360.874 0.979774 359.362 0.839848 357.85C0.559996 355.257 0.351898 352.652 0.21556 350.036C-0.537953 336.132 0.752723 322.19 4.042 308.7C7.70699 293.757 13.8207 279.448 16.5116 264.363C16.6246 263.729 16.7268 263.095 16.8291 262.461C17.1879 260.196 17.4606 257.889 17.6471 255.541C19.0033 237.093 13.7561 219.035 9.61214 200.949C9.46684 200.315 9.32153 199.681 9.1816 199.047C8.73312 197.042 8.30796 195.036 7.90612 193.027C4.06891 173.9 3.01947 153.43 6.42613 134.342C6.53376 133.708 6.65755 133.068 6.78133 132.439C9.07935 120.616 13.1372 109.37 19.3532 99.3535C25.7306 89.0704 34.1046 80.5145 43.033 72.9947C47.3922 69.333 51.9003 65.9072 56.5574 62.7174C59.9048 60.4297 63.3133 58.2648 66.7827 56.2225C94.8164 39.8014 126.8 31.7777 158.424 33.5727C160.099 33.6633 161.771 33.7841 163.439 33.9351C165.19 34.0937 166.936 34.2824 168.676 34.5014C189.035 36.9758 208.845 43.1083 228.537 49.8183C235.135 52.0833 241.717 54.3483 248.299 56.6132C251.227 57.6174 254.153 58.6083 257.077 59.586C271.419 64.3482 285.999 68.646 300.712 71.8849C304.124 72.6399 307.533 73.3288 310.938 73.9517C322.775 76.1828 334.754 77.4812 346.775 77.8361C351.439 77.9569 356.103 77.906 360.768 77.6832C363.125 77.57 365.484 77.4039 367.845 77.185C392.229 74.9879 415.742 67.6211 439.352 60.7015C442.764 59.6993 446.182 58.7027 449.578 57.7401C454.066 56.4717 458.56 55.2429 463.07 54.1104C491.152 47.0154 516.177 51.0924 542.284 65.7241C548.204 69.048 554.124 73.057 557.784 79.2631C561.443 85.4691 562.331 93.1531 563.009 100.548C563.967 111.069 564.624 121.737 564.834 132.451C564.834 133.085 564.834 133.719 564.871 134.353C565.345 156.046 564.091 177.903 560.657 199.047Z" fill="#3F3474"/>
<path opacity="0.1" d="M374.399 262.483H372.564V263.327V264.386H374.642L374.399 262.483ZM353.599 262.483C353.596 262.498 353.596 262.513 353.599 262.528L353.437 264.103V264.244V264.386H369.367V264.273L370.503 262.483H353.599ZM311.002 262.483V200.949H329.3C329.106 200.779 328.907 200.61 328.703 200.451L328.434 200.236C328.321 200.14 328.208 200.049 328.089 199.964C327.971 199.879 327.691 199.664 327.481 199.517C327.271 199.369 327.142 199.273 326.943 199.154L326.819 199.069H326.792H311.002V195.7L310.577 195.915L310.125 196.181H310.093L309.996 196.244L309.716 196.436C309.619 196.499 309.522 196.561 309.431 196.629C309.151 196.827 308.892 197.042 308.596 197.263L308.327 197.489C308.144 197.637 307.972 197.79 307.789 197.942C307.073 198.56 306.368 199.205 305.636 199.8C305.453 199.953 305.27 200.1 305.098 200.241C304.707 200.543 304.301 200.823 303.882 201.079C303.708 201.193 303.528 201.297 303.344 201.391L303.042 201.538L302.768 201.663C302.122 201.95 301.451 202.173 300.766 202.331V262.483H273.319C273.319 262.551 273.357 262.613 273.373 262.681C273.523 263.248 273.674 263.814 273.819 264.38H300.771V330.342H301.191L301.67 330.376L302.542 330.444L303.952 330.591L304.587 330.671L305.287 330.761H305.389C305.793 330.818 306.202 330.886 306.616 330.954L306.88 330.999L307.472 331.101L308.322 331.259L310.362 331.146L310.642 331.208C310.755 331.208 310.867 331.254 310.986 331.282V264.386H353.4V264.244V264.103L353.561 262.528C353.559 262.513 353.559 262.498 353.561 262.483H311.002ZM374.399 262.483H372.564V263.327V264.386H374.642L374.399 262.483ZM352.453 262.483L352.27 264.386H369.992L371.197 262.483H352.453ZM311.013 262.483V200.949H329.311C329.117 200.779 328.918 200.61 328.714 200.451L328.444 200.236C328.331 200.14 328.218 200.049 328.1 199.964C327.982 199.879 327.702 199.664 327.492 199.517C327.282 199.369 327.153 199.273 326.954 199.154L326.83 199.069H326.792H311.002V195.7L310.577 195.915L310.125 196.181H310.093L309.996 196.244L309.716 196.436C309.619 196.499 309.522 196.561 309.431 196.629C309.151 196.827 308.892 197.042 308.596 197.263L308.327 197.489C308.144 197.637 307.972 197.79 307.789 197.942C307.073 198.56 306.368 199.205 305.636 199.8C305.453 199.953 305.27 200.1 305.098 200.241C304.707 200.543 304.301 200.823 303.882 201.079C303.708 201.193 303.528 201.297 303.344 201.391L303.042 201.538L302.768 201.663C302.122 201.95 301.451 202.173 300.766 202.331V262.483H273.319C273.319 262.551 273.357 262.613 273.373 262.681C273.523 263.248 273.679 263.814 273.825 264.38H300.771V330.336L301.191 330.365L301.67 330.399L302.542 330.467L303.952 330.614L304.587 330.693L305.287 330.784H305.389C305.793 330.84 306.202 330.908 306.616 330.976L306.88 331.022L307.472 331.123L308.322 331.282L310.362 331.169L310.642 331.231C310.755 331.231 310.867 331.276 310.986 331.305V264.386H352.27L352.463 262.483H311.013ZM449.68 134.342H564.973C564.973 133.708 564.974 133.073 564.936 132.439H449.68V57.7287C446.257 58.6914 442.839 59.688 439.454 60.6902V132.439H314.059L313.741 132.077L314.22 131.511L360.859 77.6549C356.195 77.8814 351.53 77.9324 346.866 77.8078L311.002 119.2V73.9403C307.579 73.3175 304.171 72.6286 300.777 71.8736V117.117L248.342 56.6019C241.76 54.3369 235.178 52.0323 228.58 49.807L299.851 132.077L299.534 132.439H168.719V34.4787C166.975 34.2711 165.229 34.0823 163.482 33.9124C161.814 33.7577 160.142 33.6369 158.466 33.55V132.439H66.8255V56.2225C63.3489 58.261 59.9404 60.426 56.6001 62.7174V132.439H6.7595C6.63572 133.068 6.51193 133.708 6.4043 134.342H56.5571V199.047H9.1813C9.32122 199.681 9.46653 200.315 9.61184 200.949H56.5786V262.483H16.8127C16.7104 263.117 16.6081 263.752 16.4951 264.386H56.5786V436.44C59.9596 437.106 63.3734 437.573 66.804 437.838V264.386H158.466V422.583C161.904 421.409 165.321 420.181 168.719 418.897V264.386H300.755V402.606C304.221 401.632 307.616 400.4 310.916 398.92L311.002 398.88V264.386H439.422V329.204C442.827 328.558 446.235 327.941 449.647 327.352V264.386H540.96C541.261 263.752 541.557 263.117 541.848 262.483H449.68V200.949H560.345C560.458 200.315 560.56 199.681 560.663 199.047H449.68V134.342ZM66.8309 134.342H158.466V199.047H66.8255L66.8309 134.342ZM66.8309 262.483V200.949H158.466V262.483H66.8309ZM168.724 134.342H300.755V199.047H168.719L168.724 134.342ZM168.724 262.483V200.949H300.755V262.483H168.724ZM439.427 262.483H311.002V200.949H439.422L439.427 262.483ZM439.427 199.064H311.002V136.074L312.805 134.342H439.422L439.427 199.064ZM353.604 262.483C353.602 262.498 353.602 262.513 353.604 262.528L353.443 264.103V264.244V264.386H369.373V264.273L370.508 262.483H353.604ZM374.405 262.483H372.57V263.327V264.386H374.647L374.405 262.483ZM311.007 262.483V200.949H329.305C329.112 200.779 328.913 200.61 328.708 200.451L328.439 200.236C328.326 200.14 328.213 200.049 328.095 199.964C327.976 199.879 327.696 199.664 327.486 199.517C327.277 199.369 327.147 199.273 326.948 199.154L326.824 199.069H326.798H311.002V195.7L310.577 195.915L310.125 196.181H310.093L309.996 196.244L309.716 196.436C309.619 196.499 309.522 196.561 309.431 196.629C309.151 196.827 308.892 197.042 308.596 197.263L308.327 197.489C308.144 197.637 307.972 197.79 307.789 197.942C307.073 198.56 306.368 199.205 305.636 199.8C305.453 199.953 305.27 200.1 305.098 200.241C304.707 200.543 304.301 200.823 303.882 201.079C303.708 201.193 303.528 201.297 303.344 201.391L303.042 201.538L302.768 201.663C302.122 201.95 301.451 202.173 300.766 202.331V262.483H273.319C273.319 262.551 273.357 262.613 273.373 262.681C273.523 263.248 273.674 263.814 273.819 264.38H300.771V330.342H301.191L301.67 330.376L302.542 330.444L303.952 330.591L304.587 330.671L305.287 330.761H305.389C305.793 330.818 306.202 330.886 306.616 330.954L306.88 330.999L307.472 331.101L308.322 331.259L310.362 331.146L310.642 331.208C310.755 331.208 310.867 331.254 310.986 331.282V264.386H353.4V264.244V264.103L353.561 262.528C353.559 262.513 353.559 262.498 353.561 262.483H311.007Z" fill="#3F3474"/>
<path opacity="0.1" d="M110.886 89.7896H111.704C111.424 89.6191 111.189 89.3784 111.019 89.0889C110.849 88.7994 110.75 88.4701 110.73 88.1305C110.73 86.8168 112.258 85.7466 114.126 85.7466H137.886C139.754 85.7466 141.282 86.8168 141.282 88.1305C141.282 89.4385 139.754 90.5144 137.886 90.5144H137.095C137.374 90.6859 137.608 90.927 137.777 91.2164C137.946 91.5057 138.045 91.8345 138.064 92.1735C138.064 93.306 136.955 94.2346 135.47 94.4894H142.31C144.172 94.4894 145.701 95.5596 145.701 96.8733C145.701 98.187 144.172 99.2515 142.31 99.2515H118.523C116.661 99.2515 115.132 98.1813 115.132 96.8733C115.132 95.7408 116.241 94.8122 117.726 94.5574H110.886C109.024 94.5574 107.496 93.4872 107.496 92.1735C107.496 90.8598 109.013 89.7896 110.886 89.7896Z" fill="#3F3474"/>
<path opacity="0.1" d="M368.415 112.479H369.211C368.931 112.308 368.695 112.066 368.525 111.775C368.355 111.485 368.257 111.155 368.237 110.814C368.237 109.506 369.766 108.436 371.633 108.436H395.394C397.261 108.436 398.79 109.506 398.79 110.814C398.79 112.128 397.261 113.198 395.394 113.198H394.603C394.882 113.371 395.116 113.613 395.285 113.903C395.454 114.193 395.552 114.523 395.571 114.863C395.571 115.995 394.463 116.918 392.977 117.173H399.818C401.68 117.173 403.208 118.249 403.208 119.557C403.208 120.865 401.68 121.941 399.818 121.941H376.062C374.2 121.941 372.672 120.871 372.672 119.557C372.672 118.425 373.781 117.496 375.266 117.247H368.415C366.553 117.247 365.024 116.171 365.024 114.863C365.024 113.555 366.564 112.479 368.415 112.479Z" fill="#3F3474"/>
<path opacity="0.1" d="M74.4353 209.573H75.2318C74.9528 209.401 74.7185 209.159 74.5495 208.868C74.3806 208.578 74.2822 208.248 74.2631 207.908C74.2631 206.6 75.7861 205.525 77.6536 205.525H101.414C103.282 205.525 104.81 206.6 104.81 207.908C104.81 209.222 103.282 210.292 101.414 210.292H100.623C100.902 210.465 101.136 210.707 101.305 210.997C101.474 211.288 101.573 211.617 101.592 211.957C101.592 213.09 100.483 214.013 98.9977 214.267H105.838C107.705 214.267 109.228 215.338 109.228 216.651C109.228 217.965 107.705 219.035 105.838 219.035H82.0721C80.21 219.035 78.6815 217.959 78.6815 216.651C78.6815 215.519 79.7956 214.59 81.2756 214.335H74.4353C72.5732 214.335 71.0448 213.265 71.0448 211.957C71.0448 210.649 72.5732 209.573 74.4353 209.573Z" fill="#3F3474"/>
<path d="M349.234 372.675C347.903 373.784 346.572 374.892 345.241 375.998C344.461 376.65 343.669 377.295 342.884 377.941C342.313 378.411 341.748 378.881 341.167 379.345C338.255 381.706 335.306 384.017 332.298 386.225C331.582 386.751 330.855 387.278 330.145 387.793C324.123 392.127 317.718 395.84 311.018 398.88L310.932 398.92V372.675H349.234Z" fill="#65617D"/>
<path d="M409.123 269.527L409.725 249.964C409.365 249.669 408.999 249.397 408.649 249.125C408.798 243.292 408.481 237.457 407.702 231.679C405.269 212.116 389.474 211.691 385.018 215.728C384.427 216.264 383.783 216.732 383.096 217.121C383.5 214.33 384 211.532 384.361 208.769C386.309 193.866 383.285 177.099 372.295 167.467C367.694 163.441 362.07 160.967 357.016 157.598C347.964 151.59 340.812 142.717 331.657 136.867C322.503 131.018 309.646 128.827 301.659 136.346C298.565 139.257 296.568 143.294 293.393 146.103C287.473 151.335 278.243 151.68 273.077 157.524C272.818 157.818 272.571 158.118 272.334 158.436C268.029 164.245 269.207 172.484 270.58 179.692C272.232 188.367 271.548 195.321 278.62 197.812C278.647 198.158 278.668 198.503 278.706 198.843C279.281 204.164 280.955 209.289 283.61 213.859C286.265 218.429 289.837 222.333 294.076 225.298L292.93 225.728C289.873 226.861 287.123 227.959 285.363 228.712C278.905 231.481 265.311 235.088 265.311 235.088C265.311 235.088 264.988 239.165 265.047 245.179C260.516 250.36 252.954 259.465 250.732 264.861C247.502 272.732 229.258 295.275 224.398 298.678C219.539 302.081 214.27 306.118 214.27 306.118C214.27 306.118 206.574 310.586 202.931 311.01C200.407 311.305 192.598 309.731 192.598 309.731C192.598 309.731 161.41 269.527 163.434 300.376C165.457 331.225 190.37 332.273 190.37 332.273L215.486 331.848C215.486 331.848 229.059 333.762 235.135 328.451C240.323 323.921 267.211 299.068 275.848 287.794C276.047 288.027 276.247 288.253 276.456 288.474C276.456 288.474 279.895 283.797 280.304 288.474C280.713 293.151 278.071 295.269 279.492 296.968C280.913 298.666 285.164 304.623 285.363 306.962C285.562 309.3 279.696 318.853 289.615 326.101C289.771 326.214 289.938 326.322 290.121 326.429C291.891 330.671 297.521 334.821 297.521 334.821L327.901 334.396L385.222 339.074C385.222 339.074 386.928 337.494 389.237 334.912C392.321 337.89 396.599 340.444 401.421 338.875C401.421 338.875 408.31 330.161 408.514 324.419C408.514 324.419 404.058 312.296 402.056 308.683C400.054 305.071 403.477 297.2 403.477 297.2C403.477 297.2 405.904 289.544 407.325 289.544C408.746 289.544 407.729 284.448 407.729 284.448C407.192 283.615 406.855 282.657 406.749 281.656C406.644 280.656 406.771 279.643 407.121 278.706C408.31 275.484 409.123 269.527 409.123 269.527Z" fill="url(#paint0_linear)"/>
<path d="M374.76 265.122L372.607 267.772L363.91 278.429L352.549 279.153L334.364 280.331C334.364 280.331 309.845 249.244 314.452 242.478C316.126 240.037 316.4 236.815 316.066 233.775C316.023 233.356 315.964 232.936 315.894 232.523C315.343 229.306 314.38 226.182 313.031 223.237L313.634 222.948L314.021 222.761L335.462 212.467L340.769 209.919C341.033 211.457 341.523 212.944 342.222 214.324C342.324 214.539 342.437 214.754 342.555 214.958C349.869 227.699 373.323 219.641 373.323 219.641L374.76 265.122Z" fill="#EE8E9E"/>
<path d="M406.464 249.216C406.303 256.928 405.108 260.258 405.108 260.258L374.76 265.122L373.624 256.832L369.131 224.097L373.35 219.658C375.036 220.041 376.782 220.011 378.455 219.571C380.128 219.131 381.683 218.293 382.999 217.121C387.418 213.101 403.095 213.526 405.506 232.976C406.214 238.356 406.534 243.785 406.464 249.216Z" fill="#EE8E9E"/>
<path d="M399.279 339.549C399.279 339.549 406.109 330.88 406.313 325.172L399.478 313.117L393.451 306.322L382.192 329.187C382.192 329.187 389.63 342.72 399.279 339.549Z" fill="#DFE5EE"/>
<path opacity="0.1" d="M399.279 339.549C399.279 339.549 406.109 330.88 406.313 325.172L399.478 313.117L393.451 306.322L382.192 329.187C382.192 329.187 389.63 342.72 399.279 339.549Z" fill="black"/>
<path d="M342.884 377.941C342.313 378.411 341.748 378.881 341.167 379.345C338.255 381.706 335.306 384.017 332.298 386.225C331.582 386.751 330.855 387.278 330.145 387.793H300.755H168.719H158.466L107.673 385.879L66.8255 385.517L56.6002 384.951L5.58094 382.12C3.71186 375.66 2.30685 369.062 1.37778 362.38C1.16789 360.874 0.979526 359.362 0.8396 357.85L56.5787 361.101L66.804 361.706L158.445 367.086L168.697 367.686L300.734 375.444L310.894 376.044H310.981L342.884 377.941Z" fill="#D48A9B"/>
<path d="M411.738 335.761C400.539 339.159 389.673 343.536 379.447 349.736C378.635 350.229 377.833 350.733 377.02 351.248C376.208 351.763 375.406 352.278 374.625 352.811C373.845 353.343 373.059 353.87 372.284 354.408L371.089 355.257L369.922 356.095C368.77 356.927 367.634 357.794 366.499 358.632L366.456 358.666C365.708 359.232 364.965 359.798 364.222 360.364C360.03 363.632 355.929 367.052 351.844 370.483C350.983 371.208 350.12 371.931 349.256 372.652L345.273 375.976C344.493 376.627 343.702 377.273 342.916 377.918C342.345 378.388 341.78 378.858 341.199 379.322L311.061 377.81H310.975L300.814 377.312L168.719 370.727L158.466 370.211L66.8254 365.631L56.6001 365.115L1.37768 362.38C1.16779 360.874 0.979424 359.362 0.839498 357.85C0.559646 355.257 0.351548 352.652 0.21521 350.036L56.5947 329.085L66.8201 325.274L76.109 321.82L93.0347 322.749L132.155 324.861L158.482 326.316L168.735 326.882L175.284 327.245L176.85 327.335L231.971 330.365L232.552 330.404L257.147 331.752H257.426H257.588L260.047 331.882L268.432 332.347L278.916 332.913L282.371 333.105L283.022 333.145L287.909 333.411L289.303 333.485L293.969 333.745L295.825 333.853H295.885H296.272L300.637 334.096L307.396 334.47H307.428L309.527 334.583H309.753L311.007 334.657L314.086 334.827L316.777 334.974H316.803L319.823 335.138H319.871L322.158 335.268L323.913 335.365L330.14 335.71L331.259 335.772H331.646L332.185 335.806L334.009 335.908L334.827 335.954L341.178 336.299H341.759L351.134 336.214H351.198L386.842 335.908H387.525H388.247H390.367L401.841 335.812H403.552L411.738 335.761Z" fill="#EFC6CD"/>
<path d="M171.178 336.537L174.493 355.093L264.627 353.666C264.627 353.666 271.408 355.727 271.258 350.019C271.258 350.019 284.976 336.378 354.46 352.239L327.782 330.195L254.859 334.317L170.301 331.939L171.178 336.537Z" fill="#3F3474"/>
<path d="M172.836 332.097L176 352.239C176 352.239 253.498 349.861 265.682 352.08L256.474 333.683C256.474 333.683 209.615 329.085 172.836 332.097Z" fill="white"/>
<path opacity="0.1" d="M172.836 332.097L176 352.239C176 352.239 253.498 349.861 265.682 352.08L256.474 333.683C256.474 333.683 209.615 329.085 172.836 332.097Z" fill="black"/>
<path d="M173.993 332.024L177.114 350.755C177.114 350.755 253.627 348.547 265.682 350.608L256.603 333.502C256.603 333.502 210.309 329.221 173.993 332.024Z" fill="white"/>
<path opacity="0.1" d="M175.397 332.601L178.438 350.121C178.438 350.121 253.272 348.054 265.085 349.985L256.205 333.977C256.205 333.977 210.923 329.957 175.397 332.601Z" fill="black"/>
<path d="M176 331.962L179.057 349.515C179.057 349.515 253.891 347.448 265.704 349.379L256.802 333.355C256.802 333.355 211.525 329.34 176 331.962Z" fill="white"/>
<path d="M123.054 284.323C123.054 284.323 126.972 289.708 121.251 297.845C115.531 305.982 110.805 312.845 112.716 317.919C112.716 317.919 121.327 302.811 128.377 302.63C135.427 302.449 130.788 293.406 123.054 284.323Z" fill="#3F3474"/>
<path opacity="0.1" d="M123.054 284.323C123.399 284.846 123.669 285.418 123.856 286.022C130.713 294.516 134.367 302.443 127.774 302.613C121.633 302.794 114.271 314.346 112.506 317.267C112.567 317.486 112.637 317.707 112.716 317.93C112.716 317.93 121.327 302.823 128.377 302.641C135.427 302.46 130.788 293.406 123.054 284.323Z" fill="black"/>
<path d="M130.336 291.192C130.336 293.083 130.131 294.623 129.884 294.623C129.636 294.623 129.432 293.083 129.432 291.192C129.432 289.301 129.685 290.184 129.932 290.184C130.18 290.184 130.336 289.295 130.336 291.192Z" fill="#FFD037"/>
<path d="M132.833 293.451C131.251 294.363 129.873 294.912 129.755 294.68C129.636 294.448 130.831 293.547 132.402 292.619C133.974 291.69 133.36 292.37 133.479 292.619C133.597 292.868 134.415 292.545 132.833 293.451Z" fill="#FFD037"/>
<path d="M102.372 284.323C102.372 284.323 98.4542 289.708 104.18 297.845C109.907 305.982 114.621 312.845 112.716 317.919C112.716 317.919 104.078 302.811 97.0496 302.63C90.021 302.449 94.6385 293.406 102.372 284.323Z" fill="#3F3474"/>
<path opacity="0.1" d="M102.372 284.323C102.031 284.847 101.761 285.419 101.57 286.022C94.7139 294.516 91.0597 302.443 97.6523 302.613C103.793 302.794 111.161 314.346 112.926 317.267C112.868 317.486 112.798 317.707 112.716 317.93C112.716 317.93 104.078 302.823 97.0496 302.641C90.021 302.46 94.6385 293.406 102.372 284.323Z" fill="black"/>
<path d="M95.0906 291.192C95.0906 293.083 95.2951 294.623 95.5426 294.623C95.7902 294.623 95.9947 293.083 95.9947 291.192C95.9947 289.301 95.7418 290.184 95.4942 290.184C95.2466 290.184 95.0906 289.295 95.0906 291.192Z" fill="#FFD037"/>
<path d="M92.5934 293.451C94.1757 294.363 95.5588 294.912 95.6772 294.68C95.7956 294.448 94.6008 293.547 93.0293 292.619C91.4579 291.69 92.0714 292.37 91.953 292.619C91.8346 292.868 91.0112 292.545 92.5934 293.451Z" fill="#FFD037"/>
<path d="M133.769 310.654L133.576 312.352L133.301 314.725L133.188 315.716L132.914 318.094L132.795 319.085L132.515 321.463L129.383 348.485C129.103 350.897 125.358 352.777 120.837 352.777H104.573C100.053 352.777 96.3123 350.897 96.0324 348.485L92.8949 321.463L92.6204 319.085L92.5074 318.094L92.2275 315.716L92.1145 314.725L91.84 312.352L91.6409 310.654C91.4848 309.289 93.5084 308.14 96.0701 308.14H129.362C131.918 308.14 133.947 309.289 133.769 310.654Z" fill="#65617D"/>
<path d="M133.592 312.335L133.317 314.714H92.1144L91.84 312.335H133.592Z" fill="#9D9CB5"/>
<path d="M133.204 315.705L132.93 318.083H92.5074L92.2275 315.705H133.204Z" fill="#9D9CB5"/>
<path d="M132.811 319.074L132.537 321.446H92.8948L92.6204 319.074H132.811Z" fill="#9D9CB5"/>
<path d="M183.438 308.468C183.438 308.468 172.986 297.896 173.39 311.639C173.794 325.382 183.438 308.468 183.438 308.468Z" fill="#EE8E9E"/>
<path d="M277.291 284.363C277.059 285.427 275.934 287.194 274.18 289.408C265.117 300.892 239.333 324.759 234.279 329.187C228.252 334.476 214.787 332.584 214.787 332.584L189.869 333.009C189.869 333.009 165.151 331.95 163.138 301.299C161.125 270.648 192.076 310.603 192.076 310.603C192.076 310.603 199.825 312.166 202.328 311.871C205.944 311.452 213.581 307.013 213.581 307.013C213.581 307.013 218.807 302.992 223.629 299.612C228.451 296.231 246.539 273.814 249.757 265.988C251.797 261.022 258.368 252.902 262.905 247.636C265.51 244.607 267.442 242.54 267.442 242.54C267.442 242.54 278.695 277.806 277.291 284.363Z" fill="#EE8E9E"/>
<path opacity="0.1" d="M277.291 284.363C277.059 285.427 275.934 287.194 274.18 289.408C265.031 279.606 263.12 260.048 262.905 247.614C265.51 244.584 267.442 242.517 267.442 242.517C267.442 242.517 278.695 277.806 277.291 284.363Z" fill="black"/>
<path opacity="0.1" d="M372.602 267.772L363.91 278.429L352.549 279.153L334.364 280.331C334.364 280.331 309.845 249.244 314.452 242.478C316.126 240.037 316.4 236.815 316.066 233.775C316.023 233.356 315.964 232.936 315.894 232.523C315.343 229.306 314.38 226.182 313.031 223.237L313.634 222.948L314.021 222.761C314.978 225.566 315.639 228.473 315.991 231.43C316.05 231.832 316.104 232.251 316.158 232.682C316.346 234.211 316.518 235.909 316.696 237.778C318.095 254.89 328.326 261.328 332.944 263.378C334.428 264.037 335.88 264.776 337.292 265.592C341.735 268.17 346.858 269.144 351.877 268.366C363.275 266.792 372.57 258.078 372.57 258.078L372.618 266.656L372.602 267.772Z" fill="black"/>
<path d="M372.952 334.266C372.952 334.266 298.193 334.051 288.339 326.865C278.485 319.68 284.325 310.161 284.12 307.834C283.916 305.507 279.702 299.589 278.297 297.891C276.892 296.192 279.502 294.085 279.099 289.436C278.695 284.788 275.283 289.436 275.283 289.436C261.21 274.42 264.224 236.362 264.224 236.362C264.224 236.362 277.678 232.772 284.136 230.015C285.885 229.267 288.608 228.203 291.671 227.053L292.806 226.623C300.701 223.65 310.087 220.292 310.087 220.292C310.087 220.292 311.89 218.95 313.704 222.965C314.532 224.811 315.367 227.784 316.034 232.534C316.093 232.936 316.147 233.356 316.201 233.786C316.389 235.315 316.561 237.013 316.739 238.882C318.138 255.994 328.369 262.432 332.987 264.482C334.471 265.141 335.923 265.88 337.335 266.696C341.778 269.274 346.901 270.248 351.92 269.471C363.318 267.896 372.613 259.182 372.613 259.182L372.661 267.761L372.801 293.536L372.952 334.266Z" fill="#DFE5EE"/>
<path d="M369.733 300.858L368.528 308.893C368.528 308.893 338.783 316.713 327.131 319.04C315.48 321.367 290.352 318.406 288.544 323.479C286.736 328.553 296.181 335.535 296.181 335.535L326.319 335.11L383.193 339.764C383.193 339.764 404.898 319.674 397.864 305.716C390.83 291.758 369.733 300.858 369.733 300.858Z" fill="#EE8E9E"/>
<path opacity="0.1" d="M308.44 237.421C308.44 237.421 294.771 249.261 297.386 254.975C300.002 260.688 308.44 237.421 308.44 237.421Z" fill="black"/>
<path opacity="0.1" d="M291.558 258.774C291.558 258.774 277.689 283.938 278.496 285.841C279.303 287.743 283.119 294.51 282.915 289.437C282.71 284.363 291.558 258.774 291.558 258.774Z" fill="black"/>
<path opacity="0.1" d="M297.187 263.219C297.187 263.219 293.958 278.865 290.756 285.422C287.554 291.979 297.187 263.219 297.187 263.219Z" fill="black"/>
<path opacity="0.1" d="M342.582 214.975C339.925 220.102 336.139 224.485 331.542 227.758C326.945 231.031 321.67 233.097 316.158 233.786H316.093C307.423 234.857 298.687 232.451 291.628 227.048C299.7 223.978 310.044 220.287 310.044 220.287C310.044 220.287 311.847 218.945 313.661 222.959L340.796 209.936C341.1 211.714 341.706 213.421 342.582 214.975Z" fill="black"/>
<path d="M346.823 196.187C346.833 202.555 345.256 208.815 342.249 214.341C340.812 216.976 339.071 219.415 337.066 221.6C331.471 227.729 324.016 231.607 315.991 232.563H315.921C314.638 232.717 313.348 232.795 312.057 232.795C303.515 232.795 295.271 229.486 288.899 223.5C282.528 217.513 278.474 209.268 277.511 200.338C277.362 198.967 277.288 197.589 277.291 196.21C277.291 186.508 280.953 177.204 287.473 170.344C293.993 163.484 302.836 159.63 312.057 159.63C321.277 159.63 330.12 163.484 336.64 170.344C343.16 177.204 346.823 186.508 346.823 196.21V196.187Z" fill="#EE8E9E"/>
<path opacity="0.1" d="M369.335 265.405L372.564 260.309C372.564 260.309 390.249 238.106 407.546 252.274L406.943 271.73C406.943 271.73 406.136 277.647 404.93 280.79C404.584 281.722 404.458 282.73 404.563 283.725C404.668 284.72 405.001 285.673 405.533 286.503C405.533 286.503 406.539 291.6 405.135 291.6C403.73 291.6 401.314 299.21 401.314 299.21C401.314 299.21 397.896 307.035 399.909 310.631C401.922 314.227 406.34 326.276 406.34 326.276C406.34 326.276 399.306 321.837 397.293 314.436C397.293 314.436 380.212 300.478 366.946 309.34L369.335 265.405Z" fill="black"/>
<path opacity="0.1" d="M406.464 249.216C406.303 256.928 405.108 260.258 405.108 260.258L374.76 265.122L373.624 256.832C377.596 252.472 392.041 238.61 406.464 249.216Z" fill="black"/>
<path d="M369.335 264.272L372.564 259.176C372.564 259.176 390.249 236.974 407.546 251.141L406.943 270.597C406.943 270.597 406.136 276.515 404.93 279.657C404.584 280.59 404.458 281.597 404.563 282.592C404.668 283.587 405.001 284.541 405.533 285.371C405.533 285.371 406.539 290.467 405.135 290.467C403.73 290.467 401.314 298.077 401.314 298.077C401.314 298.077 397.896 305.903 399.909 309.499C401.922 313.094 406.34 325.144 406.34 325.144C406.34 325.144 399.306 320.705 397.293 313.304C397.293 313.304 380.212 299.346 366.946 308.208L369.335 264.272Z" fill="#DFE5EE"/>
<path opacity="0.1" d="M397.869 249.896C397.869 249.896 368.732 268.718 370.137 285.224C370.137 285.224 386.417 254.969 397.869 249.896Z" fill="black"/>
<path opacity="0.1" d="M372.597 267.778L372.736 293.553C367.226 293.814 362.032 293.06 357.926 289.306C355.068 286.69 353.405 283.078 352.544 279.17C351.903 276.022 351.668 272.798 351.844 269.584C351.842 269.552 351.842 269.52 351.844 269.488C352.183 262.37 353.739 255.252 352.921 248.18C352.103 241.107 348.029 233.644 341.377 232.155C340.064 231.855 338.589 231.747 337.653 230.734C336.619 229.601 336.668 227.84 336.781 226.272L336.975 223.627C337.023 222.948 337.044 222.274 337.044 221.6C337.041 215.588 335.053 209.764 331.421 205.123C327.789 200.482 322.739 197.311 317.132 196.153L316.917 196.114C315.044 195.717 313.096 195.326 311.223 195.779C307.66 196.646 305.357 200.281 302.074 202.008C295.777 205.315 285.277 201.697 278.684 200.559C278.254 200.485 277.845 200.4 277.452 200.304C277.302 198.933 277.229 197.555 277.231 196.176C277.234 190.573 278.459 185.046 280.814 180.02C283.168 174.995 286.588 170.606 290.81 167.191C295.031 163.777 299.942 161.428 305.163 160.327C310.384 159.225 315.776 159.401 320.923 160.839C326.069 162.277 330.833 164.94 334.846 168.622C338.86 172.305 342.016 176.907 344.071 182.076C346.126 187.245 347.025 192.841 346.699 198.433C346.372 204.026 344.83 209.464 342.189 214.33C342.292 214.545 342.405 214.76 342.523 214.964C349.837 227.704 373.291 219.647 373.291 219.647L374.701 265.111L372.597 267.778Z" fill="black"/>
<path d="M303.338 201.38C306.6 199.647 308.903 196.012 312.488 195.151C314.355 194.698 316.303 195.089 318.187 195.479L318.402 195.525C324.33 196.759 329.622 200.238 333.275 205.302C336.928 210.367 338.689 216.665 338.223 223.005L338.029 225.649C337.911 227.212 337.863 228.984 338.907 230.105C339.838 231.119 341.312 231.238 342.625 231.521C349.277 233.016 353.351 240.439 354.169 247.551C354.987 254.663 353.405 261.804 353.093 268.95C352.781 276.096 354.029 283.984 359.164 288.678C367.236 296.039 379.507 291.849 390.19 291.175C385.464 291.175 381.923 286.045 381.665 281.084C381.407 276.124 383.505 271.402 385.513 266.928C387.52 262.455 389.533 257.642 389.086 252.693C388.473 245.898 383.382 240.456 381.433 233.916C379.162 226.306 381.353 218.135 382.381 210.224C384.313 195.411 381.304 178.735 370.406 169.16C365.842 165.157 360.262 162.694 355.246 159.342C346.258 153.345 339.17 144.551 330.086 138.719C321.001 132.887 308.247 130.724 300.319 138.198C297.252 141.091 295.271 145.106 292.117 147.898C285.955 153.362 276.161 153.464 271.22 160.168C266.968 165.938 268.12 174.132 269.482 181.295C271.295 190.847 270.273 198.282 279.976 199.981C286.542 201.074 297.036 204.692 303.338 201.38Z" fill="#603556"/>
<path opacity="0.1" d="M383.29 286.611C375.513 287.613 367.807 288.128 362.145 282.964C357.011 278.27 355.746 270.388 356.074 263.236C356.403 256.085 357.974 248.939 357.151 241.832C356.327 234.726 352.259 227.302 345.607 225.807C344.294 225.513 342.825 225.405 341.888 224.392C340.849 223.259 340.892 221.493 341.011 219.93L341.205 217.285C341.67 210.947 339.909 204.649 336.256 199.586C332.603 194.522 327.311 191.044 321.383 189.811L321.168 189.766C319.285 189.375 317.336 188.985 315.469 189.437C311.906 190.304 309.603 193.967 306.32 195.666C300.018 198.979 289.529 195.36 282.925 194.222C273.238 192.552 274.25 185.106 272.431 175.536C271.414 170.191 270.515 164.268 271.893 159.206C271.634 159.494 271.387 159.772 271.15 160.117C266.898 165.887 268.05 174.081 269.412 181.244C271.225 190.796 270.203 198.231 279.906 199.93C286.504 201.063 296.999 204.687 303.301 201.374C306.562 199.641 308.865 196.006 312.45 195.145C314.317 194.692 316.265 195.083 318.149 195.474L318.364 195.519C324.292 196.753 329.584 200.232 333.237 205.297C336.89 210.361 338.651 216.66 338.185 222.999L337.992 225.643C337.873 227.206 337.825 228.978 338.869 230.1C339.8 231.113 341.275 231.232 342.588 231.515C349.24 233.01 353.314 240.434 354.132 247.546C354.95 254.658 353.373 261.798 353.055 268.944C352.738 276.09 353.992 283.978 359.126 288.672C367.199 296.033 379.469 291.843 390.152 291.169C387.251 291.186 384.813 289.25 383.29 286.611Z" fill="black"/>
<path d="M164.876 305.501L198.055 292.477C198.839 292.169 199.708 292.201 200.469 292.566C201.231 292.932 201.824 293.6 202.118 294.425C202.411 295.25 202.38 296.164 202.033 296.966C201.686 297.767 201.051 298.391 200.267 298.7L167.088 311.724L159.973 310.976L164.876 305.501Z" fill="#5C5C8E"/>
<path opacity="0.1" d="M201.117 293.361C201.41 294.187 201.378 295.101 201.03 295.903C200.682 296.704 200.045 297.328 199.26 297.636L166.06 310.705L160.721 310.138L159.952 310.999L167.066 311.747L200.245 298.723C201.029 298.414 201.665 297.79 202.012 296.988C202.359 296.187 202.389 295.273 202.096 294.448C201.852 293.76 201.398 293.176 200.805 292.789C200.924 292.97 201.029 293.161 201.117 293.361Z" fill="white"/>
<path d="M164.881 305.501L167.088 311.724L161.254 311.107L159.979 310.971L161.722 309.023L164.881 305.501Z" fill="#EFC8C4"/>
<path d="M161.717 309.006C161.853 309.113 161.97 309.246 162.061 309.397C162.116 309.487 162.145 309.592 162.145 309.7C162.145 309.807 162.116 309.912 162.061 310.003C161.97 310.102 161.862 310.185 161.744 310.246C161.611 310.34 161.499 310.464 161.417 310.609C161.335 310.754 161.285 310.916 161.27 311.084L159.989 310.954L161.717 309.006Z" fill="#727A9C"/>
<path d="M269.051 345.246C269.051 345.246 297.79 338.898 346.01 346.944L327.12 332.358L292.752 324.957L268.438 331.752L269.051 345.246Z" fill="white"/>
<path opacity="0.1" d="M269.051 345.246C269.051 345.246 297.79 338.898 346.01 346.944L327.12 332.358L292.752 324.957L268.438 331.752L269.051 345.246Z" fill="black"/>
<path d="M265.682 352.109C265.682 352.109 280.154 310.92 354.481 352.239L327.804 334.176C327.804 334.176 263.895 315.597 256.512 337.007L265.682 352.109Z" fill="white"/>
<path opacity="0.1" d="M265.682 352.08C265.682 352.08 280.154 308.043 354.481 352.873L327.804 333.281C327.804 333.281 263.874 311.061 256.474 334.317L265.682 352.08Z" fill="black"/>
<path d="M265.682 352.097C265.682 352.097 280.154 307.409 354.481 352.239L327.804 332.647C327.804 332.647 263.895 311.061 256.512 334.345L265.682 352.097Z" fill="white"/>
<path opacity="0.1" d="M265.682 352.109C265.682 352.109 280.154 302.443 354.481 352.873L327.782 330.829C327.782 330.829 263.874 308.179 256.49 334.317L265.682 352.109Z" fill="black"/>
<path d="M265.682 352.08C265.682 352.08 280.154 301.809 354.481 352.239L327.782 330.195C327.782 330.195 263.874 307.545 256.49 333.683L265.682 352.08Z" fill="white"/>
<path opacity="0.1" d="M488.671 347.346C488.671 347.346 470.83 367.454 486.889 377.222C486.889 377.222 488.988 379.883 491.986 378.49C491.986 378.49 490.974 377.544 493.003 375.721C493.72 375.067 494.362 374.325 494.913 373.513C495.662 372.415 496.051 371.092 496.022 369.741C496.022 369.741 498.358 361.763 490.936 351.406C490.936 351.406 490.264 347.941 489.693 347.562L488.337 352.392C488.337 352.392 491.744 353.303 493.024 356.033C493.024 356.033 488.536 352.324 488.1 353.099C488.014 353.258 487.492 355.699 487.492 355.699C487.492 355.699 493.412 357.307 495.263 361.588C495.263 361.588 490.479 356.418 487.287 356.622L486.706 360.347C486.706 360.347 493.041 361.729 495.317 366.52C495.317 366.52 490.14 361.293 486.62 361.174L486.518 364.917C486.518 364.917 492.669 366.389 494.547 370.387C494.547 370.387 487.987 364.991 486.55 365.778C486.55 365.778 486.652 369.226 487.088 370.127C487.088 370.127 491.48 371.259 492.373 373.717C492.373 373.717 487.626 370.596 487.217 371.072C487.217 371.072 488.493 375.523 490.269 377.42C490.269 377.42 487.449 374.821 486.566 371.316C486.566 371.316 485.372 373.507 485.673 375.659C485.673 375.659 483.913 373.609 486.27 370.234C486.27 370.234 485.409 366.723 485.624 366.168C485.624 366.168 482.853 369.153 482.142 371.831C482.142 371.831 481.604 368.479 485.619 365.2V361.429C485.619 361.429 481.755 365.172 480.958 367.488C480.958 367.488 480.905 363.977 485.7 360.483L486.238 356.82C486.238 356.82 482.675 359.776 481.26 362.154C481.26 362.154 481.873 358.881 486.426 355.778L487.056 353.377C487.056 353.377 484.494 355.585 483.827 356.287C483.16 356.99 482.907 356.854 482.907 356.854C483.955 354.955 485.482 353.399 487.32 352.358C487.32 352.358 488.967 347.477 488.671 347.346Z" fill="#3F3474"/>
<path opacity="0.1" d="M568.423 20.1697C568.423 20.1697 544.587 31.4946 555.824 47.0041C555.824 47.0041 556.788 50.3166 560.06 50.2486C560.06 50.2486 559.473 48.9633 562.013 48.1026C562.916 47.7922 563.78 47.3682 564.586 46.8398C565.679 46.1312 566.523 45.068 566.992 43.8104C566.992 43.8104 572.072 37.4005 569.021 24.8355C569.021 24.8355 569.672 21.3645 569.284 20.7812L566.26 24.6883C566.26 24.6883 569.069 26.908 569.252 29.9487C569.252 29.9487 566.475 24.7053 565.786 25.2489C565.646 25.3565 564.274 27.395 564.274 27.395C564.274 27.395 569.117 31.2794 569.284 35.9849C569.284 35.9849 566.766 29.2692 563.741 28.1594L561.841 31.3644C561.841 31.3644 567.18 35.2092 567.535 40.5545C567.535 40.5545 564.672 33.635 561.47 32.0948L560.001 35.4923C560.001 35.4923 565.14 39.3484 565.382 43.7991C565.382 43.7991 561.308 36.1548 559.694 36.302C559.694 36.302 558.526 39.5183 558.618 40.5319C558.618 40.5319 562.245 43.3631 562.18 45.9905C562.18 45.9905 558.951 41.1887 558.413 41.4605C558.413 41.4605 557.956 46.0811 558.903 48.5556C558.903 48.5556 557.251 45.0109 557.724 41.4209C557.724 41.4209 555.814 42.9611 555.308 45.0675C555.308 45.0675 554.436 42.4571 557.848 40.2997C557.848 40.2997 558.338 36.7154 558.741 36.2907C558.741 36.2907 555.087 37.9158 553.462 40.0789C553.462 40.0789 554.188 36.7663 559.102 35.3734L560.501 31.9079C560.501 31.9079 555.566 33.7879 553.978 35.5999C553.978 35.5999 555.216 32.3383 560.921 31.0699L562.756 27.9103C562.756 27.9103 558.386 29.1956 556.206 30.8094C556.206 30.8094 557.977 28.0462 563.316 27.0269L564.774 25.0677C564.774 25.0677 561.599 26.0643 560.711 26.438C559.823 26.8117 559.635 26.5909 559.635 26.5909C561.307 25.2592 563.299 24.4435 565.388 24.2353C565.388 24.2353 568.617 20.3962 568.423 20.1697Z" fill="#3F3474"/>
<path opacity="0.1" d="M342.189 27.1798C342.189 27.1798 306.379 37.9385 323.789 53.9519C323.789 53.9519 325.334 57.3494 330.29 57.3494C330.29 57.3494 329.365 56.0357 333.196 55.2373C334.516 54.9581 335.809 54.5564 337.061 54.0368C338.537 53.4925 339.793 52.4362 340.623 51.0414C340.623 51.0414 348.158 44.6994 343.212 31.9136C343.212 31.9136 344.111 28.4255 343.508 27.8253L339.03 31.6871C339.03 31.6871 343.336 34.0144 343.696 37.0891C343.696 37.0891 339.353 31.7154 338.315 32.242C338.105 32.3496 336.076 34.3654 336.076 34.3654C336.076 34.3654 343.546 38.4311 343.885 43.1932C343.885 43.1932 339.902 36.336 335.274 35.1299L332.475 38.3122C332.475 38.3122 340.656 42.3495 341.328 47.7628C341.328 47.7628 336.818 40.6904 331.932 39.0426L329.779 42.4401C329.779 42.4401 337.658 46.4831 338.175 50.9904C338.175 50.9904 331.808 43.1479 329.365 43.2442C329.365 43.2442 327.68 46.4718 327.831 47.4967C327.831 47.4967 333.396 50.4865 333.369 53.1138C333.369 53.1138 328.342 48.1648 327.513 48.4253C327.513 48.4253 326.943 53.0855 328.439 55.611C328.439 55.611 325.845 51.9813 326.469 48.3687C326.469 48.3687 323.622 49.8692 322.906 51.9813C322.906 51.9813 321.518 49.3256 326.631 47.2419C326.631 47.2419 327.282 43.6292 327.879 43.2102C327.879 43.2102 322.39 44.7504 319.984 46.8908C319.984 46.8908 320.996 43.5613 328.401 42.2929L330.436 38.8275C330.436 38.8275 323.009 40.5941 320.652 42.3778C320.652 42.3778 322.444 39.1162 331.055 37.9837L333.745 34.8411C333.745 34.8411 327.158 36.0132 323.897 37.5874C323.897 37.5874 326.507 34.8411 334.563 33.9634L336.716 32.0268C336.716 32.0268 331.932 32.9442 330.597 33.2952C329.262 33.6463 328.983 33.4198 328.983 33.4198C331.672 32.0496 334.606 31.2932 337.593 31.2001C337.593 31.2001 342.502 27.4176 342.189 27.1798Z" fill="#3F3474"/>
<path opacity="0.1" d="M447.839 447.006C447.839 447.006 465.868 427.08 449.9 417.148C449.9 417.148 447.823 414.464 444.814 415.823C444.814 415.823 445.821 416.78 443.776 418.586C443.053 419.233 442.404 419.966 441.844 420.772C441.084 421.86 440.683 423.181 440.703 424.531C440.703 424.531 438.286 432.487 445.616 442.917C445.616 442.917 446.257 446.389 446.822 446.779L448.227 441.96C448.227 441.96 444.825 441.015 443.571 438.274C443.571 438.274 448.022 442.023 448.463 441.253C448.555 441.094 449.098 438.665 449.098 438.665C449.098 438.665 443.178 436.966 441.381 432.697C441.381 432.697 446.117 437.917 449.314 437.742L449.927 434.022C449.927 434.022 443.609 432.578 441.365 427.793C441.365 427.793 446.494 433.07 450.013 433.229L450.148 429.48C450.148 429.48 444.007 427.918 442.145 423.897C442.145 423.897 448.657 429.367 450.099 428.591C450.099 428.591 450.029 425.149 449.561 424.243C449.561 424.243 445.18 423.031 444.309 420.596C444.309 420.596 449.028 423.767 449.437 423.291C449.437 423.291 448.205 418.829 446.445 416.915C446.445 416.915 449.244 419.543 450.094 423.054C450.094 423.054 451.31 420.873 451.025 418.722C451.025 418.722 452.769 420.794 450.379 424.141C450.379 424.141 451.208 427.663 450.987 428.212C450.987 428.212 453.786 425.256 454.518 422.612C454.518 422.612 455.056 425.97 450.982 429.203L450.928 432.974C450.928 432.974 454.825 429.271 455.643 426.961C455.643 426.961 455.643 430.477 450.837 433.92L450.299 437.578C450.299 437.578 453.888 434.656 455.325 432.295C455.325 432.295 454.679 435.556 450.099 438.614L449.448 441.009C449.448 441.009 452.031 438.829 452.72 438.133C453.409 437.436 453.646 437.566 453.646 437.566C452.581 439.456 451.039 440.997 449.19 442.017C449.19 442.017 447.57 446.87 447.839 447.006Z" fill="#3F3474"/>
<path opacity="0.1" d="M272 0.702128C272 0.702128 275.073 28.0178 292.532 21.4267C292.532 21.4267 295.82 21.455 296.746 18.1482C296.746 18.1482 295.4 18.352 295.39 15.5434C295.377 14.5443 295.252 13.5503 295.018 12.582C294.708 11.2719 294 10.1045 293 9.2581C293 9.2581 288.716 2.22533 276.386 1.53451C276.386 1.53451 273.437 -0.164227 272.791 0.0509468L275.423 4.25815C275.423 4.25815 278.281 2.10642 281.09 2.84254C281.09 2.84254 275.504 4.0543 275.789 4.90367C275.843 5.07921 277.274 7.06673 277.274 7.06673C277.274 7.06673 282.306 3.32951 286.612 4.60356C286.612 4.60356 279.772 5.10186 277.856 7.80285L280.154 10.6794C280.154 10.6794 285.245 6.47784 290.201 7.72924C290.201 7.72924 283.065 8.52198 280.703 11.2683L283.383 13.7711C283.383 13.7711 288.42 9.77338 292.532 10.8492C292.532 10.8492 284.373 12.6386 284.018 14.2977C284.018 14.2977 286.585 16.4381 287.532 16.6646C287.532 16.6646 291.213 13.8843 293.549 14.7337C293.549 14.7337 288.221 16.5344 288.302 17.1686C288.302 17.1686 292.354 19.0145 294.878 18.8107C294.878 18.8107 291.17 19.3769 288.06 17.848C288.06 17.848 288.878 20.2206 290.637 21.3701C290.637 21.3701 288.011 21.455 287.08 17.4064C287.08 17.4064 283.98 15.8322 283.716 15.3056C283.716 15.3056 284.093 19.4562 285.562 21.7382C285.562 21.7382 282.775 20.0394 282.99 14.6657L280.299 12.2139C280.299 12.2139 280.52 17.7348 281.682 19.8752C281.682 19.8752 279.099 17.6499 279.659 11.5401L277.35 8.74848C277.35 8.74848 277.194 13.5163 278.001 16.1889C278.001 16.1889 276.026 13.5842 276.715 7.92176L275.375 5.86629C275.375 5.86629 275.326 9.3487 275.375 10.3566C275.423 11.3645 275.192 11.4608 275.192 11.4608C274.484 9.38603 274.339 7.14524 274.772 4.98861C274.772 4.98861 272.269 0.566229 272 0.702128Z" fill="#3F3474"/>
<path opacity="0.1" d="M402.487 385.053C402.487 385.053 377.289 377.692 376.482 397.193C376.482 397.193 375.212 400.387 377.768 402.538C377.768 402.538 378.097 401.157 380.572 402.204C381.455 402.572 382.377 402.829 383.317 402.969C384.589 403.162 385.885 402.911 387.009 402.255C387.009 402.255 394.812 400.749 400.108 389.039C400.108 389.039 402.718 386.814 402.799 386.1L398.101 387.069C398.101 387.069 398.908 390.67 397.197 393.127C397.197 393.127 398.273 387.227 397.396 387.182C397.218 387.182 394.926 387.81 394.926 387.81C394.926 387.81 396.303 394.073 393.553 397.782C393.553 397.782 395.706 390.93 394.054 388.043L390.642 389.226C390.642 389.226 392.407 395.772 389.425 400.121C389.425 400.121 391.438 392.878 389.91 389.537L386.713 391.174C386.713 391.174 388.327 397.595 385.814 401.196C385.814 401.196 387.332 392.578 386.003 391.599C386.003 391.599 383.15 393.297 382.596 394.124C382.596 394.124 383.672 398.762 382.015 400.715C382.015 400.715 382.445 394.843 381.859 394.685C381.859 394.685 378.694 397.929 377.919 400.466C377.919 400.466 378.807 396.632 381.353 394.192C381.353 394.192 378.952 394.09 377.279 395.364C377.279 395.364 378.194 392.776 382.122 393.416C382.122 393.416 384.684 390.987 385.249 390.936C385.249 390.936 381.482 389.724 378.888 390.291C378.888 390.291 381.46 388.229 386.083 390.472L389.269 388.773C389.269 388.773 384.329 386.899 382.009 387.221C382.009 387.221 384.942 385.523 390.082 388.405L393.408 387.21C393.408 387.21 389.275 385.257 386.616 385.03C386.616 385.03 389.657 384.096 394.377 386.91L396.691 386.383C396.691 386.383 393.645 385.013 392.735 384.685C391.826 384.356 391.831 384.118 391.831 384.118C393.915 384.219 395.933 384.924 397.659 386.157C397.659 386.157 402.503 385.364 402.487 385.053Z" fill="#3F3474"/>
</g>
<defs>
<linearGradient id="paint0_linear" x1="286.531" y1="339.34" x2="286.531" y2="131.522" gradientUnits="userSpaceOnUse">
<stop stop-color="#808080" stop-opacity="0.25"/>
<stop offset="0.54" stop-color="#808080" stop-opacity="0.12"/>
<stop offset="1" stop-color="#808080" stop-opacity="0.1"/>
</linearGradient>
<clipPath id="clip0">
<rect width="570" height="447" fill="white"/>
</clipPath>
</defs>
</svg>
