<svg width="570" height="412" viewBox="0 0 570 412" fill="none" xmlns="http://www.w3.org/2000/svg">
<g clip-path="url(#clip0)">
<path d="M569.176 408.59H0.823699C0.605241 408.59 0.395729 408.503 0.241255 408.349C0.0867817 408.195 0 407.985 0 407.767C0 407.548 0.0867817 407.339 0.241255 407.184C0.395729 407.03 0.605241 406.943 0.823699 406.943H569.176C569.395 406.943 569.604 407.03 569.759 407.184C569.913 407.339 570 407.548 570 407.767C570 407.985 569.913 408.195 569.759 408.349C569.604 408.503 569.395 408.59 569.176 408.59Z" fill="#CCCCCC"/>
<path d="M512.921 264.936H178.499C177.079 264.936 175.718 265.5 174.713 266.504C173.709 267.508 173.145 268.87 173.145 270.29C173.145 271.71 173.709 273.071 174.713 274.075C175.718 275.08 177.079 275.644 178.499 275.644H187.972V403.729C187.972 405.149 188.536 406.511 189.54 407.515C190.544 408.519 191.906 409.083 193.326 409.083C194.746 409.083 196.108 408.519 197.112 407.515C198.116 406.511 198.68 405.149 198.68 403.729L198.761 275.644H491.917V403.729C491.917 405.149 492.481 406.511 493.485 407.515C494.489 408.519 495.851 409.083 497.271 409.083C498.691 409.083 500.053 408.519 501.057 407.515C502.061 406.511 502.625 405.149 502.625 403.729V278.467L504.183 275.644H512.921C514.341 275.644 515.703 275.08 516.707 274.075C517.711 273.071 518.275 271.71 518.275 270.29C518.275 268.87 517.711 267.508 516.707 266.504C515.703 265.5 514.341 264.936 512.921 264.936Z" fill="#CCCCCC"/>
<path d="M363.906 267.738H262.605C260.644 267.736 258.763 266.956 257.377 265.569C255.99 264.182 255.209 262.301 255.207 260.34V204.568C255.209 202.606 255.99 200.726 257.377 199.339C258.763 197.952 260.644 197.172 262.605 197.169H363.906C365.867 197.172 367.748 197.952 369.134 199.339C370.521 200.726 371.302 202.606 371.304 204.568V260.34C371.302 262.301 370.521 264.182 369.134 265.569C367.748 266.956 365.867 267.736 363.906 267.738Z" fill="#3F3D56"/>
<path d="M363.905 202.863H262.606C262.154 202.864 261.721 203.044 261.401 203.364C261.082 203.683 260.902 204.116 260.901 204.568V260.341C260.902 260.793 261.082 261.226 261.402 261.546C261.721 261.865 262.154 262.045 262.606 262.046H363.905C364.357 262.045 364.79 261.865 365.11 261.546C365.429 261.226 365.609 260.793 365.61 260.341V204.568C365.609 204.116 365.429 203.683 365.11 203.364C364.79 203.044 364.357 202.864 363.905 202.863Z" fill="white"/>
<path d="M321.895 242.35C321.895 242.35 309.768 239.556 303.099 244.679C296.429 249.802 311.587 261.445 311.587 261.445L321.895 242.35Z" fill="#2F2E41"/>
<path d="M313.849 237.07C320.167 237.07 325.288 231.949 325.288 225.631C325.288 219.314 320.167 214.192 313.849 214.192C307.532 214.192 302.411 219.314 302.411 225.631C302.411 231.949 307.532 237.07 313.849 237.07Z" fill="#A0616A"/>
<path d="M305.004 209.574C305.767 208.28 306.873 207.221 308.199 206.515C309.526 205.809 311.022 205.484 312.522 205.574C314.091 205.771 315.622 206.2 317.065 206.846L324.543 209.763C326.477 210.518 328.597 211.442 329.436 213.342C330.216 215.105 329.634 217.142 329.046 218.977L326.248 227.703C325.938 225.728 325.406 223.795 324.663 221.939C323.907 220.071 322.541 218.514 320.787 217.521C318.845 216.524 316.556 216.545 314.375 216.65C311.287 216.798 307.929 217.191 305.735 219.37C304.57 220.607 303.781 222.149 303.458 223.817C303.14 225.476 302.98 227.162 302.98 228.851C301.714 226.674 300.647 224.387 299.793 222.018C299.091 220.254 298.69 218.384 298.609 216.487C298.536 214.574 299.171 212.701 300.392 211.226C301.012 210.506 301.821 209.973 302.728 209.687C303.635 209.402 304.603 209.376 305.524 209.611L305.004 209.574Z" fill="#2F2E41"/>
<path d="M341.162 252.269C341.055 251.883 340.836 251.537 340.532 251.274C340.229 251.012 339.855 250.845 339.457 250.794C339.431 250.776 339.403 250.76 339.375 250.745L322.298 241.175C321.811 240.902 321.237 240.827 320.695 240.967C320.154 241.106 319.687 241.449 319.392 241.923L314.722 249.485L307.687 242.45L307.576 242.339C307.215 241.978 306.738 241.755 306.229 241.711C305.721 241.666 305.213 241.803 304.794 242.095L290.76 251.923C290.736 251.923 290.711 251.931 290.686 251.931C290.015 252.043 289.401 252.381 288.947 252.889C288.493 253.396 288.226 254.044 288.19 254.724L287.828 262.046H343.872L341.162 252.269Z" fill="#3F3474"/>
<path d="M372.442 260.909H361.629C361.629 260.607 361.509 260.317 361.296 260.104C361.082 259.89 360.793 259.771 360.491 259.771H357.076C356.774 259.771 356.485 259.89 356.271 260.104C356.058 260.317 355.938 260.607 355.938 260.909H352.524C352.524 260.607 352.404 260.317 352.19 260.104C351.977 259.89 351.687 259.771 351.385 259.771H347.971C347.669 259.771 347.379 259.89 347.166 260.104C346.952 260.317 346.832 260.607 346.832 260.909H343.418C343.418 260.607 343.298 260.317 343.085 260.104C342.871 259.89 342.582 259.771 342.28 259.771H338.865C338.563 259.771 338.274 259.89 338.06 260.104C337.847 260.317 337.727 260.607 337.727 260.909H334.312C334.312 260.607 334.192 260.317 333.979 260.104C333.765 259.89 333.476 259.771 333.174 259.771H329.759C329.458 259.771 329.168 259.89 328.955 260.104C328.741 260.317 328.621 260.607 328.621 260.909H325.207C325.207 260.607 325.087 260.317 324.873 260.104C324.66 259.89 324.37 259.771 324.068 259.771H320.654C320.352 259.771 320.062 259.89 319.849 260.104C319.636 260.317 319.516 260.607 319.516 260.909H316.101C316.101 260.607 315.981 260.317 315.768 260.104C315.554 259.89 315.265 259.771 314.963 259.771H311.548C311.246 259.771 310.957 259.89 310.743 260.104C310.53 260.317 310.41 260.607 310.41 260.909H306.995C306.995 260.607 306.875 260.317 306.662 260.104C306.449 259.89 306.159 259.771 305.857 259.771H302.443C302.141 259.771 301.851 259.89 301.638 260.104C301.424 260.317 301.304 260.607 301.304 260.909H297.89C297.89 260.607 297.77 260.317 297.556 260.104C297.343 259.89 297.053 259.771 296.752 259.771H293.337C293.035 259.771 292.746 259.89 292.532 260.104C292.319 260.317 292.199 260.607 292.199 260.909H288.784C288.784 260.607 288.664 260.317 288.451 260.104C288.237 259.89 287.948 259.771 287.646 259.771H284.231C283.929 259.771 283.64 259.89 283.427 260.104C283.213 260.317 283.093 260.607 283.093 260.909H279.679C279.679 260.607 279.559 260.317 279.345 260.104C279.132 259.89 278.842 259.771 278.54 259.771H275.126C274.824 259.771 274.534 259.89 274.321 260.104C274.107 260.317 273.988 260.607 273.988 260.909H270.573C270.573 260.607 270.453 260.317 270.24 260.104C270.026 259.89 269.737 259.771 269.435 259.771H266.02C265.718 259.771 265.429 259.89 265.215 260.104C265.002 260.317 264.882 260.607 264.882 260.909H254.069C253.164 260.91 252.297 261.27 251.658 261.911C251.019 262.551 250.66 263.419 250.66 264.323C250.66 265.228 251.019 266.096 251.658 266.736C252.297 267.376 253.164 267.737 254.069 267.738H372.442C373.348 267.738 374.216 267.378 374.857 266.738C375.497 266.097 375.857 265.229 375.857 264.323C375.857 263.418 375.497 262.549 374.857 261.909C374.216 261.268 373.348 260.909 372.442 260.909Z" fill="#3F3D56"/>
<path d="M236.467 241.079V263.752H179.663C178.141 263.805 176.624 263.551 175.202 263.005C173.781 262.459 172.483 261.633 171.388 260.575C170.293 259.517 169.421 258.249 168.826 256.847C168.231 255.446 167.925 253.938 167.925 252.416C167.925 250.893 168.231 249.386 168.826 247.984C169.421 246.582 170.293 245.314 171.388 244.256C172.483 243.198 173.781 242.372 175.202 241.826C176.624 241.28 178.141 241.026 179.663 241.079H236.467Z" fill="#F2F2F2"/>
<path d="M237.862 263.577C237.862 263.809 237.77 264.03 237.607 264.194C237.443 264.357 237.221 264.449 236.99 264.449H178.651C175.482 264.449 172.444 263.191 170.203 260.95C167.963 258.71 166.704 255.671 166.704 252.503C166.704 249.334 167.963 246.295 170.203 244.055C172.444 241.814 175.482 240.556 178.651 240.556H236.99C237.221 240.556 237.443 240.648 237.607 240.811C237.77 240.975 237.862 241.196 237.862 241.428C237.862 241.659 237.77 241.881 237.607 242.044C237.443 242.208 237.221 242.3 236.99 242.3H178.651C175.947 242.302 173.354 243.378 171.442 245.291C169.531 247.204 168.457 249.798 168.457 252.503C168.457 255.207 169.531 257.801 171.442 259.714C173.354 261.627 175.947 262.703 178.651 262.705H236.99C237.221 262.705 237.443 262.797 237.607 262.961C237.77 263.124 237.862 263.346 237.862 263.577Z" fill="#3F3474"/>
<path d="M236.467 246.311H175.424C175.401 246.311 175.379 246.307 175.357 246.298C175.336 246.29 175.317 246.277 175.3 246.261C175.284 246.244 175.271 246.225 175.262 246.204C175.253 246.183 175.249 246.16 175.249 246.137C175.249 246.114 175.253 246.091 175.262 246.07C175.271 246.049 175.284 246.029 175.3 246.013C175.317 245.997 175.336 245.984 175.357 245.975C175.379 245.967 175.401 245.962 175.424 245.962H236.467C236.513 245.963 236.557 245.981 236.589 246.014C236.622 246.047 236.64 246.091 236.64 246.137C236.64 246.183 236.622 246.227 236.589 246.26C236.557 246.292 236.513 246.311 236.467 246.311Z" fill="#CCCCCC"/>
<path d="M236.467 250.497H175.424C175.401 250.497 175.379 250.492 175.357 250.484C175.336 250.475 175.317 250.462 175.3 250.446C175.284 250.43 175.271 250.411 175.262 250.389C175.253 250.368 175.249 250.345 175.249 250.322C175.249 250.299 175.253 250.277 175.262 250.255C175.271 250.234 175.284 250.215 175.3 250.199C175.317 250.182 175.336 250.17 175.357 250.161C175.379 250.152 175.401 250.148 175.424 250.148H236.467C236.513 250.148 236.557 250.167 236.589 250.199C236.622 250.232 236.64 250.276 236.64 250.322C236.64 250.368 236.622 250.413 236.589 250.445C236.557 250.478 236.513 250.496 236.467 250.497Z" fill="#CCCCCC"/>
<path d="M236.467 254.683H175.424C175.401 254.683 175.379 254.679 175.357 254.67C175.336 254.661 175.317 254.648 175.3 254.632C175.284 254.616 175.271 254.597 175.262 254.575C175.253 254.554 175.249 254.531 175.249 254.508C175.249 254.485 175.253 254.463 175.262 254.441C175.271 254.42 175.284 254.401 175.3 254.385C175.317 254.368 175.336 254.356 175.357 254.347C175.379 254.338 175.401 254.334 175.424 254.334H236.467C236.513 254.334 236.557 254.353 236.589 254.385C236.622 254.418 236.64 254.462 236.64 254.508C236.64 254.554 236.622 254.599 236.589 254.631C236.557 254.664 236.513 254.682 236.467 254.683Z" fill="#CCCCCC"/>
<path d="M236.467 258.868H175.424C175.401 258.868 175.379 258.864 175.357 258.855C175.336 258.847 175.317 258.834 175.3 258.818C175.284 258.801 175.271 258.782 175.262 258.761C175.253 258.74 175.249 258.717 175.249 258.694C175.249 258.671 175.253 258.648 175.262 258.627C175.271 258.606 175.284 258.586 175.3 258.57C175.317 258.554 175.336 258.541 175.357 258.532C175.379 258.524 175.401 258.519 175.424 258.52H236.467C236.513 258.52 236.557 258.538 236.589 258.571C236.622 258.604 236.64 258.648 236.64 258.694C236.64 258.74 236.622 258.784 236.589 258.817C236.557 258.85 236.513 258.868 236.467 258.868Z" fill="#CCCCCC"/>
<path d="M225.759 217.191V239.864H168.955C167.433 239.917 165.916 239.663 164.494 239.117C163.072 238.572 161.775 237.745 160.68 236.687C159.585 235.629 158.713 234.362 158.118 232.96C157.523 231.558 157.217 230.051 157.217 228.528C157.217 227.005 157.523 225.498 158.118 224.096C158.713 222.694 159.585 221.427 160.68 220.369C161.775 219.311 163.072 218.484 164.494 217.938C165.916 217.392 167.433 217.138 168.955 217.191H225.759Z" fill="#F2F2F2"/>
<path d="M227.154 239.69C227.154 239.921 227.062 240.143 226.899 240.307C226.735 240.47 226.513 240.562 226.282 240.562H167.943C166.374 240.562 164.82 240.253 163.371 239.653C161.922 239.052 160.605 238.172 159.495 237.063C158.386 235.954 157.506 234.637 156.905 233.187C156.305 231.738 155.996 230.184 155.996 228.615C155.996 227.046 156.305 225.493 156.905 224.043C157.506 222.594 158.386 221.277 159.495 220.168C160.605 219.058 161.922 218.178 163.371 217.578C164.82 216.977 166.374 216.668 167.943 216.668H226.282C226.513 216.668 226.735 216.76 226.899 216.924C227.062 217.087 227.154 217.309 227.154 217.54C227.154 217.772 227.062 217.994 226.899 218.157C226.735 218.321 226.513 218.413 226.282 218.413H167.943C165.238 218.415 162.646 219.491 160.734 221.404C158.823 223.317 157.749 225.911 157.749 228.615C157.749 231.32 158.823 233.913 160.734 235.827C162.646 237.74 165.238 238.816 167.943 238.818H226.282C226.513 238.818 226.735 238.91 226.899 239.074C227.062 239.237 227.154 239.459 227.154 239.69Z" fill="#3F3D56"/>
<path d="M225.759 222.424H164.716C164.693 222.424 164.67 222.42 164.649 222.411C164.628 222.402 164.608 222.39 164.592 222.373C164.576 222.357 164.563 222.338 164.554 222.317C164.545 222.295 164.541 222.273 164.541 222.25C164.541 222.227 164.545 222.204 164.554 222.183C164.563 222.161 164.576 222.142 164.592 222.126C164.608 222.11 164.628 222.097 164.649 222.088C164.67 222.079 164.693 222.075 164.716 222.075H225.759C225.805 222.076 225.849 222.094 225.881 222.127C225.914 222.159 225.932 222.204 225.932 222.25C225.932 222.296 225.914 222.34 225.881 222.373C225.849 222.405 225.805 222.424 225.759 222.424Z" fill="#CCCCCC"/>
<path d="M225.759 226.61H164.716C164.693 226.61 164.67 226.605 164.649 226.597C164.628 226.588 164.608 226.575 164.592 226.559C164.576 226.543 164.563 226.523 164.554 226.502C164.545 226.481 164.541 226.458 164.541 226.435C164.541 226.412 164.545 226.389 164.554 226.368C164.563 226.347 164.576 226.328 164.592 226.311C164.608 226.295 164.628 226.282 164.649 226.274C164.67 226.265 164.693 226.261 164.716 226.261H225.759C225.805 226.261 225.849 226.28 225.881 226.312C225.914 226.345 225.932 226.389 225.932 226.435C225.932 226.481 225.914 226.525 225.881 226.558C225.849 226.591 225.805 226.609 225.759 226.61Z" fill="#CCCCCC"/>
<path d="M225.759 230.796H164.716C164.693 230.796 164.67 230.791 164.649 230.783C164.628 230.774 164.608 230.761 164.592 230.745C164.576 230.729 164.563 230.709 164.554 230.688C164.545 230.667 164.541 230.644 164.541 230.621C164.541 230.598 164.545 230.575 164.554 230.554C164.563 230.533 164.576 230.514 164.592 230.497C164.608 230.481 164.628 230.468 164.649 230.46C164.67 230.451 164.693 230.447 164.716 230.447H225.759C225.805 230.447 225.849 230.466 225.881 230.498C225.914 230.531 225.932 230.575 225.932 230.621C225.932 230.667 225.914 230.711 225.881 230.744C225.849 230.777 225.805 230.795 225.759 230.796Z" fill="#CCCCCC"/>
<path d="M225.759 234.981H164.716C164.693 234.981 164.67 234.977 164.649 234.968C164.628 234.96 164.608 234.947 164.592 234.93C164.576 234.914 164.563 234.895 164.554 234.874C164.545 234.853 164.541 234.83 164.541 234.807C164.541 234.784 164.545 234.761 164.554 234.74C164.563 234.718 164.576 234.699 164.592 234.683C164.608 234.667 164.628 234.654 164.649 234.645C164.67 234.637 164.693 234.632 164.716 234.632H225.759C225.805 234.633 225.849 234.651 225.881 234.684C225.914 234.716 225.932 234.761 225.932 234.807C225.932 234.853 225.914 234.897 225.881 234.93C225.849 234.962 225.805 234.981 225.759 234.981Z" fill="#CCCCCC"/>
<path d="M291.839 344.342V324.573C291.839 323.699 291.492 322.861 290.874 322.243C290.256 321.625 289.418 321.278 288.545 321.278H213.588C212.714 321.278 211.876 321.625 211.258 322.243C210.64 322.861 210.293 323.699 210.293 324.573V344.342H291.839Z" fill="#CCCCCC"/>
<path d="M291.839 351.755H210.293V377.29H291.839V351.755Z" fill="#CCCCCC"/>
<path d="M210.293 384.703V404.472C210.293 405.346 210.64 406.184 211.258 406.802C211.876 407.42 212.714 407.767 213.588 407.767H288.545C289.418 407.767 290.256 407.42 290.874 406.802C291.492 406.184 291.839 405.346 291.839 404.472V384.703H210.293Z" fill="#CCCCCC"/>
<path d="M250.654 336.105C252.019 336.105 253.125 334.998 253.125 333.634C253.125 332.269 252.019 331.163 250.654 331.163C249.29 331.163 248.183 332.269 248.183 333.634C248.183 334.998 249.29 336.105 250.654 336.105Z" fill="white"/>
<path d="M250.654 369.053C252.019 369.053 253.125 367.947 253.125 366.582C253.125 365.217 252.019 364.111 250.654 364.111C249.29 364.111 248.183 365.217 248.183 366.582C248.183 367.947 249.29 369.053 250.654 369.053Z" fill="white"/>
<path d="M250.787 401.303C252.152 401.303 253.258 400.197 253.258 398.832C253.258 397.467 252.152 396.361 250.787 396.361C249.422 396.361 248.316 397.467 248.316 398.832C248.316 400.197 249.422 401.303 250.787 401.303Z" fill="white"/>
<path d="M282.594 298.738V321.411H225.79C224.268 321.464 222.751 321.21 221.329 320.664C219.908 320.118 218.61 319.291 217.515 318.234C216.42 317.176 215.549 315.908 214.954 314.506C214.359 313.104 214.052 311.597 214.052 310.074C214.052 308.551 214.359 307.044 214.954 305.642C215.549 304.241 216.42 302.973 217.515 301.915C218.61 300.857 219.908 300.031 221.329 299.485C222.751 298.939 224.268 298.685 225.79 298.738H282.594Z" fill="#F2F2F2"/>
<path d="M283.989 321.237C283.989 321.468 283.897 321.69 283.734 321.853C283.57 322.017 283.348 322.109 283.117 322.109H224.778C223.208 322.11 221.654 321.802 220.203 321.202C218.753 320.602 217.434 319.722 216.324 318.613C215.214 317.503 214.333 316.186 213.732 314.736C213.131 313.286 212.821 311.731 212.821 310.162C212.821 308.592 213.131 307.038 213.732 305.588C214.333 304.137 215.214 302.82 216.324 301.71C217.434 300.601 218.753 299.721 220.203 299.121C221.654 298.522 223.208 298.214 224.778 298.215H283.117C283.349 298.215 283.57 298.307 283.734 298.47C283.897 298.634 283.989 298.856 283.989 299.087C283.989 299.318 283.897 299.54 283.734 299.703C283.57 299.867 283.349 299.959 283.117 299.959H224.778C222.074 299.961 219.481 301.037 217.57 302.95C215.658 304.864 214.584 307.457 214.584 310.162C214.584 312.866 215.658 315.46 217.57 317.373C219.481 319.286 222.074 320.362 224.778 320.365H283.117C283.348 320.365 283.57 320.457 283.734 320.62C283.897 320.784 283.989 321.005 283.989 321.237Z" fill="#3F3D56"/>
<path d="M282.594 303.97H221.552C221.529 303.97 221.506 303.966 221.484 303.957C221.463 303.948 221.444 303.935 221.427 303.919C221.411 303.903 221.398 303.884 221.389 303.862C221.381 303.841 221.376 303.818 221.376 303.795C221.376 303.772 221.381 303.75 221.389 303.728C221.398 303.707 221.411 303.688 221.427 303.672C221.444 303.656 221.463 303.643 221.484 303.634C221.506 303.625 221.529 303.621 221.552 303.621H282.594C282.64 303.621 282.684 303.64 282.717 303.673C282.749 303.705 282.767 303.749 282.767 303.795C282.767 303.842 282.749 303.886 282.717 303.918C282.684 303.951 282.64 303.97 282.594 303.97Z" fill="#CCCCCC"/>
<path d="M282.594 308.156H221.552C221.529 308.156 221.506 308.152 221.484 308.143C221.463 308.134 221.444 308.121 221.427 308.105C221.411 308.089 221.398 308.07 221.389 308.049C221.381 308.027 221.376 308.005 221.376 307.982C221.376 307.959 221.381 307.936 221.389 307.915C221.398 307.893 221.411 307.874 221.427 307.858C221.444 307.842 221.463 307.829 221.484 307.82C221.506 307.811 221.529 307.807 221.552 307.807H282.594C282.64 307.807 282.684 307.826 282.717 307.859C282.749 307.891 282.767 307.935 282.767 307.982C282.767 308.028 282.749 308.072 282.717 308.104C282.684 308.137 282.64 308.156 282.594 308.156Z" fill="#CCCCCC"/>
<path d="M282.594 312.341H221.552C221.529 312.342 221.506 312.337 221.484 312.329C221.463 312.32 221.444 312.307 221.427 312.291C221.411 312.275 221.398 312.255 221.389 312.234C221.381 312.213 221.376 312.19 221.376 312.167C221.376 312.144 221.381 312.121 221.389 312.1C221.398 312.079 221.411 312.06 221.427 312.043C221.444 312.027 221.463 312.014 221.484 312.006C221.506 311.997 221.529 311.993 221.552 311.993H282.594C282.64 311.993 282.684 312.011 282.717 312.044C282.749 312.077 282.767 312.121 282.767 312.167C282.767 312.213 282.749 312.257 282.717 312.29C282.684 312.323 282.64 312.341 282.594 312.341Z" fill="#CCCCCC"/>
<path d="M282.594 316.528H221.552C221.529 316.528 221.506 316.523 221.484 316.515C221.463 316.506 221.444 316.493 221.427 316.477C221.411 316.461 221.398 316.441 221.389 316.42C221.381 316.399 221.376 316.376 221.376 316.353C221.376 316.33 221.381 316.307 221.389 316.286C221.398 316.265 221.411 316.246 221.427 316.229C221.444 316.213 221.463 316.2 221.484 316.192C221.506 316.183 221.529 316.179 221.552 316.179H282.594C282.64 316.179 282.684 316.198 282.717 316.23C282.749 316.263 282.767 316.307 282.767 316.353C282.767 316.399 282.749 316.443 282.717 316.476C282.684 316.509 282.64 316.527 282.594 316.528Z" fill="#CCCCCC"/>
<path d="M206.016 150.755V6.19541C206.018 4.55286 206.671 2.97812 207.832 1.81666C208.994 0.655203 210.569 0.00186835 212.211 0H326.482C328.124 0.00187922 329.699 0.655218 330.86 1.81667C332.022 2.97813 332.675 4.55286 332.677 6.19541V150.755C332.675 152.397 332.022 153.972 330.86 155.133C329.699 156.295 328.124 156.948 326.482 156.95H212.211C210.569 156.948 208.994 156.295 207.832 155.133C206.671 153.972 206.018 152.397 206.016 150.755ZM212.211 1.37676C210.934 1.37819 209.709 1.88633 208.805 2.78969C207.902 3.69305 207.394 4.91786 207.392 6.19541V150.755C207.394 152.032 207.902 153.257 208.805 154.16C209.709 155.064 210.934 155.572 212.211 155.573H326.482C327.759 155.572 328.984 155.064 329.887 154.16C330.791 153.257 331.299 152.032 331.3 150.755V6.19541C331.299 4.91786 330.791 3.69305 329.887 2.78969C328.984 1.88633 327.759 1.37819 326.482 1.37676H212.211Z" fill="#E6E6E6"/>
<path d="M275.754 66.3882V36.7056C275.755 35.8843 276.082 35.097 276.663 34.5162C277.243 33.9355 278.031 33.6088 278.852 33.6079H304.005C304.827 33.6088 305.614 33.9355 306.195 34.5162C306.776 35.097 307.102 35.8843 307.103 36.7056V66.3882C307.102 67.2095 306.776 67.9968 306.195 68.5776C305.614 69.1583 304.827 69.485 304.005 69.4859H278.852C278.031 69.485 277.243 69.1583 276.663 68.5776C276.082 67.9968 275.755 67.2095 275.754 66.3882Z" fill="#3F3474"/>
<path d="M226.88 80.1557V50.4732C226.881 49.6519 227.207 48.8645 227.788 48.2838C228.369 47.703 229.156 47.3764 229.977 47.3755H255.131C255.952 47.3764 256.739 47.703 257.32 48.2838C257.901 48.8645 258.227 49.6519 258.228 50.4732V80.1558C258.227 80.977 257.901 81.7644 257.32 82.3452C256.739 82.9259 255.952 83.2525 255.131 83.2534H229.977C229.156 83.2525 228.369 82.9259 227.788 82.3451C227.207 81.7644 226.881 80.977 226.88 80.1557Z" fill="#CCCCCC"/>
<path d="M266.117 122.147V92.4644C266.118 91.6431 266.445 90.8557 267.025 90.275C267.606 89.6943 268.393 89.3676 269.215 89.3667H294.368C295.189 89.3676 295.977 89.6943 296.557 90.275C297.138 90.8557 297.465 91.6431 297.466 92.4644V122.147C297.465 122.968 297.138 123.756 296.557 124.336C295.977 124.917 295.189 125.244 294.368 125.245H269.215C268.393 125.244 267.606 124.917 267.025 124.336C266.445 123.756 266.118 122.968 266.117 122.147Z" fill="#FF6584"/>
<path d="M416.432 257.853H390.551C390.306 257.853 390.063 257.91 389.843 258.018L383.311 261.288C383.096 261.38 382.913 261.532 382.784 261.727C382.655 261.922 382.586 262.15 382.586 262.384C382.586 262.617 382.655 262.846 382.784 263.04C382.913 263.235 383.096 263.388 383.311 263.479L389.843 266.749C390.063 266.858 390.306 266.914 390.551 266.914H416.432C416.789 266.935 417.139 266.814 417.407 266.578C417.676 266.342 417.84 266.01 417.865 265.654V259.114C417.84 258.757 417.676 258.425 417.407 258.189C417.139 257.953 416.789 257.833 416.432 257.853Z" fill="#3F3D56"/>
<path d="M417.865 259.114V265.654C417.84 266.01 417.676 266.342 417.407 266.578C417.139 266.814 416.789 266.935 416.432 266.914H411.276V257.853H416.432C416.789 257.833 417.139 257.953 417.407 258.189C417.676 258.425 417.84 258.757 417.865 259.114Z" fill="#3F3474"/>
<path d="M416.237 208.925C417.409 208.419 418.675 208.167 419.952 208.184C421.229 208.202 422.487 208.489 423.645 209.027C424.803 209.564 425.835 210.341 426.672 211.305C427.509 212.269 428.133 213.399 428.503 214.621C428.618 215.008 428.706 215.403 428.766 215.803L464.958 233.75L473.334 228.199L483.755 240.197L470.966 250.583C469.428 251.823 467.532 252.533 465.558 252.609C463.584 252.685 461.639 252.123 460.01 251.006L423.29 225.613C423.017 225.729 422.738 225.83 422.454 225.918C421.232 226.287 419.945 226.395 418.679 226.232C417.412 226.07 416.194 225.642 415.105 224.976C414.015 224.311 413.079 223.422 412.356 222.369C411.634 221.316 411.142 220.122 410.914 218.866C410.846 218.502 410.801 218.133 410.78 217.763C410.678 215.909 411.146 214.068 412.122 212.488C413.098 210.908 414.534 209.665 416.237 208.925Z" fill="#FFB8B8"/>
<path d="M491.618 319.424H452.072C452.072 320.561 411.315 321.483 411.315 321.483C410.676 321.965 410.093 322.517 409.578 323.13C408.029 324.977 407.183 327.311 407.188 329.72V331.367C407.19 334.098 408.275 336.716 410.205 338.647C412.136 340.578 414.754 341.663 417.485 341.664H491.618C494.348 341.661 496.965 340.576 498.896 338.645C500.826 336.715 501.912 334.097 501.914 331.367V329.72C501.91 326.991 500.824 324.374 498.894 322.444C496.964 320.514 494.347 319.428 491.618 319.424Z" fill="#3F3D56"/>
<path d="M448.601 410.445H459.309V341.255H448.601V410.445Z" fill="#3F3D56"/>
<path d="M418.124 410.069C418.124 411.226 434.351 410.517 454.367 410.517C474.383 410.517 490.61 411.226 490.61 410.069C490.61 408.912 474.383 399.737 454.367 399.737C434.351 399.737 418.124 408.912 418.124 410.069Z" fill="#3F3D56"/>
<path d="M427.791 401.96L417.693 401.959L412.888 375.768L427.792 375.768L427.791 401.96Z" fill="#FFB8B8"/>
<path d="M430.366 411.748L397.805 411.747V411.335C397.805 409.671 398.133 408.023 398.77 406.485C399.407 404.948 400.34 403.55 401.517 402.374C402.694 401.197 404.091 400.263 405.629 399.626C407.167 398.989 408.815 398.662 410.479 398.662H410.48L430.367 398.662L430.366 411.748Z" fill="#2F2E41"/>
<path d="M412.687 385.718L392.555 340.573C390.874 336.768 390.688 332.469 392.035 328.533C393.381 324.597 396.16 321.313 399.819 319.334L443.486 295.918L463.412 294.223L481.793 292.553L481.925 292.777C482.095 293.064 486.047 299.89 483.376 307.374C481.349 313.052 476.079 317.487 467.71 320.555C448.176 327.718 425.611 333.839 416.816 336.138C416.428 336.237 416.065 336.418 415.751 336.668C415.437 336.918 415.179 337.231 414.995 337.588C414.81 337.94 414.701 338.327 414.673 338.723C414.645 339.12 414.7 339.518 414.833 339.893L433.537 381.914C433.732 382.447 433.802 383.017 433.742 383.582C433.682 384.146 433.493 384.689 433.19 385.169C432.887 385.649 432.478 386.053 431.994 386.349C431.51 386.646 430.964 386.828 430.399 386.88L416.424 387.898C416.305 387.909 416.187 387.914 416.069 387.914C415.354 387.914 414.653 387.707 414.053 387.317C413.453 386.927 412.978 386.371 412.687 385.718Z" fill="#2F2E41"/>
<path d="M432.733 401.96L422.635 401.959L417.831 375.768L432.735 375.768L432.733 401.96Z" fill="#FFB8B8"/>
<path d="M435.309 411.748L402.747 411.747V411.335C402.747 409.671 403.075 408.023 403.712 406.485C404.349 404.948 405.283 403.55 406.459 402.374C407.636 401.197 409.033 400.263 410.571 399.626C412.109 398.989 413.757 398.662 415.421 398.662H415.422L435.309 398.662L435.309 411.748Z" fill="#2F2E41"/>
<path d="M418.453 388.189L398.321 343.044C396.64 339.239 396.454 334.94 397.8 331.004C399.147 327.069 401.926 323.784 405.585 321.805L449.252 298.39L469.178 296.695L487.559 295.024L487.691 295.248C487.861 295.535 491.813 302.361 489.141 309.846C487.115 315.523 481.844 319.958 473.476 323.026C453.942 330.189 431.377 336.31 422.582 338.609C422.194 338.709 421.83 338.889 421.516 339.139C421.203 339.389 420.945 339.702 420.761 340.059C420.576 340.411 420.467 340.798 420.439 341.195C420.411 341.591 420.466 341.99 420.599 342.364L439.303 384.385C439.498 384.918 439.568 385.489 439.508 386.053C439.448 386.617 439.259 387.16 438.956 387.64C438.653 388.12 438.244 388.524 437.76 388.821C437.276 389.117 436.73 389.299 436.165 389.351L422.19 390.369C422.071 390.38 421.953 390.386 421.835 390.386C421.119 390.385 420.419 390.178 419.819 389.788C419.219 389.398 418.744 388.843 418.453 388.189Z" fill="#2F2E41"/>
<path d="M408.419 250.276C399.959 239.024 393.271 226.542 388.588 213.266C388.316 212.472 388.336 211.607 388.642 210.826C388.949 210.045 389.522 209.398 390.261 209L419.21 193.488C419.679 193.235 420.199 193.093 420.73 193.071C421.262 193.05 421.792 193.15 422.279 193.364C422.776 193.579 423.216 193.906 423.567 194.317C423.919 194.729 424.172 195.215 424.307 195.739C427.676 208.533 434.01 220.353 442.795 230.245C443.157 230.647 443.422 231.127 443.57 231.648C443.718 232.168 443.746 232.716 443.65 233.248C443.559 233.773 443.349 234.269 443.036 234.7C442.723 235.131 442.317 235.484 441.847 235.734L412.898 251.246C412.157 251.641 411.301 251.76 410.48 251.583C409.66 251.405 408.93 250.942 408.419 250.276Z" fill="#CCCCCC"/>
<path d="M410.394 248.792C410.55 248.986 410.768 249.12 411.012 249.17C411.256 249.221 411.51 249.184 411.73 249.068L440.679 233.556C440.82 233.482 440.942 233.378 441.035 233.249C441.128 233.121 441.191 232.973 441.217 232.817C441.247 232.652 441.239 232.482 441.192 232.321C441.146 232.16 441.063 232.011 440.949 231.888C431.905 221.705 425.385 209.536 421.916 196.366C421.876 196.203 421.799 196.052 421.69 195.924C421.582 195.796 421.446 195.695 421.292 195.629C421.147 195.564 420.989 195.533 420.83 195.54C420.671 195.546 420.516 195.59 420.377 195.666L391.428 211.178C391.209 211.296 391.038 211.488 390.945 211.719C390.852 211.95 390.842 212.207 390.918 212.444C395.518 225.483 402.086 237.74 410.394 248.792Z" fill="white"/>
<path d="M504.592 246.139L481.92 254.754L476.385 239.378C475.65 237.337 475.66 235.101 476.414 233.066C477.168 231.031 478.617 229.329 480.505 228.259C482.415 227.176 484.649 226.813 486.803 227.233C488.957 227.654 490.891 228.831 492.253 230.552L504.592 246.139Z" fill="#3F3474"/>
<path d="M446.925 307.06C446.448 306.722 446.048 306.287 445.752 305.783C445.456 305.279 445.271 304.718 445.209 304.136C442.305 277.029 444.328 255.815 451.391 239.283C452.636 236.431 454.51 233.899 456.873 231.876C459.237 229.853 462.028 228.392 465.038 227.603L483.365 226.678L483.459 226.724C487.595 228.749 490.968 232.054 493.078 236.147C495.187 240.24 495.922 244.905 495.172 249.448C489.277 264.986 484.342 281.163 488.106 294.213C488.264 294.759 488.31 295.33 488.241 295.894C488.173 296.458 487.991 297.002 487.707 297.494C487.432 297.97 487.062 298.384 486.621 298.711C486.179 299.038 485.676 299.271 485.141 299.396L450.234 307.7C449.668 307.834 449.081 307.847 448.51 307.736C447.94 307.626 447.399 307.395 446.925 307.06Z" fill="#3F3474"/>
<path d="M477.248 219.832C488.421 219.832 497.479 210.775 497.479 199.602C497.479 188.428 488.421 179.371 477.248 179.371C466.075 179.371 457.017 188.428 457.017 199.602C457.017 210.775 466.075 219.832 477.248 219.832Z" fill="#FFB8B8"/>
<path d="M421.111 215.625L405.344 222.585C404.744 222.849 404.064 222.864 403.454 222.627C402.843 222.391 402.351 221.921 402.085 221.322L401.695 220.439C401.432 219.839 401.416 219.159 401.653 218.548C401.89 217.938 402.359 217.445 402.958 217.18L418.725 210.22C419.325 209.956 420.005 209.941 420.615 210.178C421.226 210.415 421.718 210.884 421.984 211.483L422.374 212.366C422.638 212.966 422.653 213.646 422.416 214.257C422.179 214.868 421.71 215.36 421.111 215.625Z" fill="#CCCCCC"/>
<path d="M426.877 226.333L411.11 233.293C410.51 233.557 409.83 233.572 409.219 233.335C408.609 233.099 408.116 232.629 407.851 232.03L407.461 231.147C407.197 230.547 407.182 229.867 407.419 229.256C407.656 228.646 408.125 228.153 408.724 227.888L424.491 220.928C425.091 220.664 425.77 220.649 426.381 220.886C426.992 221.123 427.484 221.592 427.75 222.191L428.14 223.074C428.403 223.674 428.419 224.354 428.182 224.965C427.945 225.576 427.476 226.068 426.877 226.333Z" fill="#CCCCCC"/>
<path d="M439.036 268.158L403.885 240.427C403.605 240.526 403.32 240.61 403.032 240.679C401.791 240.969 400.503 240.995 399.252 240.755C398.001 240.515 396.814 240.015 395.768 239.286C394.716 238.557 393.832 237.611 393.175 236.513C392.518 235.414 392.103 234.188 391.958 232.916C391.722 230.883 392.18 228.829 393.258 227.089C394.336 225.349 395.97 224.024 397.896 223.33C399.097 222.899 400.377 222.726 401.65 222.824C402.923 222.922 404.161 223.287 405.283 223.897C406.404 224.506 407.385 225.346 408.16 226.361C408.935 227.375 409.486 228.542 409.779 229.785C409.869 230.179 409.932 230.579 409.967 230.981L444.959 251.168L453.667 246.155L463.313 258.784L449.793 268.42C448.21 269.539 446.309 270.118 444.371 270.071C442.433 270.023 440.562 269.353 439.036 268.158Z" fill="#FFB8B8"/>
<path d="M467.603 262.717L447.547 249.078L456.972 235.729C458.224 233.956 460.062 232.683 462.161 232.134C464.26 231.586 466.486 231.797 468.445 232.731C470.427 233.675 472.005 235.297 472.896 237.303C473.786 239.31 473.93 241.568 473.3 243.671L467.603 262.717Z" fill="#3F3474"/>
<path d="M469.831 196.588C464.631 200.147 457.804 203.805 452.493 200.016C449.006 197.527 447.907 192.919 449.321 188.875C451.864 181.603 458.851 178.402 465.532 175.948C474.217 172.757 483.675 170.219 492.641 172.504C501.607 174.789 509.531 183.47 507.913 192.58C506.611 199.906 499.7 206.002 500.682 213.378C501.669 220.801 510.017 224.709 517.387 226.035C524.758 227.362 533.005 227.788 538.302 233.082C545.059 239.836 543.371 251.907 537.013 259.037C530.655 266.167 521.061 269.399 511.764 271.596C499.446 274.507 486.123 276.037 474.424 271.206C462.725 266.375 453.621 253.369 457.01 241.174C458.441 236.023 461.813 231.669 465.073 227.431C468.332 223.193 471.632 218.761 472.875 213.561C473.911 209.228 473.144 204.196 470.271 200.946C469.748 200.377 469.419 199.657 469.331 198.89C469.243 198.122 469.401 197.346 469.781 196.674L469.831 196.588Z" fill="#2F2E41"/>
<path d="M89.8427 294.883C84.6296 296.716 79.0324 297.175 73.5904 296.216C68.1484 295.258 63.045 292.914 58.7718 289.41C47.8891 280.276 44.4771 265.227 41.7008 251.293C38.9636 237.555 36.2264 223.817 33.4891 210.079L50.6811 221.917C63.0445 230.43 75.6865 239.216 84.2469 251.546C92.8073 263.877 96.5439 280.709 89.6659 294.052" fill="#6FCF97"/>
<path d="M88.3731 344.782C90.1132 332.107 91.9024 319.27 90.6819 306.459C89.5979 295.082 86.1269 283.97 79.0604 274.859C75.3095 270.032 70.7454 265.896 65.5733 262.637C64.2246 261.786 62.9832 263.923 64.3261 264.771C73.2754 270.427 80.1973 278.779 84.0939 288.622C88.3977 299.569 89.0888 311.501 88.3472 323.13C87.8987 330.162 86.9481 337.148 85.9903 344.125C85.9147 344.44 85.9619 344.773 86.1221 345.055C86.2822 345.337 86.5436 345.548 86.8532 345.645C87.1691 345.73 87.5059 345.687 87.7904 345.525C88.0749 345.364 88.2843 345.097 88.3731 344.782H88.3731Z" fill="#27AE60"/>
<path d="M71.6132 322.354C69.3774 325.752 66.3041 328.517 62.6895 330.382C59.0749 332.248 55.0407 333.151 50.9757 333.005C40.5286 332.509 31.819 325.218 23.9788 318.295L0.78894 297.821L16.1368 297.086C27.174 296.558 38.496 296.065 49.0086 299.469C59.5212 302.872 69.2165 311.064 71.1388 321.945" fill="#6FCF97"/>
<path d="M93.2907 352.068C84.9155 337.248 75.2011 320.778 57.843 315.514C53.0166 314.056 47.9558 313.533 42.9331 313.975C41.3502 314.111 41.7455 316.552 43.3256 316.415C51.7446 315.716 60.1474 317.939 67.1193 322.71C73.8283 327.277 79.0519 333.626 83.4732 340.358C86.1813 344.482 88.6071 348.781 91.0334 353.074C91.8087 354.446 94.0751 353.456 93.2907 352.068Z" fill="#27AE60"/>
<path d="M106.71 367.666C106.428 364.396 105.254 361.267 103.316 358.618C101.378 355.969 98.7506 353.903 95.7196 352.644V344.077H81.3503V352.914C78.4685 354.235 75.9884 356.296 74.1628 358.887C72.3373 361.479 71.2315 364.508 70.9584 367.666L67.5795 406.943H110.089L106.71 367.666Z" fill="#3F3474"/>
</g>
<defs>
<clipPath id="clip0">
<rect width="570" height="411.748" fill="white"/>
</clipPath>
</defs>
</svg>
