<svg width="268" height="75" viewBox="0 0 268 75" fill="none" xmlns="http://www.w3.org/2000/svg">
<path d="M217.84 44.6157C216.036 43.3734 213.632 43.1238 212.227 41.2215C211.553 41.3154 211.228 40.8765 210.941 40.3797C211.004 40.0251 211.211 39.669 210.746 39.3807C210.518 39.2397 210.411 38.9376 210.413 38.6379C210.667 38.3007 210.443 37.7979 210.809 37.4979L211.304 37.4379C211.715 37.2537 211.991 37.5438 212.299 37.7217C212.691 38.0862 213.314 38.0655 213.649 38.5266C213.825 38.9211 213.998 39.3648 214.481 39.4218C215.25 39.5118 215.649 40.0098 215.978 40.6062C216.001 40.4907 215.888 40.4562 215.858 40.3752C215.597 39.9363 215.315 39.5715 214.755 39.4452C214.348 39.3528 213.828 39.123 213.996 38.5665C214.148 38.0646 214.628 38.1687 215.033 38.2899C215.209 38.3427 215.413 38.2701 215.569 38.4099C217.235 38.8359 218.489 39.9165 219.729 41.0214C219.895 41.0214 219.949 41.1189 219.946 41.2674C219.767 41.8512 219.311 42.2781 219.065 42.8244C218.608 43.3899 218.652 44.2968 217.84 44.6157Z" fill="#FACBB7"/>
<path d="M213.503 38.5995C213.153 38.1972 212.458 38.4045 212.19 37.857C211.984 37.5498 211.694 37.2648 211.923 36.843L212.027 36.7482C212.278 36.7242 212.531 36.6624 212.775 36.783L214.813 37.848C214.548 38.4 213.889 38.2614 213.503 38.5995Z" fill="#F9C8B6"/>
<path d="M213.503 38.5995C213.743 38.0091 214.393 38.1285 214.813 37.848L215.567 38.4111C215.087 38.535 214.309 38.0886 214.17 38.679C214.056 39.159 214.857 39.2385 215.3 39.4056C215.807 39.597 215.903 40.0812 216.131 40.4757C216.264 40.6992 216.259 40.854 215.942 40.8522C215.482 40.3209 215.198 39.6222 214.283 39.6087C213.791 39.6021 213.568 39.0924 213.503 38.5995Z" fill="#F7B6A7"/>
<path d="M215.942 40.8522C216.092 40.7706 216.127 40.6308 216.131 40.4757C216.32 40.6395 216.559 40.8882 216.397 41.0805C216.181 41.3382 216.059 41.0139 215.942 40.8522Z" fill="#F9C1AF"/>
<path d="M235.134 13.1278C235.134 13.1278 235.328 6.16598 240.768 5.74508C240.768 5.74508 240.803 2.26508 242.16 1.37348C243.188 0.699081 244.654 0.693381 245.755 0.758181C246.856 0.822981 250.257 0.72818 250.387 4.71038C250.516 8.69258 250.359 12.4921 250.223 13.9696C250.103 15.2791 248.378 20.1868 248.151 20.5096C247.924 20.8324 244.881 18.5344 244.783 17.4334C244.686 16.3324 244.847 15.7834 244.587 15.3289C244.328 14.8744 243.65 14.2603 243.65 13.1917L235.134 13.1278Z" fill="#413277"/>
<path d="M235.134 13.1277C235.134 13.1277 233.614 22.1835 236.278 24.63C238.941 27.0765 241.997 30.4371 241.997 30.4371L248.067 25.9398C248.067 25.9398 247.423 24.3324 247.599 22.7898C247.774 21.2472 248.067 20.5443 248.067 20.5443L246.801 19.8153C246.798 19.6437 247.887 18.1953 247.978 17.67C248.068 17.1564 247.686 16.23 246.736 16.4292C245.858 16.6131 245.113 18.4368 244.945 17.895C244.777 17.3532 244.893 15.8103 244.619 15.3933C244.345 14.9763 243.665 14.2806 243.65 13.1952L235.134 13.1277Z" fill="#FACCB8"/>
<path d="M234.455 20.1068H239.107C239.107 20.1068 237.847 19.0229 236.446 19.0229C235.007 19.0229 234.455 20.1068 234.455 20.1068Z" fill="url(#paint0_linear)"/>
<path d="M242.473 29.6208C242.473 29.6208 242.784 27.999 244.078 27.4308C245.391 26.8551 247.08 26.1813 247.877 25.365C247.877 25.365 248.2 27.1389 249.367 28.0509C250.535 28.9629 240.102 32.1732 240.102 32.1732L238.132 27.5415L240.45 27.2451C240.45 27.2451 242.29 27.5778 242.473 29.6208Z" fill="#FFFDFE"/>
<path d="M236.652 29.6139C236.652 29.6139 232.888 31.7013 231.477 35.7C230.065 39.6987 228.608 43.32 227.714 44.4C227.714 44.4 222.541 43.6473 219.954 41.1546C219.954 41.1546 216.191 47.1279 216.05 49.6206C216.05 49.6206 224.769 62.1051 234.07 57.1605V59.28C234.07 59.28 260.53 59.22 263.738 46.212C263.738 46.212 260.765 34.2657 258.587 32.1744C256.409 30.0831 252.7 29.2824 251.288 28.77C249.875 28.2576 249.013 27.768 248.816 27.489C248.816 27.489 246.304 30.8934 243.334 30.6861C240.4 30.4791 239.778 28.8219 239.605 28.4766C239.433 28.1313 236.652 29.6139 236.652 29.6139Z" fill="url(#paint1_linear)"/>
<path d="M236.235 29.8719C236.043 33.8358 232.027 43.0338 228.339 43.3848L228.48 43.1466C229.334 41.484 230.418 38.6973 231.477 35.6991C232.566 32.613 235.057 30.6651 236.137 29.9373L236.235 29.8719Z" fill="url(#paint2_linear)"/>
<path d="M251.496 28.8429C253.038 29.3586 256.509 30.1791 258.587 32.1744C259.83 33.3681 261.332 37.7721 262.392 41.3331L262.407 41.3838C260.829 41.1243 258.383 38.2815 257.102 36.8088C255.821 35.3361 253.804 34.1832 252.362 32.5824C250.92 30.9816 251.492 28.8558 251.492 28.8558L251.496 28.8429Z" fill="url(#paint3_linear)"/>
<path d="M254.505 55.4322L254.161 36.6282L256.555 54.4365C256.555 54.4365 255.513 55.17 254.505 55.4322Z" fill="#E63548"/>
<path d="M234.07 57.1608C232.153 58.1808 230.26 58.4589 228.463 58.2588L228.459 58.2495C232.58 51.0648 234.069 40.5267 234.069 40.5267V57.1608H234.07Z" fill="#E63548"/>
<path opacity="0.25" d="M241.133 24.2718C241.133 24.2718 243.445 24.1323 244.585 23.0238C244.585 23.0238 244.744 23.8788 244.079 24.5124C243.414 25.146 241.223 27.2838 241.384 30.2373C241.384 30.2373 239.821 29.5731 239.605 28.4769C239.389 27.3807 241.133 24.2718 241.133 24.2718Z" fill="#212120"/>
<path opacity="0.7" d="M239.808 27.1578C238.458 27.0849 241.133 24.2718 241.133 24.2718C241.133 24.2718 243.445 24.1323 244.586 23.0238C244.586 23.0238 244.744 23.8788 244.079 24.5124C243.602 24.9669 242.339 26.1951 241.724 27.9435C241.724 27.9435 241.196 27.2331 239.808 27.1578Z" fill="#F49D8B"/>
<path d="M240.779 5.43785H243.286C243.226 3.66485 243.67 2.31575 243.889 1.76615C243.902 1.73407 243.907 1.69935 243.903 1.66499C243.9 1.63062 243.888 1.59763 243.869 1.56885C243.849 1.54008 243.824 1.51638 243.793 1.49979C243.763 1.48321 243.729 1.47424 243.695 1.47365C243.224 1.46405 242.01 1.48715 242.01 1.48715C242.01 1.48715 241.811 1.66715 241.718 1.80785C241.485 2.16005 240.913 3.00425 240.779 5.43785Z" fill="#7C61A7"/>
<path d="M243.974 5.46929C243.974 5.46929 244.22 1.83929 244.707 1.55039C244.707 1.55039 246.745 1.43639 247.792 3.32699C248.101 3.88289 248.24 4.51649 248.24 5.15219V7.16429C248.24 7.16429 246.356 5.66429 243.974 5.46929Z" fill="#7C61A7"/>
<path d="M236.652 29.6138C236.652 29.6138 239.433 28.1316 239.605 28.4769C239.778 28.8222 240.4 30.4793 243.334 30.6863C246.304 30.8936 248.816 27.4893 248.816 27.4893C249.013 27.7683 249.513 28.0917 250.88 28.716L250.862 28.7361C249.043 30.7679 246.716 33.3707 242.833 33.3662C239.141 33.3623 236.663 29.6297 236.663 29.6297L236.652 29.6138Z" fill="url(#paint4_linear)"/>
<path d="M241.133 24.2718C241.133 24.2718 239.38 24.0132 238.49 23.3238C237.599 22.6344 237.317 22.347 236.78 22.347C236.259 22.347 235.822 23.0433 235.58 23.3091C235.54 23.3529 235.51 23.4046 235.492 23.4609C235.474 23.5171 235.468 23.5765 235.474 23.6352C235.696 25.6767 237.782 40.59 241.133 24.2718Z" fill="url(#paint5_linear)"/>
<path d="M249.344 57.21C250.259 55.6149 250.814 53.3025 250.707 49.9713C250.519 44.1489 248.773 39.3417 243.678 39.3417C238.777 39.3417 236.667 43.677 236.667 50.0517C236.667 54.2451 237.711 57.264 239.307 58.971C242.119 58.7001 245.743 58.1847 249.344 57.21Z" fill="url(#paint6_linear)"/>
<path d="M69.582 53.804H73.38V51.878H67.242V62.822H68.394C70.518 62.822 72.282 62.75 74.298 62.372L74.118 60.446C72.534 60.734 71.13 60.824 69.582 60.86V53.804ZM78.744 49.952V56.342H77.25V50.276H75.036V65.774H77.25V58.25H78.744V66.548H80.994V49.952H78.744ZM97.7866 55.856C94.0246 55.334 92.1166 53.174 92.1166 51.248V50.456H89.5786V51.248C89.5786 53.192 87.6886 55.334 83.9086 55.856L84.8086 57.764C87.7066 57.332 89.7946 55.982 90.8566 54.2C91.9186 55.982 93.9886 57.332 96.8866 57.764L97.7866 55.856ZM98.3266 58.988H83.3506V60.914H89.5966V66.566H91.9726V60.914H98.3266V58.988ZM109.647 51.428H105.957V49.88H103.563V51.428H99.8912V53.3H109.647V51.428ZM102.969 56.864C102.969 56.036 103.689 55.622 104.769 55.622C105.831 55.622 106.569 56.036 106.569 56.864C106.569 57.71 105.831 58.124 104.769 58.124C103.689 58.124 102.969 57.71 102.969 56.864ZM108.837 56.864C108.837 55.064 107.163 53.822 104.769 53.822C102.393 53.822 100.701 55.064 100.701 56.864C100.701 58.682 102.393 59.924 104.769 59.924C107.163 59.924 108.837 58.682 108.837 56.864ZM101.889 62.948H110.565V66.566H112.941V61.04H101.889V62.948ZM115.137 54.236H112.941V49.988H110.565V60.356H112.941V56.198H115.137V54.236ZM129.536 60.662C130.094 57.314 130.094 55.028 130.094 52.994V51.392H117.908V53.282H127.718C127.718 55.19 127.7 57.422 127.16 60.428L129.536 60.662ZM126.026 62.642V57.404H123.704V62.642H121.94V57.404H119.6V62.642H116.45V64.55H131.462V62.642H126.026Z" fill="#EC665C"/>
<rect y="56" width="56" height="4" rx="2" fill="#EC665C"/>
<rect x="144" y="56" width="56" height="4" rx="2" fill="#EC665C"/>
<path d="M1.88965 20.584H7.61719C10.0977 20.584 12.0312 21.502 13.418 23.3379C14.8145 25.1738 15.5127 27.8105 15.5127 31.248C15.5127 34.6855 14.79 37.3369 13.3447 39.2021C11.9092 41.0674 9.83887 42 7.13379 42H1.88965V20.584ZM5.87402 24.0264V38.5137H7.16309C8.6084 38.5137 9.67773 37.9082 10.3711 36.6973C11.0742 35.4863 11.4258 33.6553 11.4258 31.2041C11.4258 26.4189 10.1074 24.0264 7.4707 24.0264H5.87402ZM35.3332 42H31.3342L30.1037 36.5947H24.5227L23.2922 42H19.3078L24.6105 20.4961H30.0158L35.3332 42ZM29.3566 33.0645L28.2141 28.084C28.1945 28.0059 28.048 27.293 27.7746 25.9453C27.5109 24.5879 27.3596 23.7285 27.3205 23.3672C27.1838 24.2656 27.0275 25.1689 26.8518 26.0771C26.676 26.9854 26.1633 29.3145 25.3137 33.0645H29.3566ZM49.4262 24.0264H43.7572V29.124H49.016V32.5811H43.7572V38.5137H49.4262V42H39.7729V20.584H49.4262V24.0264ZM58.6119 38.8213C59.3639 38.8213 59.9352 38.6162 60.3258 38.2061C60.7164 37.7959 60.9117 37.2295 60.9117 36.5068C60.9117 35.7842 60.6822 35.125 60.2232 34.5293C59.774 33.9336 59.0611 33.3037 58.0846 32.6396C57.1178 31.9756 56.3756 31.3408 55.858 30.7354C55.3893 30.1494 55.023 29.4951 54.7594 28.7725C54.5055 28.04 54.3785 27.2002 54.3785 26.2529C54.3785 24.417 54.8863 22.9619 55.902 21.8877C56.9273 20.8135 58.2799 20.2764 59.9596 20.2764C61.649 20.2764 63.2457 20.7354 64.7496 21.6533L63.4313 24.8467C62.2105 24.1436 61.1705 23.792 60.3111 23.792C59.6764 23.792 59.1832 24.002 58.8316 24.4219C58.4801 24.8418 58.3043 25.418 58.3043 26.1504C58.3043 26.873 58.5094 27.5078 58.9195 28.0547C59.3395 28.5918 60.067 29.2021 61.1021 29.8857C62.5182 30.833 63.4898 31.79 64.0172 32.7568C64.5738 33.7432 64.8521 34.8564 64.8521 36.0967C64.8521 38.0986 64.3443 39.6318 63.3287 40.6963C62.3229 41.7607 60.8775 42.293 58.9928 42.293C57.108 42.293 55.5113 41.9268 54.2027 41.1943V37.2539C55.8043 38.2988 57.274 38.8213 58.6119 38.8213ZM83.2078 20.584V34.4414C83.2078 36.9902 82.6316 38.9385 81.4793 40.2861C80.327 41.624 78.6717 42.293 76.5135 42.293C74.3553 42.293 72.7195 41.624 71.6062 40.2861C70.5027 38.9482 69.951 36.9805 69.951 34.3828V20.584H73.9061V34.6758C73.9061 37.4004 74.8094 38.7627 76.616 38.7627C77.4559 38.7627 78.1053 38.416 78.5643 37.7227C79.0232 37.0293 79.2527 36.043 79.2527 34.7637V20.584H83.2078Z" fill="#3F3474"/>
<path d="M102.691 42H98.707V32.6104H93.4482V42H89.4639V20.584H93.4482V29.0947H98.707V20.584H102.691V42ZM123.171 42H119.172L117.942 36.5947H112.361L111.13 42H107.146L112.448 20.4961H117.854L123.171 42ZM117.195 33.0645L116.052 28.084C116.032 28.0059 115.886 27.293 115.613 25.9453C115.349 24.5879 115.197 23.7285 115.158 23.3672C115.022 24.2656 114.865 25.1689 114.69 26.0771C114.514 26.9854 114.001 29.3145 113.152 33.0645H117.195ZM140.633 30.1201V41.1064C138.778 41.8975 136.805 42.293 134.715 42.293C132.225 42.293 130.306 41.3457 128.958 39.4512C127.621 37.5566 126.952 34.8613 126.952 31.3652C126.952 27.8594 127.718 25.1348 129.251 23.1914C130.785 21.248 132.938 20.2764 135.711 20.2764C137.42 20.2764 139.051 20.7158 140.604 21.5947L139.344 24.8467C138.123 24.1436 136.991 23.792 135.946 23.792C134.432 23.792 133.231 24.4707 132.342 25.8281C131.463 27.1758 131.024 29.0361 131.024 31.4092C131.024 33.7822 131.341 35.6084 131.976 36.8877C132.621 38.1572 133.553 38.792 134.774 38.792C135.399 38.792 136.053 38.709 136.737 38.543V33.6357H134.085V30.1201H140.633ZM159.472 30.1201V41.1064C157.617 41.8975 155.644 42.293 153.554 42.293C151.064 42.293 149.145 41.3457 147.797 39.4512C146.46 37.5566 145.791 34.8613 145.791 31.3652C145.791 27.8594 146.557 25.1348 148.09 23.1914C149.624 21.248 151.777 20.2764 154.55 20.2764C156.259 20.2764 157.89 20.7158 159.443 21.5947L158.183 24.8467C156.962 24.1436 155.83 23.792 154.785 23.792C153.271 23.792 152.07 24.4707 151.181 25.8281C150.302 27.1758 149.863 29.0361 149.863 31.4092C149.863 33.7822 150.18 35.6084 150.815 36.8877C151.46 38.1572 152.392 38.792 153.613 38.792C154.238 38.792 154.892 38.709 155.576 38.543V33.6357H152.924V30.1201H159.472ZM172.393 42H168.468V33.5771L163.399 20.584H167.603L170.445 29.0361L173.302 20.584H177.476L172.393 33.416V42ZM183.264 39.4512C181.936 37.5566 181.271 34.8271 181.271 31.2627C181.271 27.6982 181.936 24.9736 183.264 23.0889C184.602 21.1943 186.511 20.2471 188.991 20.2471C191.472 20.2471 193.371 21.1992 194.689 23.1035C196.008 24.998 196.667 27.7227 196.667 31.2773C196.667 34.8223 195.998 37.5469 194.66 39.4512C193.332 41.3457 191.433 42.293 188.962 42.293C186.501 42.293 184.602 41.3457 183.264 39.4512ZM189.006 23.7627C187.805 23.7627 186.892 24.3975 186.267 25.667C185.651 26.9365 185.344 28.7969 185.344 31.248C185.344 33.6992 185.651 35.5645 186.267 36.8438C186.882 38.123 187.785 38.7627 188.977 38.7627C191.379 38.7627 192.58 36.2627 192.58 31.2627C192.58 26.2627 191.389 23.7627 189.006 23.7627Z" fill="#FAC269"/>
<defs>
<linearGradient id="paint0_linear" x1="234.455" y1="19.5647" x2="239.107" y2="19.5647" gradientUnits="userSpaceOnUse">
<stop stop-color="#413277"/>
<stop offset="0.28" stop-color="#45377D"/>
<stop offset="0.64" stop-color="#52458C"/>
<stop offset="1" stop-color="#645AA4"/>
</linearGradient>
<linearGradient id="paint1_linear" x1="239.894" y1="59.28" x2="239.894" y2="27.4893" gradientUnits="userSpaceOnUse">
<stop stop-color="#EB5950"/>
<stop offset="0.14" stop-color="#EC5F55"/>
<stop offset="0.64" stop-color="#EE7165"/>
<stop offset="1" stop-color="#EF786B"/>
</linearGradient>
<linearGradient id="paint2_linear" x1="227.109" y1="42.1545" x2="237.813" y2="31.4499" gradientUnits="userSpaceOnUse">
<stop stop-color="#F39327"/>
<stop offset="0.59" stop-color="#F6A241"/>
<stop offset="1" stop-color="#F8AE56"/>
</linearGradient>
<linearGradient id="paint3_linear" x1="263.946" y1="38.7186" x2="248.989" y2="30.0834" gradientUnits="userSpaceOnUse">
<stop stop-color="#F39327"/>
<stop offset="0.11" stop-color="#F49830"/>
<stop offset="0.41" stop-color="#F6A445"/>
<stop offset="0.71" stop-color="#F8AC52"/>
<stop offset="1" stop-color="#F8AE56"/>
</linearGradient>
<linearGradient id="paint4_linear" x1="236.652" y1="30.4277" x2="250.88" y2="30.4277" gradientUnits="userSpaceOnUse">
<stop stop-color="#EB5950"/>
<stop offset="0.13" stop-color="#EC5F55"/>
<stop offset="0.64" stop-color="#EE7165"/>
<stop offset="1" stop-color="#EF786B"/>
</linearGradient>
<linearGradient id="paint5_linear" x1="5239.41" y1="7959.57" x2="6582.82" y2="8423.1" gradientUnits="userSpaceOnUse">
<stop stop-color="#413277"/>
<stop offset="0.28" stop-color="#45377D"/>
<stop offset="0.64" stop-color="#52458C"/>
<stop offset="1" stop-color="#645AA4"/>
</linearGradient>
<linearGradient id="paint6_linear" x1="248.194" y1="57.8748" x2="238.586" y2="41.2329" gradientUnits="userSpaceOnUse">
<stop stop-color="#F39327"/>
<stop offset="0.27" stop-color="#F4972D"/>
<stop offset="0.64" stop-color="#F5A03E"/>
<stop offset="1" stop-color="#F8AE56"/>
</linearGradient>
</defs>
</svg>
