<svg width="268" height="75" viewBox="0 0 268 75" fill="none" xmlns="http://www.w3.org/2000/svg">
<path d="M217.84 44.6157C216.036 43.3734 213.632 43.1238 212.227 41.2215C211.553 41.3154 211.228 40.8765 210.941 40.3797C211.004 40.0251 211.211 39.669 210.746 39.3807C210.518 39.2397 210.411 38.9376 210.413 38.6379C210.667 38.3007 210.443 37.7979 210.809 37.4979L211.304 37.4379C211.715 37.2537 211.991 37.5438 212.299 37.7217C212.691 38.0862 213.314 38.0655 213.649 38.5266C213.825 38.9211 213.998 39.3648 214.481 39.4218C215.25 39.5118 215.649 40.0098 215.978 40.6062C216.001 40.4907 215.888 40.4562 215.858 40.3752C215.597 39.9363 215.315 39.5715 214.755 39.4452C214.348 39.3528 213.828 39.123 213.996 38.5665C214.148 38.0646 214.628 38.1687 215.033 38.2899C215.209 38.3427 215.413 38.2701 215.569 38.4099C217.235 38.8359 218.489 39.9165 219.729 41.0214C219.895 41.0214 219.949 41.1189 219.946 41.2674C219.767 41.8512 219.311 42.2781 219.065 42.8244C218.608 43.3899 218.652 44.2968 217.84 44.6157Z" fill="#FACBB7"/>
<path d="M213.503 38.5995C213.153 38.1972 212.458 38.4045 212.19 37.857C211.984 37.5498 211.694 37.2648 211.923 36.843L212.027 36.7482C212.278 36.7242 212.531 36.6624 212.775 36.783L214.813 37.848C214.548 38.4 213.889 38.2614 213.503 38.5995Z" fill="#F9C8B6"/>
<path d="M213.503 38.5995C213.743 38.0091 214.393 38.1285 214.813 37.848L215.567 38.4111C215.087 38.535 214.309 38.0886 214.17 38.679C214.056 39.159 214.857 39.2385 215.3 39.4056C215.807 39.597 215.903 40.0812 216.131 40.4757C216.264 40.6992 216.259 40.854 215.942 40.8522C215.482 40.3209 215.198 39.6222 214.283 39.6087C213.791 39.6021 213.568 39.0924 213.503 38.5995Z" fill="#F7B6A7"/>
<path d="M215.942 40.8522C216.092 40.7706 216.127 40.6308 216.131 40.4757C216.32 40.6395 216.559 40.8882 216.397 41.0805C216.181 41.3382 216.059 41.0139 215.942 40.8522Z" fill="#F9C1AF"/>
<path d="M235.134 13.1278C235.134 13.1278 235.328 6.16598 240.768 5.74508C240.768 5.74508 240.803 2.26508 242.16 1.37348C243.188 0.699081 244.654 0.693381 245.755 0.758181C246.856 0.822981 250.257 0.72818 250.387 4.71038C250.516 8.69258 250.359 12.4921 250.223 13.9696C250.103 15.2791 248.378 20.1868 248.151 20.5096C247.924 20.8324 244.881 18.5344 244.783 17.4334C244.686 16.3324 244.847 15.7834 244.587 15.3289C244.328 14.8744 243.65 14.2603 243.65 13.1917L235.134 13.1278Z" fill="#413277"/>
<path d="M235.134 13.1277C235.134 13.1277 233.614 22.1835 236.278 24.63C238.941 27.0765 241.997 30.4371 241.997 30.4371L248.067 25.9398C248.067 25.9398 247.423 24.3324 247.599 22.7898C247.774 21.2472 248.067 20.5443 248.067 20.5443L246.801 19.8153C246.798 19.6437 247.887 18.1953 247.978 17.67C248.068 17.1564 247.686 16.23 246.736 16.4292C245.858 16.6131 245.113 18.4368 244.945 17.895C244.777 17.3532 244.893 15.8103 244.619 15.3933C244.345 14.9763 243.665 14.2806 243.65 13.1952L235.134 13.1277Z" fill="#FACCB8"/>
<path d="M234.455 20.1068H239.107C239.107 20.1068 237.847 19.0229 236.446 19.0229C235.007 19.0229 234.455 20.1068 234.455 20.1068Z" fill="url(#paint0_linear)"/>
<path d="M242.473 29.6208C242.473 29.6208 242.784 27.999 244.078 27.4308C245.391 26.8551 247.08 26.1813 247.877 25.365C247.877 25.365 248.2 27.1389 249.367 28.0509C250.535 28.9629 240.102 32.1732 240.102 32.1732L238.132 27.5415L240.45 27.2451C240.45 27.2451 242.29 27.5778 242.473 29.6208Z" fill="#FFFDFE"/>
<path d="M236.652 29.6139C236.652 29.6139 232.888 31.7013 231.477 35.7C230.065 39.6987 228.608 43.32 227.714 44.4C227.714 44.4 222.541 43.6473 219.954 41.1546C219.954 41.1546 216.191 47.1279 216.05 49.6206C216.05 49.6206 224.769 62.1051 234.07 57.1605V59.28C234.07 59.28 260.53 59.22 263.738 46.212C263.738 46.212 260.765 34.2657 258.587 32.1744C256.409 30.0831 252.7 29.2824 251.288 28.77C249.875 28.2576 249.013 27.768 248.816 27.489C248.816 27.489 246.304 30.8934 243.334 30.6861C240.4 30.4791 239.778 28.8219 239.605 28.4766C239.433 28.1313 236.652 29.6139 236.652 29.6139Z" fill="url(#paint1_linear)"/>
<path d="M236.235 29.8719C236.043 33.8358 232.027 43.0338 228.339 43.3848L228.48 43.1466C229.334 41.484 230.418 38.6973 231.477 35.6991C232.566 32.613 235.057 30.6651 236.137 29.9373L236.235 29.8719Z" fill="url(#paint2_linear)"/>
<path d="M251.496 28.8429C253.038 29.3586 256.509 30.1791 258.587 32.1744C259.83 33.3681 261.332 37.7721 262.392 41.3331L262.407 41.3838C260.829 41.1243 258.383 38.2815 257.102 36.8088C255.821 35.3361 253.804 34.1832 252.362 32.5824C250.92 30.9816 251.492 28.8558 251.492 28.8558L251.496 28.8429Z" fill="url(#paint3_linear)"/>
<path d="M254.505 55.4322L254.161 36.6282L256.555 54.4365C256.555 54.4365 255.513 55.17 254.505 55.4322Z" fill="#E63548"/>
<path d="M234.07 57.1608C232.153 58.1808 230.26 58.4589 228.463 58.2588L228.459 58.2495C232.58 51.0648 234.069 40.5267 234.069 40.5267V57.1608H234.07Z" fill="#E63548"/>
<path opacity="0.25" d="M241.133 24.2718C241.133 24.2718 243.445 24.1323 244.585 23.0238C244.585 23.0238 244.744 23.8788 244.079 24.5124C243.414 25.146 241.223 27.2838 241.384 30.2373C241.384 30.2373 239.821 29.5731 239.605 28.4769C239.389 27.3807 241.133 24.2718 241.133 24.2718Z" fill="#212120"/>
<path opacity="0.7" d="M239.808 27.1578C238.458 27.0849 241.133 24.2718 241.133 24.2718C241.133 24.2718 243.445 24.1323 244.586 23.0238C244.586 23.0238 244.744 23.8788 244.079 24.5124C243.602 24.9669 242.339 26.1951 241.724 27.9435C241.724 27.9435 241.196 27.2331 239.808 27.1578Z" fill="#F49D8B"/>
<path d="M240.779 5.43785H243.286C243.226 3.66485 243.67 2.31575 243.889 1.76615C243.902 1.73407 243.907 1.69935 243.903 1.66499C243.9 1.63062 243.888 1.59763 243.869 1.56885C243.849 1.54008 243.824 1.51638 243.793 1.49979C243.763 1.48321 243.729 1.47424 243.695 1.47365C243.224 1.46405 242.01 1.48715 242.01 1.48715C242.01 1.48715 241.811 1.66715 241.718 1.80785C241.485 2.16005 240.913 3.00425 240.779 5.43785Z" fill="#7C61A7"/>
<path d="M243.974 5.46929C243.974 5.46929 244.22 1.83929 244.707 1.55039C244.707 1.55039 246.745 1.43639 247.792 3.32699C248.101 3.88289 248.24 4.51649 248.24 5.15219V7.16429C248.24 7.16429 246.356 5.66429 243.974 5.46929Z" fill="#7C61A7"/>
<path d="M236.652 29.6138C236.652 29.6138 239.433 28.1316 239.605 28.4769C239.778 28.8222 240.4 30.4793 243.334 30.6863C246.304 30.8936 248.816 27.4893 248.816 27.4893C249.013 27.7683 249.513 28.0917 250.88 28.716L250.862 28.7361C249.043 30.7679 246.716 33.3707 242.833 33.3662C239.141 33.3623 236.663 29.6297 236.663 29.6297L236.652 29.6138Z" fill="url(#paint4_linear)"/>
<path d="M241.133 24.2718C241.133 24.2718 239.38 24.0132 238.49 23.3238C237.599 22.6344 237.317 22.347 236.78 22.347C236.259 22.347 235.822 23.0433 235.58 23.3091C235.54 23.3529 235.51 23.4046 235.492 23.4609C235.474 23.5171 235.468 23.5765 235.474 23.6352C235.696 25.6767 237.782 40.59 241.133 24.2718Z" fill="url(#paint5_linear)"/>
<path d="M249.344 57.21C250.259 55.6149 250.814 53.3025 250.707 49.9713C250.519 44.1489 248.773 39.3417 243.678 39.3417C238.777 39.3417 236.667 43.677 236.667 50.0517C236.667 54.2451 237.711 57.264 239.307 58.971C242.119 58.7001 245.743 58.1847 249.344 57.21Z" fill="url(#paint6_linear)"/>
<path d="M69.582 53.804H73.38V51.878H67.242V62.822H68.394C70.518 62.822 72.282 62.75 74.298 62.372L74.118 60.446C72.534 60.734 71.13 60.824 69.582 60.86V53.804ZM78.744 49.952V56.342H77.25V50.276H75.036V65.774H77.25V58.25H78.744V66.548H80.994V49.952H78.744ZM97.7866 55.856C94.0246 55.334 92.1166 53.174 92.1166 51.248V50.456H89.5786V51.248C89.5786 53.192 87.6886 55.334 83.9086 55.856L84.8086 57.764C87.7066 57.332 89.7946 55.982 90.8566 54.2C91.9186 55.982 93.9886 57.332 96.8866 57.764L97.7866 55.856ZM98.3266 58.988H83.3506V60.914H89.5966V66.566H91.9726V60.914H98.3266V58.988ZM109.647 51.428H105.957V49.88H103.563V51.428H99.8912V53.3H109.647V51.428ZM102.969 56.864C102.969 56.036 103.689 55.622 104.769 55.622C105.831 55.622 106.569 56.036 106.569 56.864C106.569 57.71 105.831 58.124 104.769 58.124C103.689 58.124 102.969 57.71 102.969 56.864ZM108.837 56.864C108.837 55.064 107.163 53.822 104.769 53.822C102.393 53.822 100.701 55.064 100.701 56.864C100.701 58.682 102.393 59.924 104.769 59.924C107.163 59.924 108.837 58.682 108.837 56.864ZM101.889 62.948H110.565V66.566H112.941V61.04H101.889V62.948ZM115.137 54.236H112.941V49.988H110.565V60.356H112.941V56.198H115.137V54.236ZM129.536 60.662C130.094 57.314 130.094 55.028 130.094 52.994V51.392H117.908V53.282H127.718C127.718 55.19 127.7 57.422 127.16 60.428L129.536 60.662ZM126.026 62.642V57.404H123.704V62.642H121.94V57.404H119.6V62.642H116.45V64.55H131.462V62.642H126.026Z" fill="#EC665C"/>
<rect y="56" width="56" height="4" rx="2" fill="#EC665C"/>
<rect x="144" y="56" width="56" height="4" rx="2" fill="#EC665C"/>
<path d="M3.3 15.59C4.86 15.59 6.56 15.91 8.4 16.55C10.26 17.19 11.98 18.03 13.56 19.07C15.16 20.11 16.49 21.36 17.55 22.82C18.63 24.28 19.17 25.76 19.17 27.26C19.17 28.38 18.26 29.78 16.44 31.46C14.64 33.12 12.55 34.56 10.17 35.78C7.79 37 5.84 37.61 4.32 37.61C3.98 37.61 3.43 37.17 2.67 36.29C1.93 35.39 1.56 34.73 1.56 34.31C1.56 33.49 2.1 31.21 3.18 27.47C4.28 23.71 4.96 21.13 5.22 19.73C4.5 19.25 3.9 18.68 3.42 18.02C2.94 17.34 2.7 16.77 2.7 16.31C2.7 15.83 2.9 15.59 3.3 15.59ZM14.85 26.42C14.85 25.78 14.26 24.94 13.08 23.9C11.9 22.84 10.53 21.96 8.97 21.26C8.85 22.76 8 25.97 6.42 30.89C6.34 31.15 6.21 31.58 6.03 32.18C5.87 32.76 5.75 33.15 5.67 33.35C7.63 32.69 9.65 31.58 11.73 30.02C13.81 28.44 14.85 27.24 14.85 26.42ZM35.2505 26.36C36.0505 26.36 36.6205 26.44 36.9605 26.6C37.3205 26.74 37.5005 27.01 37.5005 27.41C37.5005 27.95 36.6305 28.5 34.8905 29.06C34.9305 30.58 34.9505 32.04 34.9505 33.44C34.9505 34.82 34.8405 35.86 34.6205 36.56C34.4005 37.24 34.0505 37.58 33.5705 37.58C33.0905 37.58 32.7105 37.34 32.4305 36.86C32.1705 36.36 31.9505 35.55 31.7705 34.43C31.6105 33.31 31.4405 31.83 31.2605 29.99C29.2205 30.45 27.7505 30.82 26.8505 31.1C25.2905 35.42 24.2505 37.58 23.7305 37.58C23.3105 37.58 22.7505 37.3 22.0505 36.74C21.3705 36.18 21.0305 35.6 21.0305 35C21.0305 34.66 21.4205 33.6 22.2005 31.82C21.8605 31.6 21.5605 31.29 21.3005 30.89C21.0605 30.47 20.9405 30.07 20.9405 29.69C20.9405 29.03 21.9305 28.4 23.9105 27.8C24.0705 27.4 24.2305 26.95 24.3905 26.45C24.5705 25.93 25.0005 24.73 25.6805 22.85C26.3805 20.97 26.9305 19.4 27.3305 18.14C27.5105 17.54 28.1305 16.98 29.1905 16.46C30.2705 15.94 31.1105 15.68 31.7105 15.68C32.4105 15.68 33.0305 16.65 33.5705 18.59C34.1305 20.53 34.5205 23.12 34.7405 26.36H35.2505ZM28.3205 26.87C28.9205 26.79 29.7905 26.69 30.9305 26.57C30.8705 25.99 30.7705 25 30.6305 23.6C30.5105 22.2 30.4205 21.19 30.3605 20.57C30.0205 21.69 29.3405 23.79 28.3205 26.87ZM46.317 25.01C47.377 25.01 48.517 24.96 49.737 24.86C50.957 24.74 51.707 24.68 51.987 24.68C52.287 24.68 52.517 24.75 52.677 24.89C52.857 25.03 52.947 25.2 52.947 25.4C52.947 26.28 52.117 26.98 50.457 27.5C48.797 28.02 47.027 28.32 45.147 28.4C44.367 30.82 43.977 32.35 43.977 32.99C43.977 33.33 44.147 33.5 44.487 33.5C46.767 33.5 49.117 33.2 51.537 32.6C52.357 32.38 52.827 32.27 52.947 32.27C53.327 32.27 53.517 32.54 53.517 33.08C53.517 33.8 52.987 34.5 51.927 35.18C50.867 35.86 49.537 36.4 47.937 36.8C46.337 37.2 44.767 37.4 43.227 37.4C42.307 37.4 41.477 37.06 40.737 36.38C39.997 35.68 39.627 34.87 39.627 33.95C39.627 33.01 40.137 30.67 41.157 26.93C42.197 23.19 42.747 20.37 42.807 18.47C42.787 18.41 42.777 18.29 42.777 18.11C42.777 17.83 42.817 17.61 42.897 17.45C43.117 16.89 43.727 16.54 44.727 16.4C45.727 16.24 47.527 16.16 50.127 16.16C54.447 16.16 56.607 16.64 56.607 17.6C56.607 18.22 56.077 18.65 55.017 18.89C54.297 19.05 53.307 19.2 52.047 19.34C50.107 19.56 48.377 19.88 46.857 20.3C46.857 21.66 46.617 23.23 46.137 25.01H46.317ZM70.3704 31.4C70.3704 33.1 69.5604 34.56 67.9404 35.78C66.3204 37 64.4704 37.61 62.3904 37.61C60.3104 37.61 58.6304 37.1 57.3504 36.08C56.0904 35.04 55.4604 33.97 55.4604 32.87C55.4604 31.77 55.7704 31.22 56.3904 31.22C56.8704 31.22 57.3704 31.46 57.8904 31.94C58.4104 32.42 58.9904 32.9 59.6304 33.38C60.2904 33.86 61.0304 34.1 61.8504 34.1C62.6704 34.1 63.6004 33.76 64.6404 33.08C65.6804 32.4 66.2004 31.83 66.2004 31.37C66.2004 30.91 65.6304 30.14 64.4904 29.06C63.3704 27.98 62.2404 26.87 61.1004 25.73C59.9804 24.57 59.4204 23.68 59.4204 23.06C59.4204 22.42 59.5304 21.73 59.7504 20.99C59.9904 20.25 60.2804 19.74 60.6204 19.46C61.7004 18.4 63.0904 17.49 64.7904 16.73C66.5104 15.95 68.0204 15.56 69.3204 15.56C70.0804 15.56 70.7104 15.89 71.2104 16.55C71.7104 17.19 71.9604 17.86 71.9604 18.56C71.9604 18.84 71.7304 19.07 71.2704 19.25C70.8304 19.41 70.1804 19.58 69.3204 19.76C68.4804 19.94 67.6204 20.2 66.7404 20.54C64.7004 21.3 63.6804 21.94 63.6804 22.46C63.6804 22.7 64.0304 23.14 64.7304 23.78C65.4304 24.4 66.1904 25.06 67.0104 25.76C67.8504 26.44 68.6204 27.31 69.3204 28.37C70.0204 29.41 70.3704 30.42 70.3704 31.4ZM77.0531 15.59C77.5531 15.59 78.1831 15.95 78.9431 16.67C79.7231 17.39 80.1131 18.1 80.1131 18.8C80.1131 19.48 79.7531 21.26 79.0331 24.14C78.3131 27.02 77.9531 29.01 77.9531 30.11C77.9531 31.19 78.0831 32.02 78.3431 32.6C78.6231 33.18 79.0031 33.47 79.4831 33.47C79.9831 33.47 80.5631 33.12 81.2231 32.42C81.8831 31.7 82.5131 30.78 83.1131 29.66C83.7331 28.52 84.2431 27.17 84.6431 25.61C85.0631 24.03 85.2731 22.57 85.2731 21.23C85.2731 19.87 85.2031 18.78 85.0631 17.96C84.9431 17.14 84.8831 16.65 84.8831 16.49C84.8831 15.87 85.1431 15.56 85.6631 15.56C86.3031 15.56 87.1231 16.1 88.1231 17.18C89.1431 18.26 89.6531 19.55 89.6531 21.05C89.6531 22.53 89.3931 24.24 88.8731 26.18C88.3531 28.1 87.6531 29.92 86.7731 31.64C85.8931 33.36 84.7731 34.79 83.4131 35.93C82.0731 37.07 80.6931 37.64 79.2731 37.64C77.8731 37.64 76.6031 36.9 75.4631 35.42C74.3231 33.94 73.7531 32.43 73.7531 30.89C73.7531 29.35 73.9531 27.57 74.3531 25.55C74.7531 23.51 75.1531 21.68 75.5531 20.06C75.9531 18.44 76.1531 17.29 76.1531 16.61C76.1531 15.93 76.4531 15.59 77.0531 15.59Z" fill="#3F3474"/>
<path d="M94.2049 37.61C93.7849 37.61 93.1949 37.14 92.4349 36.2C91.6749 35.24 91.2949 34.51 91.2949 34.01C91.2949 33.49 91.5949 31.94 92.1949 29.36C91.7149 28.88 91.4749 28.28 91.4749 27.56C91.4749 27.16 91.9549 26.76 92.9149 26.36C94.1749 21.24 94.8049 18 94.8049 16.64C94.8049 15.98 95.0949 15.65 95.6749 15.65C96.1549 15.65 96.7749 16.13 97.5349 17.09C98.3149 18.05 98.7049 18.95 98.7049 19.79C98.7049 20.33 98.3449 22.13 97.6249 25.19C99.3449 24.89 101.055 24.71 102.755 24.65C103.715 20.63 104.195 17.96 104.195 16.64C104.195 15.98 104.485 15.65 105.065 15.65C105.545 15.65 106.165 16.13 106.925 17.09C107.705 18.05 108.095 18.95 108.095 19.79C108.095 20.21 107.705 21.93 106.925 24.95C107.925 25.19 108.425 25.58 108.425 26.12C108.425 26.74 107.685 27.23 106.205 27.59C105.485 30.35 105.015 32.18 104.795 33.08C104.575 33.96 104.405 34.63 104.285 35.09C104.185 35.53 104.075 35.96 103.955 36.38C103.735 37.2 103.525 37.61 103.325 37.61C102.845 37.61 102.265 37.23 101.585 36.47C100.925 35.71 100.595 34.95 100.595 34.19C100.595 33.75 101.015 31.8 101.855 28.34C99.5549 28.72 97.7849 29.07 96.5449 29.39C95.9249 31.77 95.5149 33.43 95.3149 34.37C95.1149 35.29 94.9549 35.96 94.8349 36.38C94.6149 37.2 94.4049 37.61 94.2049 37.61ZM124.606 26.36C125.406 26.36 125.976 26.44 126.316 26.6C126.676 26.74 126.856 27.01 126.856 27.41C126.856 27.95 125.986 28.5 124.246 29.06C124.286 30.58 124.306 32.04 124.306 33.44C124.306 34.82 124.196 35.86 123.976 36.56C123.756 37.24 123.406 37.58 122.926 37.58C122.446 37.58 122.066 37.34 121.786 36.86C121.526 36.36 121.306 35.55 121.126 34.43C120.966 33.31 120.796 31.83 120.616 29.99C118.576 30.45 117.106 30.82 116.206 31.1C114.646 35.42 113.606 37.58 113.086 37.58C112.666 37.58 112.106 37.3 111.406 36.74C110.726 36.18 110.386 35.6 110.386 35C110.386 34.66 110.776 33.6 111.556 31.82C111.216 31.6 110.916 31.29 110.656 30.89C110.416 30.47 110.296 30.07 110.296 29.69C110.296 29.03 111.286 28.4 113.266 27.8C113.426 27.4 113.586 26.95 113.746 26.45C113.926 25.93 114.356 24.73 115.036 22.85C115.736 20.97 116.286 19.4 116.686 18.14C116.866 17.54 117.486 16.98 118.546 16.46C119.626 15.94 120.466 15.68 121.066 15.68C121.766 15.68 122.386 16.65 122.926 18.59C123.486 20.53 123.876 23.12 124.096 26.36H124.606ZM117.676 26.87C118.276 26.79 119.146 26.69 120.286 26.57C120.226 25.99 120.126 25 119.986 23.6C119.866 22.2 119.776 21.19 119.716 20.57C119.376 21.69 118.696 23.79 117.676 26.87ZM136.542 27.8C136.542 27.38 137.022 27.04 137.982 26.78C138.942 26.52 139.982 26.39 141.102 26.39C142.222 26.39 143.072 26.84 143.652 27.74C144.252 28.64 144.552 29.64 144.552 30.74C144.552 31.84 144.082 33.74 143.142 36.44C142.222 39.12 141.422 40.46 140.742 40.46C140.462 40.46 140.222 40.37 140.022 40.19C139.842 40.03 139.752 39.82 139.752 39.56C139.752 38.12 140.152 36.06 140.952 33.38C140.012 34.58 138.982 35.55 137.862 36.29C136.762 37.03 135.622 37.4 134.442 37.4C133.282 37.4 132.062 36.89 130.782 35.87C129.502 34.85 128.862 33.73 128.862 32.51C128.862 30.35 129.502 27.96 130.782 25.34C132.062 22.7 133.682 20.45 135.642 18.59C137.602 16.73 139.452 15.8 141.192 15.8C141.792 15.8 142.412 16.27 143.052 17.21C143.712 18.15 144.042 19.01 144.042 19.79C144.042 20.15 143.912 20.33 143.652 20.33C143.612 20.33 143.422 20.29 143.082 20.21C142.742 20.13 142.322 20.09 141.822 20.09C140.482 20.09 139.112 20.78 137.712 22.16C136.312 23.52 135.172 25.2 134.292 27.2C133.412 29.2 132.972 31.08 132.972 32.84C132.972 33.36 133.312 33.62 133.992 33.62C134.932 33.62 136.082 33.2 137.442 32.36C138.822 31.52 139.882 30.58 140.622 29.54C140.182 29.56 139.642 29.57 139.002 29.57C138.382 29.57 137.812 29.38 137.292 29C136.792 28.62 136.542 28.22 136.542 27.8ZM154.443 27.8C154.443 27.38 154.923 27.04 155.883 26.78C156.843 26.52 157.883 26.39 159.003 26.39C160.123 26.39 160.973 26.84 161.553 27.74C162.153 28.64 162.453 29.64 162.453 30.74C162.453 31.84 161.983 33.74 161.043 36.44C160.123 39.12 159.323 40.46 158.643 40.46C158.363 40.46 158.123 40.37 157.923 40.19C157.743 40.03 157.653 39.82 157.653 39.56C157.653 38.12 158.053 36.06 158.853 33.38C157.913 34.58 156.883 35.55 155.763 36.29C154.663 37.03 153.523 37.4 152.343 37.4C151.183 37.4 149.963 36.89 148.683 35.87C147.403 34.85 146.763 33.73 146.763 32.51C146.763 30.35 147.403 27.96 148.683 25.34C149.963 22.7 151.583 20.45 153.543 18.59C155.503 16.73 157.353 15.8 159.093 15.8C159.693 15.8 160.313 16.27 160.953 17.21C161.613 18.15 161.943 19.01 161.943 19.79C161.943 20.15 161.813 20.33 161.553 20.33C161.513 20.33 161.323 20.29 160.983 20.21C160.643 20.13 160.223 20.09 159.723 20.09C158.383 20.09 157.013 20.78 155.613 22.16C154.213 23.52 153.073 25.2 152.193 27.2C151.313 29.2 150.873 31.08 150.873 32.84C150.873 33.36 151.213 33.62 151.893 33.62C152.833 33.62 153.983 33.2 155.343 32.36C156.723 31.52 157.783 30.58 158.523 29.54C158.083 29.56 157.543 29.57 156.903 29.57C156.283 29.57 155.713 29.38 155.193 29C154.693 28.62 154.443 28.22 154.443 27.8ZM173.093 25.88C173.453 25.88 174.083 25.02 174.983 23.3C175.903 21.58 176.833 19.87 177.773 18.17C178.713 16.45 179.413 15.59 179.873 15.59C180.553 15.59 181.113 15.9 181.553 16.52C182.013 17.14 182.243 17.88 182.243 18.74C182.243 19.34 181.723 20.5 180.683 22.22C179.643 23.92 178.323 26.03 176.723 28.55C175.123 31.07 173.893 33.21 173.033 34.97C172.773 35.53 172.353 36.11 171.773 36.71C171.193 37.31 170.633 37.61 170.093 37.61C169.293 37.61 168.893 36.97 168.893 35.69C168.893 34.93 169.653 33.16 171.173 30.38C171.413 29.94 171.583 29.61 171.683 29.39C170.803 29.05 170.003 28.49 169.283 27.71C168.563 26.93 167.993 26.05 167.573 25.07C166.693 23.01 166.253 21.01 166.253 19.07C166.253 17.87 166.383 16.99 166.643 16.43C166.923 15.87 167.483 15.59 168.323 15.59C168.763 15.59 169.093 15.9 169.313 16.52C169.533 17.12 169.733 17.99 169.913 19.13C170.093 20.27 170.343 21.28 170.663 22.16C171.003 23.02 171.413 23.86 171.893 24.68C172.393 25.48 172.793 25.88 173.093 25.88ZM190.48 32.45C191.64 31.41 192.65 30.11 193.51 28.55C194.37 26.97 194.8 25.46 194.8 24.02C194.8 22.58 194.62 21.47 194.26 20.69C193.9 19.91 193.4 19.52 192.76 19.52C192.12 19.52 191.28 20.1 190.24 21.26C189.22 22.4 188.29 23.9 187.45 25.76C186.63 27.62 186.22 29.4 186.22 31.1C186.22 31.96 186.34 32.66 186.58 33.2C186.82 33.72 187.12 33.98 187.48 33.98C188.32 33.98 189.32 33.47 190.48 32.45ZM187.51 37.61C186.03 37.61 184.71 36.89 183.55 35.45C182.39 33.99 181.81 32.54 181.81 31.1C181.81 29.26 182.16 27.38 182.86 25.46C183.56 23.52 184.43 21.85 185.47 20.45C186.53 19.03 187.69 17.87 188.95 16.97C190.21 16.05 191.37 15.59 192.43 15.59C194.37 15.59 195.96 16.42 197.2 18.08C198.44 19.72 199.06 21.57 199.06 23.63C199.06 25.69 198.54 27.78 197.5 29.9C196.46 32 195.02 33.81 193.18 35.33C191.36 36.85 189.47 37.61 187.51 37.61Z" fill="#FAC269"/>
<defs>
<linearGradient id="paint0_linear" x1="234.455" y1="19.5647" x2="239.107" y2="19.5647" gradientUnits="userSpaceOnUse">
<stop stop-color="#413277"/>
<stop offset="0.28" stop-color="#45377D"/>
<stop offset="0.64" stop-color="#52458C"/>
<stop offset="1" stop-color="#645AA4"/>
</linearGradient>
<linearGradient id="paint1_linear" x1="239.894" y1="59.28" x2="239.894" y2="27.4893" gradientUnits="userSpaceOnUse">
<stop stop-color="#EB5950"/>
<stop offset="0.14" stop-color="#EC5F55"/>
<stop offset="0.64" stop-color="#EE7165"/>
<stop offset="1" stop-color="#EF786B"/>
</linearGradient>
<linearGradient id="paint2_linear" x1="227.109" y1="42.1545" x2="237.813" y2="31.4499" gradientUnits="userSpaceOnUse">
<stop stop-color="#F39327"/>
<stop offset="0.59" stop-color="#F6A241"/>
<stop offset="1" stop-color="#F8AE56"/>
</linearGradient>
<linearGradient id="paint3_linear" x1="263.946" y1="38.7186" x2="248.989" y2="30.0834" gradientUnits="userSpaceOnUse">
<stop stop-color="#F39327"/>
<stop offset="0.11" stop-color="#F49830"/>
<stop offset="0.41" stop-color="#F6A445"/>
<stop offset="0.71" stop-color="#F8AC52"/>
<stop offset="1" stop-color="#F8AE56"/>
</linearGradient>
<linearGradient id="paint4_linear" x1="236.652" y1="30.4277" x2="250.88" y2="30.4277" gradientUnits="userSpaceOnUse">
<stop stop-color="#EB5950"/>
<stop offset="0.13" stop-color="#EC5F55"/>
<stop offset="0.64" stop-color="#EE7165"/>
<stop offset="1" stop-color="#EF786B"/>
</linearGradient>
<linearGradient id="paint5_linear" x1="5239.41" y1="7959.57" x2="6582.82" y2="8423.1" gradientUnits="userSpaceOnUse">
<stop stop-color="#413277"/>
<stop offset="0.28" stop-color="#45377D"/>
<stop offset="0.64" stop-color="#52458C"/>
<stop offset="1" stop-color="#645AA4"/>
</linearGradient>
<linearGradient id="paint6_linear" x1="248.194" y1="57.8748" x2="238.586" y2="41.2329" gradientUnits="userSpaceOnUse">
<stop stop-color="#F39327"/>
<stop offset="0.27" stop-color="#F4972D"/>
<stop offset="0.64" stop-color="#F5A03E"/>
<stop offset="1" stop-color="#F8AE56"/>
</linearGradient>
</defs>
</svg>
