<svg width="32" height="32" viewBox="0 0 32 32" fill="none" xmlns="http://www.w3.org/2000/svg">
<g clip-path="url(#clip0)">
<path d="M2 2.17733C-0.51467 4.78933 -3.91643e-06 7.56399 -3.91643e-06 15.9933C-3.91643e-06 22.9933 -1.22134 30.0107 5.17066 31.6627C7.16666 32.176 24.852 32.176 26.8453 31.66C29.5067 30.9733 31.672 28.8147 31.968 25.0507C32.0093 24.5253 32.0093 7.47066 31.9667 6.93466C31.652 2.92533 29.184 0.614658 25.932 0.146657C25.1867 0.0386574 25.0373 0.00665735 21.2133 -9.3236e-06C7.64933 0.00665735 4.676 -0.597343 2 2.17733V2.17733Z" fill="url(#paint0_linear)"/>
<path d="M15.9973 4.18532C11.156 4.18532 6.55867 3.75466 4.80267 8.26132C4.07734 10.1227 4.18267 12.54 4.18267 16.0013C4.18267 19.0386 4.08534 21.8933 4.80267 23.74C6.55467 28.2493 11.1893 27.8173 15.9947 27.8173C20.6307 27.8173 25.4107 28.3 27.188 23.74C27.9147 21.86 27.808 19.4786 27.808 16.0013C27.808 11.3853 28.0627 8.40532 25.824 6.16799C23.5573 3.90132 20.492 4.18532 15.992 4.18532H15.9973ZM14.9387 6.31465C25.0373 6.29865 26.3227 5.17599 25.6133 20.772C25.3613 26.288 21.1613 25.6826 15.9987 25.6826C6.58534 25.6826 6.31467 25.4133 6.31467 15.996C6.31467 6.46932 7.06134 6.31999 14.9387 6.31199V6.31465ZM22.304 8.27599C21.5213 8.27599 20.8867 8.91065 20.8867 9.69332C20.8867 10.476 21.5213 11.1107 22.304 11.1107C23.0867 11.1107 23.7213 10.476 23.7213 9.69332C23.7213 8.91065 23.0867 8.27599 22.304 8.27599V8.27599ZM15.9973 9.93332C12.6467 9.93332 9.93068 12.6507 9.93068 16.0013C9.93068 19.352 12.6467 22.068 15.9973 22.068C19.348 22.068 22.0627 19.352 22.0627 16.0013C22.0627 12.6507 19.348 9.93332 15.9973 9.93332V9.93332ZM15.9973 12.0627C21.204 12.0627 21.2107 19.94 15.9973 19.94C10.792 19.94 10.784 12.0627 15.9973 12.0627Z" fill="white"/>
</g>
<defs>
<linearGradient id="paint0_linear" x1="2.06136" y1="29.9561" x2="31.802" y2="4.21598" gradientUnits="userSpaceOnUse">
<stop stop-color="#FFDD55"/>
<stop offset="0.5" stop-color="#FF543E"/>
<stop offset="1" stop-color="#C837AB"/>
</linearGradient>
<clipPath id="clip0">
<rect width="32" height="32" fill="white"/>
</clipPath>
</defs>
</svg>
