<svg xmlns="http://www.w3.org/2000/svg" width="32" height="34" fill="none"  xmlns:v="https://vecta.io/nano"><g fill="#ec665c"><path d="M31.417 8.128v16.234l-4.427 8.93-25.864-1.709V12.168l26.137.736 4.154-4.776z"/><path d="M32 3.818v5.668l-1.623 2.588-.924 1.467-2.037 3.246-.049-.003L.231 15.39V9.798l.07-.075 6.532-7.07L32 3.818z"/></g><g fill="#000"><path opacity=".1" d="M27.417 11.195v5.593L.231 15.391V9.798l.07-.075 27.115 1.472z"/><path opacity=".15" d="M32 3.818v5.668l-4.583 7.302v-5.593L32 3.818z"/></g><g fill="#fac269"><path d="M30.379 6.427l-.01 20.05-1.074 2.167.221-20.825L3.54 6.216l1.173-1.269 25.666 1.48z"/><path d="M17.631 6.611l-1.821 3.954-.182 21.978-4.367-.289V10.302l2.331-3.691h4.04z"/><path d="M11.638 6.88c-1.052.349-2.183.389-3.257.114a1.3 1.3 0 0 1-.57-.26 1.48 1.48 0 0 1-.354-.7c-.19-.539-.295-1.104-.312-1.675a1.87 1.87 0 0 1 .697-1.496 1.53 1.53 0 0 0 .26-.198 1.13 1.13 0 0 0 .203-.416c.32-.949.936-1.951 1.925-2.102.913-.14 1.745.497 2.448 1.095l1.543 1.301c.171-.461.478-.859.88-1.142s.88-.438 1.371-.445.973.135 1.383.407.727.662.911 1.117A8.64 8.64 0 0 1 22.199.124c.291-.109.635-.198.903-.034.166.121.291.288.359.481.419.92.647 1.916.668 2.926a.52.52 0 0 1 .596.205 1.35 1.35 0 0 1 .198.645c.042.353.063.708.063 1.064.035.376-.063.753-.278 1.064-.317.367-.861.406-1.345.416.234.208.12.624-.138.799-.276.148-.591.209-.903.174-1.202 0-2.479-.044-3.478-.713-.395-.26-.726-.614-1.121-.874-.97-.643-2.188-.674-3.309-.619-1.007.055-1.813.908-2.775 1.22z"/><path d="M11.417 6.614S1.397 8.011 0 14.069l2.097-.309 1.475 2.64s1.561-5.902 6.136-7.302 6.214-1.631 6.214-1.631 3.184.78 6.058 10.02l1.631-2.253 2.861.622s-2.096-7.224-7.767-9.242h-7.289z"/></g></svg>