<svg width="260" height="159" viewBox="0 0 260 159" fill="none" xmlns="http://www.w3.org/2000/svg">
<path d="M209.143 56.1523V94.4673L199.014 114.905L198.697 115.559L171.88 113.783L161.562 113.099L137.643 111.521V65.6864L161.562 66.361L172.267 66.6587L199.341 67.4226L209.143 56.1523Z" fill="#FF6F61"/>
<path d="M210.522 45.9738V59.3573L209.143 61.5498L206.693 65.4686L204.51 68.931L199.708 76.59H199.589L135.529 73.2963V60.0914L135.688 59.9228L143.337 51.6388L146.105 48.6426L151.115 43.2257L210.522 45.9738Z" fill="#FF6F61"/>
<path opacity="0.1" d="M199.708 63.395V76.5899L135.529 73.2961V60.0912L135.688 59.9226L199.708 63.395Z" fill="black"/>
<path opacity="0.15" d="M210.522 45.9736V59.3571L199.708 76.5899V63.3949L210.522 45.9736Z" fill="black"/>
<path d="M206.703 52.135L206.693 61.1235V65.4688L206.673 99.4682L204.133 104.578L204.51 68.9313L204.57 63.4748L204.659 55.4189L143.337 51.639L146.105 48.6428L206.703 52.135Z" fill="#FAC269"/>
<path d="M176.602 52.5712L172.307 61.9068L172.267 66.659L171.88 113.784L161.562 113.099V61.2818L167.068 52.5712H176.602Z" fill="#FAC269"/>
<path d="M162.455 53.1764C159.971 54.0026 157.302 54.0956 154.766 53.4443C154.274 53.3453 153.811 53.1311 153.417 52.8193C152.997 52.3505 152.71 51.7787 152.584 51.1624C152.136 49.8852 151.889 48.5467 151.85 47.194C151.835 46.5184 151.976 45.8486 152.261 45.2361C152.547 44.6237 152.969 44.0851 153.496 43.6622C153.719 43.527 153.928 43.3709 154.122 43.1959C154.351 42.9026 154.516 42.5647 154.608 42.2038C155.352 39.9617 156.81 37.6005 159.151 37.2433C161.304 36.9159 163.259 38.4239 164.925 39.8327L168.567 42.938C168.972 41.8517 169.696 40.9132 170.643 40.2454C171.591 39.5776 172.719 39.2117 173.878 39.1956C175.037 39.1795 176.174 39.514 177.14 40.1553C178.106 40.7965 178.856 41.7146 179.291 42.7892C181.498 40.3005 184.281 38.3897 187.397 37.2235C187.724 37.0523 188.085 36.9564 188.454 36.9426C188.823 36.9289 189.191 36.9978 189.53 37.1442C189.917 37.433 190.21 37.8299 190.373 38.285C191.373 40.4664 191.913 42.8304 191.96 45.2297C192.214 45.1408 192.49 45.1405 192.744 45.2288C192.998 45.3171 193.215 45.4887 193.359 45.7158C193.642 46.1734 193.803 46.6962 193.825 47.2338C193.924 48.0668 193.974 48.9049 193.974 49.7437C194.061 50.6316 193.829 51.5212 193.319 52.2538C192.575 53.1268 191.335 53.2458 190.145 53.2458C190.257 53.3873 190.339 53.5509 190.383 53.726C190.428 53.9012 190.435 54.0838 190.404 54.2619C190.373 54.4399 190.305 54.6095 190.204 54.7592C190.103 54.909 189.971 55.0356 189.817 55.1308C189.163 55.476 188.42 55.6177 187.684 55.5376C184.847 55.5376 181.831 55.4384 179.47 53.8609C178.547 53.2359 177.763 52.4125 176.831 51.7974C174.539 50.2795 171.672 50.21 169.023 50.3291C166.632 50.4581 164.727 52.4422 162.455 53.1764Z" fill="#FAC269"/>
<path d="M161.909 52.5712C161.909 52.5712 138.258 55.8749 134.964 70.181L139.924 69.4469L143.407 75.6772C143.407 75.6772 147.078 61.7878 157.891 58.4444C168.705 55.101 172.555 54.595 172.555 54.595C172.555 54.595 180.075 56.4305 186.861 78.2468L190.71 72.9291L197.496 74.3974C197.496 74.3974 192.536 57.3432 179.162 52.5712H161.909Z" fill="#FAC269"/>
<path d="M143.967 31.0002V92.9172L127.597 125.934L127.081 126.976L83.7461 124.119L67.0888 123.018L28.4365 120.458V46.4075L67.0888 47.489L84.3811 47.985L128.123 49.2152L143.967 31.0002Z" fill="#00BFA6"/>
<path d="M146.189 14.5616V36.1795L143.967 39.7212L139.998 46.0508L136.476 51.6463L128.708 64.0277L128.52 64.0177L25.0238 58.7001V37.37L25.2917 37.0823L37.6434 23.7088L42.1177 18.8673L50.2033 10.1171L146.189 14.5616Z" fill="#00BFA6"/>
<path opacity="0.1" d="M128.708 42.6972V64.0273L25.0238 58.6997V37.3696L25.2917 37.0819L128.708 42.6972Z" fill="black"/>
<path opacity="0.15" d="M146.189 14.5613V36.1792L128.708 64.0275V42.6973L146.189 14.5613Z" fill="black"/>
<path d="M140.008 24.5124L139.998 39.0367V46.0509L139.968 100.983L135.871 109.248L136.476 51.6463L136.575 42.8365V42.8266L136.714 29.8201L37.6432 23.7088L42.1175 18.8673L140.008 24.5124Z" fill="#FAC269"/>
<path d="M91.3852 25.2163L84.4405 40.2963L84.3809 47.9851L83.746 124.119L67.0886 123.018V39.2942L75.9778 25.2163H91.3852Z" fill="#FAC269"/>
<path d="M68.5273 26.2385C64.5143 27.5712 60.2029 27.7227 56.1062 26.675C55.312 26.5262 54.5661 26.1856 53.9335 25.6829C53.252 24.9308 52.7859 24.0088 52.5843 23.0141C51.8605 20.9585 51.4589 18.8034 51.3937 16.625C51.3711 15.5341 51.5991 14.4526 52.06 13.4636C52.521 12.4746 53.2026 11.6046 54.0526 10.9204C54.4092 10.7053 54.7418 10.4525 55.0447 10.1664C55.4095 9.69647 55.673 9.15601 55.8185 8.57911C57.0388 4.95794 59.3901 1.13834 63.1601 0.562923C66.6424 0.0271893 69.8171 2.45786 72.4957 4.73969L78.3789 9.70018C79.0327 7.94342 80.2023 6.42531 81.7343 5.34515C83.2663 4.265 85.0891 3.67324 86.9634 3.64749C88.8377 3.62174 90.676 4.16319 92.2371 5.20086C93.7982 6.23852 95.0091 7.72389 95.7109 9.46203C99.2781 5.44307 103.774 2.35732 108.807 0.473608C109.918 0.0569257 111.227 -0.280393 112.249 0.34463C112.88 0.804282 113.358 1.44414 113.618 2.18005C115.218 5.68836 116.086 9.48613 116.168 13.3412C116.58 13.2053 117.026 13.2084 117.436 13.35C117.846 13.4915 118.199 13.7637 118.44 14.1249C118.895 14.868 119.155 15.7146 119.194 16.5853C119.353 17.932 119.432 19.287 119.432 20.643C119.567 22.0784 119.191 23.5154 118.37 24.7007C117.16 26.0996 115.087 26.2484 113.241 26.2881C114.134 27.0817 113.698 28.6691 112.715 29.3338C111.662 29.8995 110.461 30.1313 109.273 29.9985C104.689 29.9985 99.8182 29.8299 96.0085 27.2802C94.5005 26.2881 93.2406 24.9388 91.7326 23.9467C88.0321 21.4962 83.389 21.3772 79.113 21.5855C75.2736 21.7939 72.1981 25.048 68.5273 26.2385Z" fill="#FAC269"/>
<path d="M67.6841 25.2264C67.6841 25.2264 29.4683 30.5541 24.1407 53.6601L32.1371 52.4795L37.7623 62.5492C37.7623 62.5492 43.7149 40.0385 61.166 34.701C78.617 29.3635 84.8673 28.4806 84.8673 28.4806C84.8673 28.4806 97.0106 31.4568 107.973 66.6962L114.194 58.1047L125.107 60.4758C125.107 60.4758 117.111 32.9251 95.4827 25.2264H67.6841Z" fill="#FAC269"/>
<path d="M157.814 124.631C157.814 126.922 144.718 124.978 143.299 127.111C142.109 128.887 149.321 138.103 147.268 139.73C145.561 141.08 142.575 142.052 140.323 143.272C138.339 144.334 135.015 143.401 132.694 144.344C130.6 145.197 127.455 143.441 125.084 144.195C122.912 144.889 119.776 141.764 117.395 142.359C115.014 142.955 113.1 143.352 110.709 143.798C108.318 144.244 107.306 151.05 104.905 151.407C102.504 151.765 99.2995 143.679 96.8887 143.947C94.4779 144.215 93.1286 153.511 90.7178 153.679C88.307 153.848 85.9061 152.687 83.5052 152.806C81.1043 152.925 78.763 145.375 76.3622 145.375C73.9613 145.375 71.4016 158.422 69.0305 158.342C66.6594 158.263 64.3676 153.54 62.0362 153.382C59.7048 153.223 57.4329 150.862 55.0915 150.604C52.7501 150.346 51.1231 144.651 48.8611 144.304C46.5991 143.957 44.2181 144.483 41.9164 144.036C39.6147 143.59 35.3685 151.467 33.1363 150.901C30.9041 150.336 29.8921 144.483 27.7095 143.788C25.3483 143.044 24.8721 138.312 22.749 137.458C20.4175 136.466 15.7448 141.625 13.8201 140.564C11.568 139.343 10.1295 137.24 8.42305 135.891C6.34956 134.264 10.4767 128.946 9.2961 127.16C7.86748 125.027 0.506104 126.932 0.506104 124.641C0.684865 122.207 1.57113 119.88 3.05581 117.944C4.24633 116.168 9.54415 119.065 11.6176 117.438C13.3241 116.099 11.4291 109.67 13.6911 108.449C15.6753 107.388 15.3281 100.126 17.6595 99.1832C19.7528 98.33 23.255 99.6 25.5963 98.846C27.7789 98.1515 30.3485 97.3776 32.7295 96.7824C35.1106 96.1871 37.3031 94.4609 39.6742 93.9946C42.0453 93.5283 45.5673 99.7785 47.9682 99.4213C50.3691 99.0642 51.8274 91.673 54.2383 91.4151C56.6491 91.1571 59.8238 100.215 62.2247 100.046C64.6256 99.8777 66.9669 103.469 69.3678 103.39C71.7687 103.31 73.8719 96.9709 76.3125 96.9709C78.7531 96.9709 81.0647 97.6852 83.406 97.7645C85.7474 97.8439 88.555 92.2385 90.8865 92.4072C93.2179 92.5758 95.2319 98.459 97.5534 98.707C99.8749 98.9551 102.593 97.2883 104.885 97.6256C107.177 97.9629 108.466 104.63 110.738 105.076C113.01 105.523 115.471 104.928 117.683 105.483C120.074 106.088 122.763 104.64 124.945 105.324C127.306 106.078 128.358 109.422 130.451 110.285C132.783 111.277 137.743 105.989 139.698 107.051C141.971 108.128 144.16 109.375 146.246 110.781C148.319 112.408 152.198 113.608 153.409 115.394C154.867 117.507 157.814 122.319 157.814 124.631Z" fill="#EDEDF4"/>
<path d="M260 124.631C260 126.922 246.904 124.978 245.486 127.111C244.295 128.887 251.508 138.103 249.454 139.73C247.748 141.08 244.761 142.052 242.509 143.272C240.525 144.334 237.202 143.401 234.88 144.344C232.787 145.197 229.642 143.441 227.271 144.195C225.098 144.889 221.963 141.764 219.582 142.359C217.201 142.955 215.286 143.352 212.895 143.798C210.504 144.244 209.492 151.05 207.091 151.407C204.69 151.765 201.486 143.679 199.075 143.947C196.664 144.215 195.315 153.511 192.904 153.679C190.493 153.848 188.093 152.687 185.692 152.806C183.291 152.925 180.949 145.375 178.549 145.375C176.148 145.375 173.588 158.422 171.217 158.342C168.846 158.263 166.554 153.54 164.223 153.382C161.891 153.223 159.619 150.862 157.278 150.604C154.937 150.346 153.309 144.651 151.047 144.304C148.785 143.957 146.404 144.483 144.103 144.036C141.801 143.59 137.555 151.467 135.323 150.901C133.09 150.336 132.079 144.483 129.896 143.788C127.535 143.044 127.058 138.312 124.935 137.458C122.604 136.466 117.931 141.625 116.006 140.564C113.754 139.343 112.316 137.24 110.609 135.891C108.536 134.264 112.663 128.946 111.483 127.16C110.054 125.027 102.693 126.932 102.693 124.641C102.871 122.207 103.758 119.88 105.242 117.944C106.433 116.168 111.731 119.065 113.804 117.438C115.51 116.099 113.616 109.67 115.878 108.449C117.862 107.388 117.514 100.126 119.846 99.1832C121.939 98.33 125.441 99.6 127.783 98.846C129.965 98.1515 132.535 97.3776 134.916 96.7824C137.297 96.1871 139.49 94.4609 141.861 93.9946C144.232 93.5283 147.754 99.7785 150.155 99.4213C152.555 99.0642 154.014 91.673 156.425 91.4151C158.835 91.1571 162.01 100.215 164.411 100.046C166.812 99.8777 169.153 103.469 171.554 103.39C173.955 103.31 176.058 96.9709 178.499 96.9709C180.939 96.9709 183.251 97.6852 185.592 97.7645C187.934 97.8439 190.741 92.2385 193.073 92.4072C195.404 92.5758 197.418 98.459 199.74 98.707C202.061 98.9551 204.78 97.2883 207.071 97.6256C209.363 97.9629 210.653 104.63 212.925 105.076C215.197 105.523 217.657 104.928 219.87 105.483C222.26 106.088 224.949 104.64 227.132 105.324C229.493 106.078 230.545 109.422 232.638 110.285C234.969 111.277 239.93 105.989 241.884 107.051C244.158 108.128 246.346 109.375 248.432 110.781C250.506 112.408 254.385 113.608 255.595 115.394C257.053 117.507 260 122.319 260 124.631Z" fill="#EDEDF4"/>
<path d="M97.9501 121.655C97.9501 123.589 90.2613 121.427 87.5033 123.074C85.7572 124.066 86.7295 131.556 84.0905 132.429C82.0071 133.114 79.2986 133.322 76.7489 133.878C74.5266 134.364 71.7884 133.421 69.2883 133.788C66.9966 134.126 64.4072 132.737 61.917 132.965C59.5855 133.173 57.1252 130.981 54.6449 131.05C52.1647 131.119 50.0217 131.169 47.5613 131.169C45.1009 131.169 42.6603 135.138 40.3091 135.038C37.9578 134.939 35.8545 129.582 33.533 129.373C31.0329 129.145 28.0665 134.493 25.7847 134.165C23.2648 133.798 20.973 132.608 18.7507 132.131C16.201 131.576 15.2883 126.496 13.2049 125.812C10.5659 124.949 5.05971 131.328 3.28385 130.286C0.525811 128.639 0 123.589 0 121.655C0 119.72 2.65886 118.252 5.42682 116.595C7.163 115.603 10.3873 117.835 13.0064 116.972C15.0898 116.278 16.9253 115.216 19.4849 114.661C21.6973 114.174 23.0961 108.519 25.6061 108.152C27.8979 107.825 30.7055 110.841 33.1957 110.613C35.5271 110.404 37.9974 112.895 40.4678 112.795C42.9381 112.696 45.0711 108.549 47.5315 108.549C49.9919 108.549 52.3829 109.214 54.7441 109.323C57.1053 109.432 59.2284 113.758 61.5598 113.976C64.05 114.194 66.9073 109.641 69.1891 110.008C71.709 110.375 74.0603 111 76.2727 111.496C78.8323 112.051 80.0328 116.139 82.1261 116.823C84.7552 117.686 88.3168 114.899 90.0629 115.94C92.8507 117.548 97.9501 119.72 97.9501 121.655Z" fill="#EDEDF4"/>
<path d="M96.6903 110.613L96.7348 111.111C97.737 111.021 98.805 111.513 100.058 112.114C100.086 112.128 100.115 112.141 100.143 112.155C101.308 112.714 102.632 113.349 103.982 113.295C104.736 113.265 105.426 112.928 106.046 112.502C106.648 112.088 107.234 111.553 107.788 111.048L107.835 111.004C108.416 110.475 108.962 109.98 109.509 109.615C110.056 109.249 110.553 109.049 111.026 109.049C112.215 109.049 113.395 109.21 114.596 109.39C114.717 109.408 114.839 109.426 114.96 109.445C116.033 109.607 117.127 109.772 118.216 109.823C118.659 109.843 119.137 110.066 119.673 110.466C120.206 110.864 120.74 111.395 121.303 111.961L121.366 112.024C121.899 112.56 122.46 113.123 123.031 113.567C123.623 114.026 124.284 114.406 125.008 114.474L125.011 114.474C125.79 114.542 126.546 114.236 127.233 113.826C127.92 113.415 128.608 112.856 129.254 112.331L129.263 112.324C129.926 111.785 130.545 111.283 131.134 110.934C131.73 110.581 132.209 110.438 132.604 110.501L132.612 110.502C134.492 110.776 136.27 111.194 137.989 111.598C138.551 111.73 139.107 111.86 139.658 111.984L139.661 111.984C140.182 112.097 140.659 112.395 141.126 112.832C141.596 113.27 142.028 113.822 142.469 114.411C142.534 114.497 142.599 114.585 142.664 114.673C143.034 115.17 143.416 115.683 143.814 116.118C144.282 116.629 144.821 117.088 145.465 117.299C146.229 117.549 147.035 117.527 147.808 117.396C148.579 117.265 149.359 117.019 150.072 116.791L150.119 116.776C150.831 116.549 151.467 116.346 152.031 116.254C152.61 116.159 153.016 116.2 153.301 116.37L153.308 116.374C153.904 116.717 154.603 117.086 155.325 117.466C155.46 117.537 155.596 117.609 155.732 117.681C156.602 118.141 157.489 118.618 158.287 119.102C159.089 119.589 159.776 120.07 160.258 120.532C160.757 121.012 160.945 121.385 160.945 121.655V121.658C160.945 121.69 160.945 121.719 160.852 121.775C160.727 121.85 160.499 121.92 160.139 121.965C159.424 122.054 158.424 122.02 157.276 121.973L157.108 121.966C156.027 121.921 154.848 121.872 153.767 121.93C152.646 121.99 151.546 122.166 150.746 122.642C150.406 122.837 150.174 123.163 150.008 123.507C149.839 123.857 149.713 124.276 149.612 124.72C149.454 125.408 149.341 126.224 149.228 127.039C149.196 127.268 149.164 127.498 149.132 127.724C148.979 128.779 148.804 129.781 148.517 130.567C148.224 131.368 147.863 131.811 147.428 131.954C146.427 132.283 145.263 132.501 144.008 132.708C143.743 132.752 143.473 132.795 143.201 132.839C142.197 133 141.153 133.168 140.137 133.389L140.137 133.389C139.117 133.612 137.958 133.511 136.668 133.38C136.617 133.375 136.567 133.37 136.516 133.365C135.299 133.241 133.981 133.107 132.71 133.294L132.71 133.294C131.672 133.446 130.544 133.21 129.28 132.929L129.175 132.906C127.977 132.64 126.666 132.348 125.367 132.467C124.348 132.558 123.271 132.124 122.026 131.599C121.991 131.584 121.957 131.57 121.922 131.555C120.759 131.064 119.456 130.513 118.126 130.55C115.647 130.62 113.509 130.669 111.056 130.669C110.309 130.669 109.602 130.969 108.956 131.36C108.317 131.747 107.688 132.256 107.094 132.736L107.075 132.752C106.462 133.247 105.888 133.71 105.326 134.047C104.763 134.384 104.27 134.558 103.825 134.539C103.419 134.522 102.958 134.27 102.418 133.773C101.886 133.283 101.354 132.629 100.794 131.933L100.74 131.866C100.208 131.205 99.6498 130.513 99.0798 129.97C98.4994 129.418 97.8278 128.943 97.0723 128.875C96.2668 128.802 95.4891 129.179 94.797 129.662C94.0955 130.151 93.3914 130.816 92.728 131.443L92.7021 131.468C92.0337 132.1 91.4074 132.693 90.8122 133.114C90.1958 133.551 89.7206 133.723 89.3505 133.67C88.1415 133.494 86.9775 133.119 85.8141 132.717C85.6607 132.664 85.507 132.61 85.3531 132.556C84.3545 132.208 83.3463 131.856 82.351 131.643C81.8669 131.537 81.4209 131.208 80.9783 130.683C80.5353 130.158 80.1374 129.488 79.7326 128.774C79.6784 128.678 79.6239 128.581 79.5692 128.484C79.2252 127.873 78.8707 127.243 78.4922 126.718C78.0584 126.115 77.5325 125.559 76.8556 125.337L76.8549 125.337C75.9892 125.053 74.9869 125.381 74.061 125.847C73.1078 126.326 72.0873 127.032 71.1276 127.707C71.0464 127.764 70.9657 127.821 70.8856 127.877C70.001 128.501 69.1788 129.08 68.4682 129.466C68.0814 129.676 67.7572 129.811 67.497 129.87C67.2369 129.928 67.1026 129.896 67.0328 129.856C65.826 129.134 65.0509 127.621 64.584 125.944C64.1227 124.288 63.9946 122.589 63.9946 121.655C63.9946 120.93 64.4949 120.209 65.4841 119.41C66.3504 118.71 67.4847 118.034 68.7087 117.304C68.8623 117.213 69.0174 117.12 69.1735 117.027C69.4771 116.855 69.8813 116.803 70.4222 116.855C70.9566 116.906 71.5536 117.05 72.2245 117.212L72.2628 117.221L72.2769 117.225C73.594 117.543 75.1941 117.929 76.6576 117.447L76.6592 117.446C77.4447 117.185 78.2026 116.869 78.9558 116.555C79.2207 116.445 79.4849 116.335 79.7497 116.228C80.7783 115.81 81.8466 115.418 83.0856 115.149L83.0868 115.149C83.8173 114.988 84.4119 114.424 84.9074 113.802C85.3661 113.226 85.8038 112.516 86.227 111.83C86.2694 111.761 86.3117 111.693 86.3538 111.625C86.8267 110.86 87.2852 110.139 87.7719 109.586C88.2629 109.028 88.721 108.713 89.1723 108.647C89.6266 108.582 90.1402 108.68 90.7284 108.899C91.3172 109.119 91.9315 109.442 92.5881 109.788L92.5996 109.794C93.2403 110.131 93.9201 110.489 94.5993 110.746C95.2836 111.005 96.0073 111.177 96.736 111.111L96.6903 110.613ZM96.6903 110.613C95.4442 110.727 94.1185 110.029 92.8178 109.344C91.5193 108.66 90.2456 107.989 89.1007 108.152L145.621 116.823C144.653 116.507 143.877 115.464 143.069 114.379C142.128 113.115 141.144 111.795 139.767 111.496C139.226 111.374 138.677 111.245 138.119 111.114C136.395 110.709 134.587 110.285 132.684 110.008C131.545 109.824 130.264 110.866 128.956 111.929C127.643 112.996 126.302 114.085 125.054 113.976C123.907 113.869 122.81 112.767 121.711 111.662C120.576 110.522 119.438 109.378 118.239 109.323C117.178 109.274 116.111 109.113 115.034 108.95C113.715 108.751 112.381 108.549 111.026 108.549C109.783 108.549 108.624 109.607 107.463 110.667C106.325 111.706 105.185 112.746 103.962 112.795C102.737 112.845 101.512 112.257 100.304 111.677C99.076 111.088 97.8656 110.508 96.6903 110.613Z" fill="#EDEDF4" stroke="#E9E9E9"/>
<path d="M235.852 114.709C235.852 116.644 228.163 114.481 225.405 116.128C223.659 117.12 224.631 124.61 221.992 125.484C219.909 126.168 217.201 126.376 214.651 126.932C212.429 127.418 209.69 126.476 207.19 126.843C204.899 127.18 202.309 125.791 199.819 126.019C197.488 126.228 195.027 124.035 192.547 124.104C190.067 124.174 187.924 124.224 185.463 124.224C183.003 124.224 180.562 128.192 178.211 128.093C175.86 127.994 173.756 122.636 171.435 122.428C168.935 122.2 165.968 127.547 163.687 127.22C161.167 126.853 158.875 125.662 156.653 125.186C154.103 124.63 153.19 119.551 151.107 118.866C148.468 118.003 142.962 124.382 141.186 123.341C138.428 121.694 137.902 116.644 137.902 114.709C137.902 112.775 140.561 111.306 143.329 109.65C145.065 108.657 148.289 110.89 150.908 110.027C152.992 109.332 154.827 108.271 157.387 107.715C159.599 107.229 160.998 101.574 163.508 101.207C165.8 100.879 168.608 103.895 171.098 103.667C173.429 103.459 175.899 105.949 178.37 105.85C180.84 105.751 182.973 101.604 185.433 101.604C187.894 101.604 190.285 102.268 192.646 102.377C195.007 102.487 197.13 106.812 199.462 107.03C201.952 107.249 204.809 102.695 207.091 103.062C209.611 103.429 211.962 104.054 214.175 104.55C216.734 105.106 217.935 109.193 220.028 109.878C222.657 110.741 226.219 107.953 227.965 108.995C230.753 110.602 235.852 112.775 235.852 114.709Z" fill="#EDEDF4"/>
</svg>
