<svg xmlns="http://www.w3.org/2000/svg" width="90" height="90" fill="none"  xmlns:v="https://vecta.io/nano"><g clip-path="url(#A)"><g fill="#f7f9f2"><path d="M20.133 31.566c-1.993-1.395-4.74-.911-6.135 1.082l-2.527 3.609c-1.396 1.993-.911 4.74 1.082 6.136l39.182 27.435c1.923-4.207 3.347-8.625 4.242-13.163L20.133 31.566zm35.754 52.625a6.06 6.06 0 0 1-8.436 1.488 6.06 6.06 0 0 1-1.487-8.436 6.06 6.06 0 0 1 8.436-1.487 6.06 6.06 0 0 1 1.488 8.436z"/></g><g fill="#ec665c"><path d="M65.608 20.384c-12.955-9.071-30.81-5.923-39.881 7.032l-3.79 5.413 34.039 23.834c-.895 4.539-2.319 8.957-4.242 13.163l-2.499 5.067c1.764-.523 3.671-.213 5.178.842a5.97 5.97 0 0 1 2.276 3.087l7.641-8.243c3.001-3.246 5.778-6.692 8.311-10.315 9.071-12.955 5.923-30.81-7.032-39.881z"/><path d="M57.062 69.054a52.77 52.77 0 0 1-2.12-8.032c-.831 3.016-1.904 5.961-3.208 8.805l-2.499 5.067c1.764-.523 3.671-.213 5.178.842a5.97 5.97 0 0 1 2.276 3.087l3.102-3.355a54.67 54.67 0 0 1-2.728-6.415z"/></g><path d="M51.898 69.458c1.835-4.098 3.204-8.39 4.078-12.795l-4.359-2.971c-.099 1.566-.459 3.105-1.064 4.552a4.81 4.81 0 0 1-3.477 2.835c-1.754.238-3.439-.849-4.849-1.849L23.542 46.148c-1.761-1.075-3.287-2.492-4.491-4.167-1.96-3.134-1.252-7.505 1.081-10.416.107-.153-1.92-.753-2.133-.794a3.87 3.87 0 0 0-2.121.303 10.4 10.4 0 0 0-3.432 3.674c-1.023 1.462-2.083 3.166-1.726 4.922s1.832 2.721 3.203 3.681l37.819 26.482c.042-.118.106-.248.155-.375z" fill="#b8b9b4"/><path d="M57.524 45.486l.099-1.275-1.964 2.094c-2.024 2.104-5.28 2.416-7.667.735l-13.217-9.254a6.7 6.7 0 0 1-1.74-9.286c5.467-7.795 14.45-12.364 23.97-12.19-11.727-3.334-24.28 1.123-31.278 11.106l-3.79 5.413 34.165 23.923c.799-3.707 1.275-7.477 1.422-11.266z" fill="#ec665c"/><path d="M51.434 85.751a6.06 6.06 0 0 1 1.627-10.733 6.06 6.06 0 0 0-5.597 10.642c1.551 1.092 3.526 1.389 5.329.801-.483-.175-.939-.413-1.359-.71z" fill="#b8b9b4"/><path d="M77.831 43.732c-.042-8.593-3.941-16.713-10.622-22.119-.377 3.151.501 7.598 2.602 12.107 2.204 4.744 5.237 8.4 8.02 10.012z" fill="#fac269"/></g><defs><clipPath id="A"><path fill="#fff" transform="matrix(.819152 .573576 -.573576 .819152 36.7089 0)" d="M0 0h64v64H0z"/></clipPath></defs></svg>