<svg width="256" height="210" viewBox="0 0 256 210" fill="none" xmlns="http://www.w3.org/2000/svg">
<g clip-path="url(#clip0)">
<path opacity="0.1" d="M249.775 121.245C249.775 121.404 249.775 121.563 249.775 121.719C249.747 124.459 249.585 127.192 249.288 129.918C249.289 129.935 249.289 129.951 249.288 129.968C249.265 130.194 249.239 130.418 249.212 130.645C249.168 131.028 249.121 131.408 249.069 131.791C248.462 136.451 247.457 141.051 246.066 145.54C244.202 151.606 241.568 157.408 238.226 162.803C237.199 164.453 236.104 166.05 234.942 167.593C234.322 168.411 233.689 169.211 233.036 169.997C232.577 170.548 232.11 171.089 231.634 171.622L231.337 171.951C228.834 174.699 226.136 177.264 223.263 179.624C218.575 183.51 213.527 186.89 208.399 190.026C208.107 190.206 207.813 190.383 207.519 190.547C207.498 190.562 207.476 190.575 207.454 190.586C200.484 194.8 193.256 198.603 185.81 201.648C177.657 204.99 169.239 207.42 160.603 208.482C148.564 209.962 136.38 208.758 124.415 206.69C114.463 204.98 104.633 202.631 94.9832 199.658L93.3945 199.16C92.5714 198.898 91.7492 198.631 90.9279 198.358C85.9671 196.717 81.0618 194.894 76.2122 192.889C64.0319 187.872 52.3959 181.624 41.4855 174.243C40.0964 173.308 38.7273 172.353 37.3781 171.378C35.4924 170.02 33.6293 168.622 31.7887 167.184L30.6531 166.304C25.8364 162.532 21.3235 158.388 17.1563 153.909C11.5512 147.809 6.76144 140.928 3.61252 133.072C3.11592 131.838 2.66099 130.58 2.24773 129.298L2.20866 129.171C2.0003 128.52 1.80756 127.868 1.63045 127.191C1.36999 126.222 1.14166 125.241 0.945449 124.248C0.903776 124.058 0.867312 123.868 0.833453 123.675C0.210932 120.333 -0.0640119 116.935 0.0130145 113.535C0.078156 110.557 0.427009 107.592 1.05484 104.68C1.69744 101.661 2.68771 98.7271 4.00581 95.9364C5.19698 93.427 6.7147 91.086 8.51952 88.9744C9.78775 87.4981 11.214 86.1653 12.7728 84.9999C15.5987 82.8954 18.732 81.429 21.9799 80.27C23.5062 79.723 25.0533 79.2438 26.6082 78.7984C27.71 78.4806 28.8169 78.1785 29.9186 77.8816L33.1691 77.0039C35.2528 76.4361 37.3364 75.8526 39.3888 75.2223C44.9834 73.5137 50.466 71.4457 55.5371 68.3619C56.3393 67.8748 57.1572 67.3409 57.975 66.7679C59.0168 66.0438 60.043 65.2573 61.0588 64.4082C62.085 63.5487 63.0903 62.6293 64.0488 61.6551C64.1973 61.5041 64.3431 61.353 64.489 61.1993C65.2704 60.3763 66.0283 59.5142 66.7315 58.6182C67.0753 58.1807 67.4087 57.7353 67.7265 57.2821C68.1666 56.6544 68.5834 56.0163 68.9689 55.3599C70.9014 52.0782 72.0943 48.4578 71.9537 44.6421C71.9331 44.0135 71.8766 43.3865 71.7844 42.7642C71.4458 40.4644 71.1202 38.2193 70.8806 36.0236C69.8752 26.9415 70.2998 18.7059 77.1159 10.9677C85.5912 1.34908 98.8927 -0.612157 111.001 0.156189C146.009 2.37007 177.879 22.3575 205.886 46.1528C208.308 48.2087 210.701 50.2923 213.064 52.4037C213.659 52.9351 214.256 53.4699 214.853 54.0082C219.281 57.9957 223.641 62.1318 227.701 66.5621C228.03 66.9216 228.358 67.281 228.681 67.6431C228.879 67.867 229.079 68.0884 229.275 68.315C230.54 69.7475 231.769 71.2148 232.96 72.7167C236.151 76.7041 238.969 80.9762 241.378 85.4791C245.067 92.5458 247.564 100.173 248.77 108.053C249.223 110.914 249.521 113.798 249.663 116.692C249.707 117.544 249.736 118.398 249.752 119.25C249.752 119.523 249.752 119.794 249.752 120.068C249.778 120.464 249.778 120.849 249.775 121.245Z" fill="#3F3474"/>
<path d="M102.615 116.877L98.4473 191.053L102.615 191.107L106.001 115.835L102.615 116.877Z" fill="#3F3D56"/>
<path d="M87.2477 154.458H35.6773V165.658H87.2477V154.458Z" fill="#3F3474"/>
<path d="M90.6336 164.353V171.386H37.3625C35.4768 170.028 33.6136 168.63 31.7731 167.192V164.353H90.6336Z" fill="#3F3D56"/>
<path d="M101.271 148.348C101.125 149.023 100.935 149.69 100.734 150.354C100.143 152.273 99.4318 154.167 99.2938 156.162C99.1088 158.798 99.8147 161.863 97.9915 163.778C97.5227 164.272 96.9106 164.642 96.4913 165.171C96.4267 165.254 96.3675 165.341 96.3141 165.431C95.9391 166.051 95.8948 166.807 95.8896 167.515C95.894 169.026 95.9923 170.535 96.1839 172.034C96.8012 177.191 98.0201 182.359 96.4183 187.226C96.1281 188.071 95.7898 188.898 95.4052 189.703C94.6238 191.422 93.7721 193.118 93.5169 194.98C93.3293 196.361 93.3866 197.783 93.3762 199.187C92.5532 198.924 91.731 198.657 90.9097 198.384C85.9489 196.744 81.0436 194.92 76.1939 192.915C76.2069 192.844 76.2199 192.772 76.2304 192.701C76.6028 190.383 76.0923 188.013 75.4724 185.752C74.1702 180.962 72.3261 176.22 71.2348 171.396C70.7953 169.512 70.507 167.596 70.3727 165.666C70.3414 165.234 70.3232 164.799 70.3206 164.364C70.3076 163.796 70.3206 163.228 70.3441 162.655C70.3987 161.512 70.4482 160.155 69.534 159.459C69.0313 159.082 68.3672 159.016 67.7812 158.787C66.6508 158.347 65.8772 157.326 64.9813 156.508C64.5539 156.094 64.032 155.789 63.4607 155.621C62.8894 155.453 62.2859 155.427 61.7021 155.545C55.847 156.886 51.5443 161.853 46.0956 164.364C45.8846 164.463 45.6736 164.556 45.46 164.645C44.7552 164.903 44.0844 165.246 43.4623 165.666C43.0252 165.969 42.7082 166.416 42.5664 166.929C42.4283 167.481 42.5481 168.059 42.6159 168.627C42.7255 169.55 42.6859 170.485 42.4987 171.396C42.428 171.749 42.3349 172.097 42.22 172.438C42.0116 173.055 41.7329 173.659 41.4673 174.261C40.0782 173.327 38.709 172.372 37.3599 171.396C35.4741 170.038 33.611 168.64 31.7705 167.203L30.6531 166.304C25.8364 162.532 21.3235 158.388 17.1562 153.909C17.711 152.346 18.5132 150.893 18.8987 149.291C19.1175 148.372 19.1982 147.416 19.5004 146.522C19.8488 145.596 20.3333 144.727 20.9381 143.944C23.1529 140.855 25.8573 138.149 28.9445 135.932C32.1716 133.619 35.8987 131.765 38.8028 129.139C39.9813 128.108 40.9973 126.904 41.8163 125.569C41.8657 125.488 41.9126 125.402 41.9543 125.308C42.181 124.837 42.338 124.335 42.4205 123.818C42.6289 122.652 42.5976 121.37 42.7018 120.25C46.2396 120.863 49.8462 120.971 53.4144 120.573C57.5687 120.107 61.6318 118.953 65.7861 118.505C66.0986 118.469 66.4138 118.44 66.7289 118.414C68.0598 118.307 69.3934 118.284 70.7295 118.299C71.8469 118.299 72.9642 118.349 74.0816 118.385L86.3829 118.802C87.7451 118.849 89.136 118.901 90.4044 119.398C91.9098 119.99 93.1157 121.167 94.082 122.461C94.2045 122.628 94.3269 122.795 94.4415 122.967C95.2366 124.127 95.8742 125.387 96.3376 126.715C96.3871 126.85 96.434 126.975 96.4782 127.124C96.5954 127.486 96.697 127.85 96.7882 128.22C96.8585 128.509 96.921 128.798 96.9783 129.09C97.2648 130.533 97.4341 132.007 97.8873 133.401C97.9186 133.502 97.9524 133.604 97.9889 133.703C98.5332 135.229 99.437 136.596 100.119 138.063C100.611 139.124 100.987 140.236 101.239 141.378C101.75 143.672 101.76 146.05 101.271 148.348Z" fill="#35323E"/>
<path d="M63.8795 55.1386C62.7804 54.2635 61.1864 54.9042 59.8997 55.4694C58.821 55.9458 57.7105 56.347 56.5763 56.6701C56.3442 56.7594 56.0925 56.7855 55.847 56.7456C55.3261 56.6206 55.1073 56.0033 54.7193 55.6283C54.0447 54.9797 52.9403 55.1334 52.0704 55.485C51.2005 55.8366 50.341 56.3445 49.4086 56.2664C48.4136 56.1882 47.5489 55.4538 46.5435 55.4303C44.7724 55.3886 43.2852 57.5713 41.6105 56.9931C40.5895 56.6414 39.7873 55.3131 38.7819 55.6908C38.0006 55.9877 37.9302 57.0686 37.4588 57.7744C36.904 58.5975 35.8232 58.8293 34.8985 59.1939C31.984 60.3451 30.054 63.593 30.4343 66.7029C30.6453 68.4193 31.4761 69.9924 32.0257 71.6307C33.6562 76.3945 33.0962 81.7677 35.1512 86.3621C35.4116 86.1173 35.5575 86.0261 35.8101 85.7839C35.1604 87.1315 35.035 88.6726 35.4585 90.1075C35.6747 90.829 36.0263 91.5009 36.292 92.2068C36.5679 92.9984 36.7907 93.8076 36.9587 94.629L39.2247 104.625C40.1103 108.532 40.9984 112.439 41.1521 116.44C41.2478 119.041 41.0485 121.645 40.5582 124.201C44.663 123.521 48.4188 121.701 52.5783 121.724C54.1046 121.724 55.6178 121.985 57.1311 122.193C61.543 122.811 65.9933 123.113 70.4482 123.097C71.1411 123.136 71.8349 123.039 72.4902 122.81C73.0632 122.566 73.532 122.131 74.0738 121.815C75.1338 121.19 76.4179 121.034 77.6394 121.034C83.2106 120.933 88.5786 122.972 94.1133 123.691C96.2985 119.104 96.4288 113.608 94.7514 108.813C94.2539 107.389 93.5846 106.001 93.3866 104.503C93.3071 103.582 93.2863 102.658 93.3241 101.734C93.3154 99.3706 92.8896 97.027 92.0661 94.8113C91.7431 93.944 91.3551 93.0611 91.3889 92.1364C91.4228 91.2118 91.8786 90.3497 92.3266 89.5319C93.2356 87.865 94.1498 86.1824 95.4338 84.7759C96.7491 83.3226 98.3952 82.2157 100.023 81.1296L104.042 78.4312C103.492 74.9593 102.784 71.3025 101.312 68.1093C99.8407 64.9161 97.6399 61.9808 94.6629 60.1133C93.6592 59.5095 92.6088 58.9869 91.5218 58.5506C90.0007 57.9099 88.4171 57.3447 86.7684 57.2483C84.8931 57.1415 83.0465 57.6442 81.1947 57.9567C75.3656 58.9387 68.5052 58.8189 63.8795 55.1386Z" fill="#3F3474"/>
<path d="M107.824 115.387L105.912 117.802L102.307 122.352L98.14 127.61L96.9757 129.079H94.7176L38.8002 129.145L3.78182 129.184H2.21908C2.01072 128.533 1.81798 127.881 1.64087 127.204C1.38041 126.235 1.15208 125.254 0.955868 124.261C0.914195 124.071 0.877731 123.881 0.843872 123.688L13.5489 115.382L18.3257 115.356L32.9373 115.273L41.0974 115.226H42.5872H43.5223L48.9606 115.197L90.4096 114.96L92.5297 114.947H93.4491L95.8844 114.934L104.946 114.882L106.686 114.22L106.813 114.356L107.824 115.387Z" fill="#3F3D56"/>
<path d="M107.042 114.085L106.826 114.346L105.404 116.02L102.477 119.477L96.3376 126.715L41.9543 125.326L0.945449 124.285C0.903776 124.094 0.867312 123.904 0.833453 123.712C0.210932 120.369 -0.0640119 116.971 0.0130145 113.572L4.56058 111.244L5.60241 110.707L13.7104 106.54L20.8261 102.893L39.3862 105.305L43.4962 105.839L45.3559 106.079L48.0776 106.433L48.3068 106.464L90.9878 111.999L95.7047 112.611L98.4733 112.97L107.006 114.08L107.042 114.085Z" fill="#504F60"/>
<path d="M98.1869 126.587L98.1426 127.611L97.8821 133.39L96.4809 165.166L96.184 172.034L95.4026 189.704L94.9624 199.684L93.3736 199.187C92.5506 198.925 91.7284 198.657 90.9071 198.385L94.7176 129.103L94.7983 127.65L96.4757 127.129L98.1869 126.587Z" fill="#3F3D56"/>
<path d="M3.90161 126.511L3.78441 129.186L3.61251 133.093C3.1159 131.859 2.66097 130.601 2.24771 129.319L2.20865 129.192C2.00028 128.54 1.80754 127.889 1.63043 127.212L3.90161 126.511Z" fill="#3F3D56"/>
<path d="M72.011 87.1303C78.6279 87.1303 83.992 79.9005 83.992 70.982C83.992 62.0636 78.6279 54.8337 72.011 54.8337C65.3941 54.8337 60.03 62.0636 60.03 70.982C60.03 79.9005 65.3941 87.1303 72.011 87.1303Z" fill="#A1616A"/>
<path opacity="0.1" d="M72.011 87.1303C78.6279 87.1303 83.992 79.9005 83.992 70.982C83.992 62.0636 78.6279 54.8337 72.011 54.8337C65.3941 54.8337 60.03 62.0636 60.03 70.982C60.03 79.9005 65.3941 87.1303 72.011 87.1303Z" fill="#464655"/>
<path d="M73.7039 77.8843C82.9101 77.8843 90.3732 70.4213 90.3732 61.2151C90.3732 52.009 82.9101 44.5459 73.7039 44.5459C64.4978 44.5459 57.0347 52.009 57.0347 61.2151C57.0347 70.4213 64.4978 77.8843 73.7039 77.8843Z" fill="#A1616A"/>
<path d="M74.0348 35.5236C73.0171 35.6047 72.0065 35.7588 71.0109 35.9846C68.3751 36.6253 66.0961 38.0474 63.877 39.4434C62.882 40.0711 61.8584 40.7249 61.2412 41.6469C60.1316 43.3008 60.5614 45.4053 59.9389 47.2415C59.6159 48.1843 59.0221 49.0308 58.5194 49.9086C57.1364 52.3152 56.4123 54.9588 55.7013 57.5764C55.5554 58.1181 55.5137 58.8526 56.105 59.061C56.4454 59.1317 56.7996 59.0915 57.1155 58.9464C58.983 58.3291 61.3558 58.152 62.7414 59.4048C64.127 60.6576 64.0098 62.8793 65.6585 63.8326C67.5468 64.9343 70.4952 63.6034 72.209 64.903C72.9435 65.4604 73.2091 66.3538 73.8108 67.0258C75.212 68.5885 77.9078 68.513 80.1503 68.1978C81.4369 68.0155 83.0153 67.8931 83.7967 68.7969C84.1717 69.224 84.2785 69.81 84.7135 70.1955C85.4948 70.8935 86.9248 70.5393 87.6879 69.8231C88.451 69.1068 88.8157 68.1379 89.4512 67.3331C90.6883 65.7704 92.8632 64.9187 94.1394 63.3742C95.2073 62.0719 95.5302 60.4414 95.8219 58.8683L96.908 53.0366C97.3482 50.6717 97.7493 48.088 96.4184 46.0043C95.9444 45.2542 95.2646 44.6083 94.8556 43.8321C94.5822 43.3112 94.4285 42.7616 94.1107 42.2694C93.7339 41.7566 93.2837 41.302 92.7746 40.9202L90.2039 38.7923C89.325 38.0229 88.3851 37.3261 87.3936 36.7086C83.7237 34.5703 78.2281 35.1329 74.0348 35.5236Z" fill="#464353"/>
<path d="M19.1305 78.4625C18.5132 79.1189 17.9428 79.8273 17.2813 80.442C16.6993 80.9596 16.0908 81.4464 15.4581 81.9006C14.4371 82.6646 13.4387 83.4555 12.4628 84.2733C11.4447 85.0782 10.5235 85.9986 9.71762 87.0159C8.32678 88.8834 7.66783 91.2067 6.36555 93.1366C5.21433 94.8478 3.59168 96.1996 2.42223 97.8978C1.90919 98.6118 1.52813 99.4118 1.29706 100.26C1.12459 101.081 1.04681 101.919 1.06526 102.758C1.04182 104.133 1.02098 105.524 1.30227 106.871C1.58357 108.217 2.20085 109.54 3.2583 110.423C4.24022 111.244 5.50864 111.621 6.75102 111.934C7.39174 112.093 8.08456 112.241 8.69402 111.988C9.14 111.763 9.5271 111.437 9.82441 111.035L12.9942 107.389C15.1143 104.941 17.3177 102.44 20.227 101.008C21.1386 100.562 22.0997 100.226 23.0139 99.7939C26.8895 97.9264 29.6295 94.1029 30.6922 89.9356C30.9526 88.9173 31.1193 87.878 31.2886 86.8388L31.747 83.9894C31.7822 83.8466 31.7822 83.6973 31.747 83.5545C31.6752 83.3938 31.5597 83.2566 31.4136 83.1586C29.2058 81.3755 27.1386 79.425 25.2304 77.3243C24.7772 76.8243 24.3527 76.1393 23.8291 75.7199C23.1728 75.199 23.2223 75.2381 22.4331 75.7199C21.2191 76.4886 20.1091 77.4104 19.1305 78.4625Z" fill="#A1616A"/>
<path d="M40.8135 97.4237C40.7872 97.3632 40.7489 97.3087 40.7009 97.2634C40.6529 97.218 40.5963 97.1829 40.5344 97.16C40.4725 97.1371 40.4066 97.127 40.3407 97.1302C40.2748 97.1334 40.2102 97.15 40.1509 97.1788C40.0915 97.2076 40.0386 97.2481 39.9953 97.2978C39.9519 97.3476 39.9191 97.4056 39.8988 97.4684C39.8785 97.5312 39.871 97.5974 39.8769 97.6632C39.8828 97.7289 39.902 97.7927 39.9332 97.8509L39.6727 97.9785L47.4395 113.898L48.8434 113.213L41.0766 97.2831L40.8135 97.4237Z" fill="#3F3D56"/>
<path opacity="0.04" d="M19.1305 78.4625C18.5132 79.1189 17.9428 79.8273 17.2813 80.442C16.6993 80.9596 16.0908 81.4464 15.4581 81.9006C14.4371 82.6646 13.4387 83.4555 12.4628 84.2733C11.4447 85.0782 10.5235 85.9986 9.71762 87.0159C8.32678 88.8834 7.66783 91.2067 6.36555 93.1366C5.21433 94.8478 3.59168 96.1996 2.42223 97.8978C1.90919 98.6118 1.52813 99.4118 1.29706 100.26C1.12459 101.081 1.04681 101.919 1.06526 102.758C1.04182 104.133 1.02098 105.524 1.30227 106.871C1.58357 108.217 2.20085 109.54 3.2583 110.423C4.24022 111.244 5.50864 111.621 6.75102 111.934C7.39174 112.093 8.08456 112.241 8.69402 111.988C9.14 111.763 9.5271 111.437 9.82441 111.035L12.9942 107.389C15.1143 104.941 17.3177 102.44 20.227 101.008C21.1386 100.562 22.0997 100.226 23.0139 99.7939C26.8895 97.9264 29.6295 94.1029 30.6922 89.9356C30.9526 88.9173 31.1193 87.878 31.2886 86.8388L31.747 83.9894C31.7822 83.8466 31.7822 83.6973 31.747 83.5545C31.6752 83.3938 31.5597 83.2566 31.4136 83.1586C29.2058 81.3755 27.1386 79.425 25.2304 77.3243C24.7772 76.8243 24.3527 76.1393 23.8291 75.7199C23.1728 75.199 23.2223 75.2381 22.4331 75.7199C21.2191 76.4886 20.1091 77.4104 19.1305 78.4625Z" fill="#464655"/>
<path d="M108.92 107.8C108.894 109.462 108.829 111.173 108.139 112.689C107.842 113.346 107.381 113.991 106.691 114.208C106.273 114.304 105.841 114.32 105.417 114.255C100.307 113.805 95.1582 114.214 90.183 115.463C91.5114 112.806 90.7482 109.621 91.1155 106.673C91.2171 105.868 91.402 105.076 91.4723 104.269C91.7328 101.404 90.506 98.6219 89.9434 95.7934C89.4551 93.3449 89.4551 90.8241 89.9434 88.3756C90.0392 87.7453 90.2559 87.1395 90.5815 86.5915C90.963 86.0582 91.4644 85.6219 92.0453 85.3178C94.155 84.1171 96.6424 83.9791 99.0125 84.1379C100.609 84.2447 103.81 84.0937 105.141 85.0756C106.597 86.1513 107.058 89.7638 107.451 91.4333C108.04 93.9939 108.441 96.5941 108.649 99.2132C108.905 102.068 108.959 104.935 108.92 107.8Z" fill="#A1616A"/>
<path d="M15.6222 113.567L24.9986 119.818L67.1925 118.255L39.3237 113.567H15.6222Z" fill="white"/>
<path d="M27.986 63.9004C26.4467 65.2573 25.1418 66.8565 23.6833 68.3021C21.683 70.2868 19.4092 71.9745 17.1458 73.6545C17.9573 73.8813 18.696 74.315 19.2896 74.9131C19.8831 75.5112 20.3111 76.2532 20.5317 77.0664C20.6307 77.4493 20.6802 77.8478 20.7922 78.2229C21.0527 79.111 21.6257 79.8768 22.2403 80.567C24.8814 83.544 28.5772 85.7475 30.1348 89.4225C30.1856 89.6013 30.2958 89.7575 30.4473 89.8653C30.5741 89.9214 30.7148 89.9377 30.851 89.9122C32.2601 89.7637 33.3384 88.6281 34.237 87.5238C36.1123 85.1797 37.7401 82.5907 38.6647 79.7309C39.5893 76.8711 39.7378 73.7092 38.7298 70.8754C38.2272 69.4637 37.451 68.1666 36.68 66.8826C36.0046 65.7592 35.3309 64.6375 34.6589 63.5175C34.3073 62.9263 33.8593 61.7255 33.1691 61.4338C31.6793 60.7931 28.9419 62.9445 27.986 63.9004Z" fill="#3F3474"/>
<path d="M104.701 80.7336L106.917 85.9428C104.504 85.0997 101.926 84.843 99.3938 85.194C96.8621 85.545 94.4503 86.4936 92.3578 87.9613C91.0946 88.8651 89.9356 90.0007 89.3652 91.4436C89.0836 91.4971 88.7927 91.47 88.5259 91.3654C88.2591 91.2608 88.0273 91.083 87.8571 90.8524C87.5237 90.3847 87.3304 89.8319 87.2997 89.2584C87.094 87.2581 87.8519 85.2968 88.602 83.4268C88.951 82.5516 89.3105 81.6583 89.9303 80.9472C90.5502 80.2362 91.3733 79.7674 92.1963 79.3246C94.8221 77.8724 97.5721 76.6573 100.414 75.6938C101.612 75.3057 102.867 75.3136 103.539 76.4335C104.318 77.7697 104.091 79.3116 104.701 80.7336Z" fill="#3F3474"/>
<path d="M15.6768 96.3637C16.2316 96.8065 16.7187 97.33 17.2891 97.7519C17.8923 98.1708 18.5342 98.531 19.206 98.8276L21.7741 100.062C22.5699 100.476 23.4027 100.814 24.2615 101.073C25.3606 101.367 26.5144 101.396 27.6188 101.669C29.0122 102.013 30.2858 102.729 31.6585 103.143C33.0311 103.557 34.6381 103.625 35.7841 102.763C36.5003 102.224 37.0421 101.333 37.9302 101.2C38.5032 101.125 39.0554 101.401 39.5659 101.669L46.2492 105.183C47.1504 105.657 48.1037 106.183 48.5751 107.087C49.0465 107.99 48.7288 109.363 47.7364 109.597C47.3906 109.637 47.0427 109.657 46.6946 109.657C46.3508 109.699 45.9757 109.902 45.9289 110.249C45.9271 110.464 45.9838 110.675 46.0929 110.861C46.3925 111.548 46.481 112.371 46.132 113.038C45.783 113.705 44.9261 114.119 44.2411 113.819C44.3583 114.827 43.2618 115.533 42.2851 115.802C39.8212 116.476 37.2088 116.062 34.6902 115.635C33.7004 115.468 32.6951 115.296 31.7939 114.853C31.3615 114.643 30.9604 114.372 30.5229 114.176C29.3222 113.642 27.9574 113.713 26.6447 113.736C20.5734 113.843 14.5543 112.718 8.58462 111.598C7.47768 111.389 6.33948 111.168 5.39403 110.556C3.57083 109.368 2.89365 106.93 3.19317 104.774C3.4927 102.617 4.58661 100.664 5.6623 98.7677L7.05574 96.3116C7.2379 95.9353 7.49285 95.5989 7.80586 95.3219C9.85565 93.7565 13.9214 94.952 15.6768 96.3637Z" fill="#A1616A"/>
<path opacity="0.04" d="M15.6768 96.3637C16.2316 96.8065 16.7187 97.33 17.2891 97.7519C17.8923 98.1708 18.5342 98.531 19.206 98.8276L21.7741 100.062C22.5699 100.476 23.4027 100.814 24.2615 101.073C25.3606 101.367 26.5144 101.396 27.6188 101.669C29.0122 102.013 30.2858 102.729 31.6585 103.143C33.0311 103.557 34.6381 103.625 35.7841 102.763C36.5003 102.224 37.0421 101.333 37.9302 101.2C38.5032 101.125 39.0554 101.401 39.5659 101.669L46.2492 105.183C47.1504 105.657 48.1037 106.183 48.5751 107.087C49.0465 107.99 48.7288 109.363 47.7364 109.597C47.3906 109.637 47.0427 109.657 46.6946 109.657C46.3508 109.699 45.9757 109.902 45.9289 110.249C45.9271 110.464 45.9838 110.675 46.0929 110.861C46.3925 111.548 46.481 112.371 46.132 113.038C45.783 113.705 44.9261 114.119 44.2411 113.819C44.3583 114.827 43.2618 115.533 42.2851 115.802C39.8212 116.476 37.2088 116.062 34.6902 115.635C33.7004 115.468 32.6951 115.296 31.7939 114.853C31.3615 114.643 30.9604 114.372 30.5229 114.176C29.3222 113.642 27.9574 113.713 26.6447 113.736C20.5734 113.843 14.5543 112.718 8.58462 111.598C7.47768 111.389 6.33948 111.168 5.39403 110.556C3.57083 109.368 2.89365 106.93 3.19317 104.774C3.4927 102.617 4.58661 100.664 5.6623 98.7677L7.05574 96.3116C7.2379 95.9353 7.49285 95.5989 7.80586 95.3219C9.85565 93.7565 13.9214 94.952 15.6768 96.3637Z" fill="#464655"/>
<path d="M95.1838 100.864C93.8268 101.505 92.2693 101.568 90.8524 102.06C89.4355 102.552 88.2322 103.438 86.9325 104.159C83.5466 106.05 79.6397 106.764 75.8032 107.443C73.4773 107.86 71.115 108.277 68.7709 108.178C65.5985 108.042 62.5512 106.985 59.4778 106.188C56.4044 105.391 53.1253 104.855 50.0805 105.75C48.4906 106.235 47.0371 107.087 45.8379 108.237C44.6387 109.388 43.7276 110.805 43.1784 112.374C42.5403 114.247 42.4518 116.265 42.5742 118.239C43.2149 118.711 44.1109 118.057 44.4599 117.341C44.8089 116.625 44.999 115.747 45.6762 115.33C46.8509 115.729 47.1374 117.294 48.1063 118.067C48.7105 118.552 49.5179 118.68 50.2863 118.789L54.2452 119.352C55.1985 119.487 56.3054 119.578 56.9956 118.906C57.3316 118.581 57.5166 118.125 57.8239 117.776C58.4542 117.078 59.5064 116.958 60.4441 117.052C63.3716 117.343 66.1168 119.242 69.0235 118.792C70.0237 118.638 70.9535 118.211 71.9068 117.875C77.5561 115.88 83.8331 117.093 89.7116 115.95C91.9541 115.515 94.1133 114.744 96.2464 113.931C97.4055 113.491 98.5775 113.03 99.5673 112.285C100.505 111.564 101.244 110.617 101.716 109.533C102.188 108.448 102.377 107.261 102.266 106.084C102.048 104.289 101.152 102.646 99.7626 101.489C99.3042 101.099 98.7025 100.351 98.153 100.106C97.1033 99.6454 96.0745 100.445 95.1838 100.864Z" fill="#A1616A"/>
<g opacity="0.1">
<path opacity="0.1" d="M87.5733 67.591C87.1383 67.2055 87.0315 66.6195 86.6565 66.1923C85.8751 65.2885 84.2967 65.4109 83.0101 65.5933C80.7675 65.9084 78.0614 65.9813 76.6706 64.4212C76.0689 63.7492 75.8032 62.8585 75.0688 62.2985C73.3549 60.9962 70.4066 62.3297 68.5183 61.228C66.8696 60.2669 66.9764 58.0374 65.6012 56.8003C64.226 55.5631 61.8428 55.7246 59.9753 56.3418C59.6593 56.487 59.3052 56.5272 58.9647 56.4564C58.3735 56.2481 58.4152 55.5136 58.561 54.9718C59.2721 52.3543 59.9961 49.7106 61.3792 47.304C61.8818 46.4263 62.4757 45.5798 62.7987 44.6369C63.3638 42.9856 63.0747 41.1182 63.817 39.5554C63.02 40.0763 62.2543 40.6441 61.762 41.3786C60.6525 43.0325 61.0822 45.137 60.4597 46.9732C60.1368 47.9161 59.5429 48.7626 59.0403 49.6403C57.6572 52.0469 56.9332 54.6905 56.2221 57.3081C56.0763 57.8499 56.0346 58.5844 56.6258 58.7927C56.9663 58.8635 57.3204 58.8233 57.6364 58.6781C59.5039 58.0609 61.8766 57.8838 63.2623 59.1365C64.6479 60.3893 64.5307 62.611 66.1794 63.5643C68.0677 64.666 71.0161 63.3351 72.7299 64.6348C73.4643 65.1922 73.73 66.0855 74.3317 66.7575C75.7329 68.3202 78.4286 68.2447 80.6712 67.9296C81.9578 67.7472 83.5362 67.6248 84.3176 68.5286C84.6926 68.9558 84.7994 69.5418 85.2344 69.9273C86.0157 70.6253 87.4456 70.2711 88.2088 69.5548C88.6981 69.0453 89.1168 68.4723 89.4538 67.8514C88.7766 68.0572 88.0551 68.0259 87.5733 67.591Z" fill="#464655"/>
<path opacity="0.1" d="M92.3188 64.7258C92.151 64.9418 91.9954 65.167 91.8525 65.4004C92.8527 64.6867 93.9128 64.0199 94.6603 63.1109C94.8543 62.8757 95.0285 62.6248 95.1812 62.3608C94.142 63.1057 93.0585 63.7907 92.3188 64.7258Z" fill="#464655"/>
</g>
<path d="M144.939 116.302L145.72 191.052L149.367 190.532L148.585 116.302H144.939Z" fill="#3F3D56"/>
<path d="M166.817 129.845L167.599 204.596L171.245 204.075L170.464 129.845H166.817Z" fill="#3F3D56"/>
<path d="M234.934 167.606L234.919 166.171V165.317L234.781 152.169L234.564 131.614L234.528 129.84H230.882L230.9 131.549L231.014 142.558L231.064 147.325L231.106 151.184L231.173 157.857L231.215 161.793V162.21L231.27 167.382L231.317 171.943L231.613 171.615C232.091 171.082 232.558 170.54 233.015 169.989L234.934 167.606Z" fill="#3F3D56"/>
<path d="M162.78 141.957L160.696 145.072L162.78 159.264L180.491 164.111H209.141L226.331 165.15L234.52 159.545L233.103 149.919L226.852 141.957H162.78Z" fill="#3F3474"/>
<path d="M160.696 145.072L159.655 153.724C159.655 153.724 154.185 170.687 198.202 169.648C242.219 168.609 234.666 165.148 234.666 165.148L234.406 155.11C234.406 155.11 235.94 159.86 213.569 159.217C191.199 158.574 170.333 156.495 170.333 156.495C170.333 156.495 162.52 157.878 160.696 145.072Z" fill="#3F3D56"/>
<path d="M197.369 67.5182C194.858 68.6616 192.956 70.8781 191.683 73.329C190.409 75.7799 189.693 78.4704 188.987 81.1427C188.242 83.9608 187.495 86.7868 187.109 89.6752C186.422 94.8114 186.937 100.211 189.297 104.823C191.657 109.436 196.017 113.158 201.122 114.046C203.093 114.393 205.12 114.322 207.112 114.116C210.714 113.735 214.261 112.953 217.689 111.785C221.271 110.574 224.998 108.709 226.592 105.274C227.516 103.281 227.595 101.01 227.55 98.8173C227.427 92.84 226.525 86.9044 224.865 81.1609C224.383 79.494 223.823 77.814 222.802 76.4102C221.781 75.0063 220.385 73.9775 218.96 73.0242C212.868 68.922 204.862 64.1114 197.369 67.5182Z" fill="#FBBEBE"/>
<path opacity="0.05" d="M197.369 67.5182C194.858 68.6616 192.956 70.8781 191.683 73.329C190.409 75.7799 189.693 78.4704 188.987 81.1427C188.242 83.9608 187.495 86.7868 187.109 89.6752C186.422 94.8114 186.937 100.211 189.297 104.823C191.657 109.436 196.017 113.158 201.122 114.046C203.093 114.393 205.12 114.322 207.112 114.116C210.714 113.735 214.261 112.953 217.689 111.785C221.271 110.574 224.998 108.709 226.592 105.274C227.516 103.281 227.595 101.01 227.55 98.8173C227.427 92.84 226.525 86.9044 224.865 81.1609C224.383 79.494 223.823 77.814 222.802 76.4102C221.781 75.0063 220.385 73.9775 218.96 73.0242C212.868 68.922 204.862 64.1114 197.369 67.5182Z" fill="#464655"/>
<path d="M194.548 100.302C195.275 101.301 196.154 102.179 197.152 102.906C199.632 104.62 202.815 104.852 205.826 104.946C208.243 105.018 211.014 104.88 212.53 102.995C213.212 102.146 213.52 101.062 213.796 100.007C215.499 93.5299 216.71 86.9328 217.416 80.2725L224.313 80.2959C227.298 93.0765 227.053 106.362 226.792 119.487L226.415 138.625L221.971 138.154C211.42 137.036 200.854 135.919 190.245 135.726C184.029 135.612 177.812 135.817 171.617 136.341L181.293 107.571C182.549 103.831 183.817 100.041 184.111 96.1108C184.536 90.4094 182.937 84.3903 185.153 79.116C185.33 78.6915 185.554 78.2513 185.958 78.0299C186.362 77.8085 186.872 77.8632 187.336 77.9231C188.211 78.0404 190.886 77.9231 191.521 78.4831C192.459 79.2957 191.839 79.4182 191.508 80.7283C190.917 83.0724 190.357 85.242 190.365 87.685C190.373 92.1206 191.748 96.8036 194.548 100.302Z" fill="#3F3474"/>
<path d="M234.934 167.606C236.096 166.064 237.191 164.468 238.219 162.816C237.698 161.702 237.125 160.613 236.669 159.475C235.971 157.73 235.57 155.881 235.174 154.044C235.038 153.419 234.904 152.794 234.77 152.169C233.312 145.369 231.942 138.472 231.658 131.577C231.632 131.004 231.615 130.431 231.608 129.858C231.608 129.775 231.608 129.694 231.608 129.598C231.608 128.97 231.608 128.342 231.608 127.717C231.64 126.155 231.738 124.579 231.918 123.011C231.952 122.704 231.991 122.396 232.033 122.089C232.033 122.021 232.048 121.956 232.059 121.888L249.77 121.242L251.26 121.188C252.283 121.151 253.367 121.094 254.211 120.513C255.63 119.539 255.797 117.541 255.773 115.825C255.687 111.487 255.195 107.166 254.304 102.919C253.632 99.7262 252.674 96.4626 250.523 94.0091C248.757 91.9932 246.199 90.5268 245.28 88.0186C244.938 87.0862 244.852 86.0626 244.41 85.1718C243.967 84.2811 243.235 83.6273 242.545 82.9397C240.116 80.5327 238.1 77.7413 236.58 74.6781C235.526 72.5527 234.382 70.2086 233.004 68.7396C232.937 68.6641 232.869 68.5938 232.799 68.5261C231.626 67.367 230.285 66.8592 228.696 67.6483C228.411 67.7917 228.139 67.9608 227.884 68.1536C227.318 68.5863 226.8 69.0788 226.339 69.6226C224.734 71.4679 223.326 73.4756 222.138 75.6131C221.303 77.118 220.585 78.6854 219.992 80.3013C219.524 81.5779 219.137 82.8828 218.833 84.2082C218.609 85.1901 218.432 86.1824 218.291 87.1774C217.77 90.9175 217.77 94.7306 217.843 98.5176C217.921 101.997 218.075 105.485 218.39 108.952C218.468 109.79 218.555 110.628 218.651 111.465C218.842 113.12 219.078 114.769 219.359 116.414C219.471 117.041 219.586 117.669 219.713 118.294C219.744 118.461 219.778 118.627 219.812 118.792L219.828 118.862C220.172 120.315 220.439 121.785 220.627 123.266C220.648 123.452 220.664 123.637 220.674 123.821C220.718 124.672 220.711 125.526 220.653 126.376C220.594 127.381 220.5 128.384 220.453 129.39C220.453 129.567 220.453 129.741 220.435 129.91C220.422 130.418 220.435 130.926 220.435 131.434C220.488 132.649 220.632 133.859 220.867 135.052C221.306 137.271 222.065 139.416 223.12 141.417C223.219 141.605 223.321 141.79 223.422 141.972C224.743 144.332 226.41 146.496 227.631 148.911C228.685 151.083 229.472 153.376 229.975 155.737C230.149 156.517 230.314 157.298 230.47 158.081C230.712 159.332 230.928 160.592 231.15 161.853C231.171 161.978 231.194 162.113 231.218 162.228C231.512 163.9 231.822 165.564 232.22 167.197C232.452 168.148 232.713 169.086 233.017 170.008L234.934 167.606Z" fill="#464353"/>
<path d="M231.455 147.077C231.455 147.311 231.439 147.546 231.429 147.783C231.382 148.926 231.277 150.065 231.113 151.197C230.898 152.743 230.52 154.261 229.986 155.727C229.632 156.691 229.181 157.617 228.642 158.49C228.163 159.266 227.602 159.988 226.97 160.644C225.407 162.269 223.156 162.788 220.979 163.473C219.977 163.763 219.009 164.158 218.091 164.653C217.927 164.744 217.765 164.843 217.609 164.947L214.884 166.752C214.035 167.312 213.168 167.893 212.585 168.724C212.489 168.865 212.402 169.012 212.324 169.164C211.955 169.929 211.686 170.737 211.522 171.57C210.105 177.472 208.686 183.379 207.714 189.37C207.649 189.766 207.586 190.164 207.519 190.563L207.495 190.688C207.483 190.658 207.47 190.629 207.454 190.602C200.484 194.816 193.256 198.619 185.81 201.663L184.192 188.12C184.024 187.019 183.968 185.903 184.026 184.791C184.179 183.038 184.893 181.377 185.086 179.629C185.268 177.918 184.945 176.191 184.156 174.662C183.848 174.068 183.463 173.485 183.393 172.821C183.322 172.156 183.705 171.55 184.372 171.482C184.893 170.904 184.935 170.114 184.781 169.333C184.699 168.925 184.577 168.526 184.416 168.143C183.973 167.054 183.413 165.869 183.794 164.757C183.894 164.555 183.939 164.33 183.924 164.106C183.927 164.092 183.927 164.078 183.924 164.064C183.835 163.772 183.489 163.645 183.309 163.397C182.971 162.936 183.309 162.309 183.518 161.777C183.72 161.206 183.838 160.609 183.867 160.003C183.895 159.667 183.916 159.329 183.953 158.996C184.003 158.544 184.084 158.097 184.195 157.657C184.828 155.162 186.349 152.983 188.474 151.531C189.487 150.848 190.615 150.351 191.649 149.708C192.708 148.994 193.719 148.211 194.676 147.364C196.969 145.454 199.354 143.653 201.83 141.962C204.493 140.143 207.251 138.469 210.092 136.945C210.7 136.617 211.307 136.298 211.915 135.987C212.577 135.64 213.243 135.31 213.913 135C216.059 133.976 218.494 134.359 220.867 135.041C221.862 135.325 222.844 135.664 223.792 135.971C224.718 136.272 225.609 136.672 226.449 137.164C228.551 138.399 230.288 140.222 231.009 142.524C231.01 142.539 231.01 142.554 231.009 142.569C231.468 144.011 231.496 145.559 231.455 147.077Z" fill="#F86D70"/>
<path opacity="0.1" d="M231.455 147.077C231.455 147.311 231.439 147.546 231.429 147.783C231.382 148.926 231.277 150.065 231.113 151.197C230.898 152.743 230.52 154.261 229.986 155.727C229.632 156.691 229.181 157.617 228.642 158.49C228.163 159.266 227.602 159.988 226.97 160.644C225.407 162.269 223.156 162.788 220.979 163.473C219.977 163.763 219.009 164.158 218.091 164.653C217.927 164.744 217.765 164.843 217.609 164.947L214.884 166.752C214.035 167.312 213.168 167.893 212.585 168.724C212.489 168.865 212.402 169.012 212.324 169.164C211.955 169.929 211.686 170.737 211.522 171.57C210.105 177.472 208.686 183.379 207.714 189.37C207.649 189.766 207.586 190.164 207.519 190.563L207.495 190.688C207.483 190.658 207.47 190.629 207.454 190.602C200.484 194.816 193.256 198.619 185.81 201.663L184.192 188.12C184.024 187.019 183.968 185.903 184.026 184.791C184.179 183.038 184.893 181.377 185.086 179.629C185.268 177.918 184.945 176.191 184.156 174.662C183.848 174.068 183.463 173.485 183.393 172.821C183.322 172.156 183.705 171.55 184.372 171.482C184.893 170.904 184.935 170.114 184.781 169.333C184.699 168.925 184.577 168.526 184.416 168.143C183.973 167.054 183.413 165.869 183.794 164.757C183.894 164.555 183.939 164.33 183.924 164.106C183.927 164.092 183.927 164.078 183.924 164.064C183.835 163.772 183.489 163.645 183.309 163.397C182.971 162.936 183.309 162.309 183.518 161.777C183.72 161.206 183.838 160.609 183.867 160.003C183.895 159.667 183.916 159.329 183.953 158.996C184.003 158.544 184.084 158.097 184.195 157.657C184.828 155.162 186.349 152.983 188.474 151.531C189.487 150.848 190.615 150.351 191.649 149.708C192.708 148.994 193.719 148.211 194.676 147.364C196.969 145.454 199.354 143.653 201.83 141.962C204.493 140.143 207.251 138.469 210.092 136.945C210.7 136.617 211.307 136.298 211.915 135.987C212.577 135.64 213.243 135.31 213.913 135C216.059 133.976 218.494 134.359 220.867 135.041C221.862 135.325 222.844 135.664 223.792 135.971C224.718 136.272 225.609 136.672 226.449 137.164C228.551 138.399 230.288 140.222 231.009 142.524C231.01 142.539 231.01 142.554 231.009 142.569C231.468 144.011 231.496 145.559 231.455 147.077Z" fill="#464655"/>
<path d="M206.724 103.935C206.698 103.875 206.66 103.82 206.612 103.775C206.564 103.73 206.507 103.694 206.445 103.671C206.383 103.649 206.317 103.638 206.251 103.642C206.185 103.645 206.121 103.661 206.062 103.69C206.002 103.719 205.949 103.76 205.906 103.809C205.863 103.859 205.83 103.917 205.809 103.98C205.789 104.043 205.782 104.109 205.788 104.175C205.793 104.24 205.813 104.304 205.844 104.362L205.583 104.49L213.35 120.409L214.754 119.724L206.987 103.795L206.724 103.935Z" fill="#3F3D56"/>
<path d="M216.434 87.2608C225.64 87.2608 233.103 79.7977 233.103 70.5916C233.103 61.3854 225.64 53.9224 216.434 53.9224C207.228 53.9224 199.765 61.3854 199.765 70.5916C199.765 79.7977 207.228 87.2608 216.434 87.2608Z" fill="#FBBEBE"/>
<path d="M238.435 60.2722C238.357 58.9472 238.16 57.6318 237.846 56.342C236.867 52.1304 235.078 47.9839 231.996 44.96C231.806 44.2207 231.58 43.4914 231.317 42.7748C231.312 42.757 231.306 42.7396 231.298 42.7227C230.379 40.1983 229.05 37.8426 227.365 35.7503C226.389 34.5365 225.123 33.3384 223.565 33.2916C223.128 33.2759 222.664 33.3515 222.263 33.1509C221.968 32.9602 221.72 32.7056 221.536 32.406C220.765 31.4313 219.742 30.6859 218.578 30.2503C217.414 29.8147 216.153 29.7054 214.931 29.9343L214.77 29.9681C214.679 29.9864 214.587 30.0072 214.509 30.0306C214.431 30.0541 214.291 30.0932 214.181 30.127C214.301 30.325 214.418 30.5255 214.533 30.7287C214.842 31.2791 215.128 31.8417 215.392 32.4164C215.611 32.8957 215.813 33.3827 215.999 33.8776C213.332 34.1823 211.16 36.0758 209.175 37.8782L204.503 42.1184C204.494 42.1256 204.486 42.1334 204.479 42.1419L204.344 42.2721C204.31 42.306 204.276 42.3398 204.245 42.3763C204.232 42.3871 204.221 42.3994 204.211 42.4127C204.172 42.4544 204.135 42.4987 204.099 42.543C204.034 42.625 203.975 42.7121 203.924 42.8034C203.899 42.8425 203.876 42.8834 203.857 42.9258C203.849 42.9383 203.843 42.9514 203.838 42.9649C203.821 43.0004 203.807 43.037 203.794 43.0743C203.793 43.0795 203.793 43.0848 203.794 43.0899C203.787 43.1113 203.781 43.133 203.776 43.155C203.723 43.3383 203.738 43.5347 203.82 43.7072L206.901 43.7411H207.263C207.279 44.1526 207.292 44.5667 207.308 44.9782C206.819 45.3442 206.349 45.7354 205.901 46.1503C205.413 46.6026 204.954 47.0863 204.529 47.5984C201.75 50.9557 200.299 55.2923 200.153 59.6576C200.153 59.793 200.153 59.918 200.153 60.0587C200.153 60.4572 200.153 60.8557 200.153 61.2516C200.153 61.512 200.176 61.7725 200.197 62.0329C200.199 62.3722 200.288 62.7053 200.458 62.9992C200.48 63.0321 200.504 63.0634 200.531 63.093C200.687 63.2626 200.874 63.4006 201.083 63.4993L201.307 63.6087C201.419 63.6634 201.526 63.7155 201.63 63.7754C202.612 64.3302 203.192 65.4006 204.086 66.0882C204.138 66.1273 204.19 66.1664 204.242 66.2002L204.359 66.2784L204.432 66.3253L204.531 66.3826C204.596 66.4217 204.663 66.4574 204.732 66.4893L204.857 66.5519H204.878C204.982 66.5987 205.086 66.643 205.193 66.6821L205.341 66.7342L205.386 66.7498C205.427 66.7628 205.471 66.7785 205.516 66.7889C205.604 66.8149 205.691 66.8384 205.776 66.8592L206.037 66.9165C206.138 66.9347 206.242 66.953 206.347 66.966L206.5 66.9868L206.657 67.0024C206.905 67.025 207.155 67.038 207.407 67.0415C208.197 67.0366 208.986 66.9818 209.769 66.8774L216.416 66.0961C217.924 65.9216 219.463 65.747 220.95 66.0544C222.211 66.3148 223.373 66.9139 224.597 67.3384C224.873 67.4348 225.149 67.5234 225.428 67.5989C225.529 67.6275 225.633 67.6588 225.738 67.6848L225.881 67.7213L226.214 67.802C226.334 67.8307 226.454 67.8593 226.574 67.8828C226.743 67.9193 226.91 67.9505 227.079 67.9818C227.194 68.0052 227.311 68.0234 227.428 68.0443H227.451L227.785 68.0964H227.866L228.113 68.1302C228.233 68.1485 228.353 68.1641 228.475 68.1771C228.741 68.2101 229.006 68.2387 229.272 68.2631C229.702 68.3047 230.134 68.336 230.574 68.362L231.007 68.3881L231.439 68.4089L232.741 68.4662H232.799H232.981C233.522 68.5039 234.066 68.476 234.601 68.3829C234.695 68.3646 234.786 68.3438 234.877 68.3178C234.968 68.2917 235.044 68.2657 235.137 68.2344C236.114 67.8593 236.828 66.9972 237.323 66.0752C237.427 65.8799 237.523 65.6845 237.612 65.484C237.7 65.2834 237.781 65.0803 237.854 64.8771C237.945 64.6167 238.023 64.3692 238.091 64.1088C238.112 64.0385 238.13 63.9681 238.146 63.8952C238.161 63.8223 238.198 63.679 238.219 63.5696C238.284 63.2701 238.333 62.968 238.37 62.6632C238.37 62.5669 238.393 62.4679 238.404 62.3715C238.427 62.1111 238.445 61.8688 238.456 61.6136C238.456 61.4209 238.456 61.2255 238.456 61.0302C238.453 60.8192 238.435 60.5405 238.435 60.2722ZM231.757 44.723C231.546 44.525 231.33 44.3349 231.111 44.1552C231.354 44.3088 231.571 44.5005 231.754 44.723H231.757Z" fill="#464353"/>
<path d="M184.442 69.6748C182.481 69.4326 180.535 68.5731 178.6 68.995C177.389 69.2555 176.347 70.0082 175.378 70.7818C171.773 73.6717 168.707 77.1768 166.322 81.1349C165.918 81.7267 165.634 82.3922 165.486 83.0935C165.361 83.9061 165.583 84.7318 165.846 85.5106C167.627 90.7744 171.438 95.1709 173.172 100.45C174.995 106.003 174.363 112.072 173.019 117.76C171.353 124.783 168.645 131.516 164.986 137.737C164.489 138.662 163.867 139.514 163.137 140.269C162.189 141.18 160.915 141.832 160.353 143.025C160.092 143.545 160.017 144.139 159.832 144.697C159.311 146.259 158.05 147.598 157.928 149.247C157.837 150.505 158.433 151.695 158.795 152.893C159.406 154.952 159.341 157.151 158.61 159.17C157.29 162.791 153.836 166.083 154.839 169.805C157.076 169.161 159.556 168.325 160.61 166.249C160.983 165.515 161.168 164.64 161.796 164.103C163.048 163.038 165.181 164.002 166.512 163.022C167.518 162.277 167.554 160.751 167.106 159.579C166.658 158.407 165.887 157.376 165.543 156.17C164.944 153.995 165.903 151.695 165.726 149.447C165.642 148.406 165.322 147.408 165.299 146.371C165.254 144.358 166.369 142.465 167.851 141.097C169.333 139.73 171.164 138.823 172.966 137.93L179.78 134.544C182.252 133.32 184.96 131.828 185.771 129.192C186.078 128.205 186.08 127.152 186.096 126.121C186.328 110.361 190.276 94.9182 194.201 79.6529C194.811 77.288 195.431 74.9126 196.337 72.6414C197.244 70.3702 199.017 68.547 199.921 66.4373C194.678 65.8227 189.888 70.3572 184.442 69.6748Z" fill="#464353"/>
<path d="M222.003 168.547C222.604 172.193 222.972 175.917 223.258 179.624C218.57 183.51 213.522 186.89 208.394 190.026C208.102 190.206 207.808 190.383 207.513 190.547L207.49 190.672C207.478 190.643 207.464 190.614 207.448 190.586C207.05 189.727 206.355 189.04 205.49 188.654C203.568 184.617 201.647 180.58 199.728 176.543C198.687 174.363 197.645 172.162 197.124 169.81C197.124 169.76 197.1 169.708 197.093 169.659C196.697 167.836 196.606 165.942 196.342 164.095C196.209 163.038 195.971 161.996 195.631 160.986C195.319 160.087 194.889 159.214 194.509 158.337C194.04 157.253 193.647 156.157 193.628 154.987C193.628 154.615 193.652 154.206 193.47 153.893C193.275 153.624 193.034 153.391 192.759 153.206C192.415 152.901 192.154 152.514 192.001 152.08C191.848 151.647 191.807 151.182 191.883 150.729C190.321 150.809 189.44 152.489 188.813 153.914C188.242 155.308 187.493 156.621 186.583 157.821C185.92 158.678 185.077 159.38 184.114 159.876C184.028 159.918 183.942 159.959 183.854 159.996C181.679 160.954 179.139 160.616 176.782 160.183C174.722 159.806 172.591 159.337 170.935 158.055L170.758 157.915C170.267 157.507 169.83 157.04 169.456 156.524C168.067 154.628 167.453 152.13 167.111 149.752C167.08 149.528 167.049 149.304 167.02 149.08C166.783 147.4 166.718 145.7 166.825 144.006C166.856 143.59 166.9 143.173 166.955 142.759C166.992 142.498 167.031 142.217 167.075 141.946C167.074 141.938 167.074 141.93 167.075 141.923C167.143 141.493 167.216 141.061 167.289 140.62C167.549 139.144 167.809 137.628 168.591 136.357C169.105 135.566 169.754 134.871 170.508 134.304C170.789 134.083 171.078 133.872 171.37 133.669C171.844 133.341 172.331 133.028 172.826 132.734C174.071 131.989 175.378 131.352 176.733 130.832C177.056 130.707 177.384 130.59 177.712 130.478C178.988 130.024 180.361 129.916 181.692 130.163C182.871 130.334 184.063 130.404 185.255 130.371C188.31 130.312 191.378 129.728 194.428 129.35C198.663 128.83 203.213 128.767 206.907 130.913C207.084 131.015 207.256 131.122 207.427 131.234C209.251 132.426 210.72 134.099 211.905 135.966C212.165 136.359 212.392 136.763 212.616 137.172C213.132 138.111 213.599 139.076 214.014 140.063C214.26 140.548 214.393 141.082 214.403 141.626C214.396 141.729 214.383 141.832 214.361 141.933C214.291 142.303 214.15 142.662 214.1 143.037C213.936 144.457 215.142 145.642 215.593 146.994C215.885 147.874 215.853 148.817 216.017 149.744C216.254 151.046 216.892 152.219 217.465 153.391C218.371 155.277 219.145 157.224 219.784 159.217C220.237 160.605 220.625 162.014 220.966 163.436C221.077 163.893 221.182 164.351 221.281 164.809C221.565 166.07 221.797 167.304 222.003 168.547Z" fill="#F86D70"/>
<path d="M249.772 129.976V131.799L249.436 131.794L249.061 131.788L244.873 131.736L234.554 131.601L231.658 131.564L230.908 131.554L226.561 131.499L220.435 131.418L207.438 131.249L184.885 130.957L176.746 130.853L173.48 130.812L170.474 130.773L168.601 130.746L166.828 130.723L153.677 130.554L150.031 130.507L149.236 130.496L148.721 129.165L144.973 119.5L144.288 117.734L144.809 115.65L147.153 117.213L148.596 117.393L172.352 120.346L176.811 120.901L186.265 122.078L195.527 123.23L199.158 123.68L220.643 126.353L226.647 127.1L231.616 127.717L249.285 129.916L249.772 129.976Z" fill="#3F3D56"/>
<path d="M144.809 115.65L149.497 127.892L249.772 129.975V116.692L144.809 115.65Z" fill="#504F60"/>
<path d="M150.018 129.194L150.799 203.945L154.445 203.424L153.664 129.194H150.018Z" fill="#3F3D56"/>
<path d="M249.437 131.791H249.061C248.454 136.451 247.45 141.051 246.058 145.54L244.873 131.736L244.824 131.148L249.205 130.642L249.351 130.627L249.437 131.791Z" fill="#3F3D56"/>
<path d="M235.187 122.943L197.03 123.725L185.179 119.818L216.955 117.995L235.187 122.943Z" fill="white"/>
<path d="M187.323 107.753C186.918 107.909 186.56 108.164 186.281 108.496C186.063 108.855 185.93 109.26 185.893 109.678L185.252 113.499C185.155 113.849 185.172 114.22 185.302 114.559C185.468 114.879 185.953 115.046 186.195 114.78C186.164 115.528 186.229 116.325 186.664 116.934C187.099 117.544 188.01 117.864 188.625 117.44C188.722 117.597 188.851 117.731 189.004 117.833C189.158 117.935 189.332 118.003 189.514 118.031C189.696 118.059 189.882 118.048 190.059 117.997C190.236 117.946 190.4 117.857 190.54 117.737C190.17 117.862 190.144 118.427 190.407 118.713C190.701 118.973 191.077 119.123 191.469 119.138C196.046 119.783 200.713 119.196 204.987 117.437C205.391 117.27 204.328 112.293 204.221 111.783C203.961 110.582 203.831 109.116 202.817 108.308C200.395 106.376 196.092 105.995 193.141 106.224C191.125 106.377 189.154 106.895 187.323 107.753Z" fill="#FBBEBE"/>
<path opacity="0.1" d="M226.147 108.332C216.726 108.511 207.11 108.665 198.119 105.844C198.978 109.172 198.918 112.671 197.947 115.968L241.995 119.615C243.863 119.768 251.606 120.643 253.427 120.203C255.247 119.763 238.151 114.132 238.841 112.39C240.74 107.589 247.1 104.776 242.519 104.597C236.737 104.368 231.973 108.222 226.147 108.332Z" fill="#464655"/>
<path d="M226.407 108.852C216.986 109.032 207.37 109.186 198.379 106.365C199.238 109.693 199.179 113.192 198.207 116.489L242.256 120.135C244.123 120.289 251.867 121.177 253.687 120.724C255.508 120.271 255.081 118.039 255.771 116.296C257.669 111.496 247.361 105.297 242.779 105.117C236.997 104.888 232.233 108.743 226.407 108.852Z" fill="#464353"/>
<path d="M211.428 109.577C211.833 109.732 212.191 109.987 212.47 110.319C212.688 110.679 212.821 111.083 212.861 111.501L213.501 115.322C213.598 115.672 213.58 116.043 213.452 116.382C213.285 116.703 212.798 116.869 212.558 116.604C212.587 117.351 212.525 118.148 212.09 118.758C211.655 119.367 210.743 119.688 210.126 119.263C210.029 119.42 209.9 119.554 209.747 119.656C209.593 119.758 209.419 119.826 209.237 119.854C209.055 119.882 208.869 119.871 208.692 119.82C208.515 119.769 208.351 119.68 208.211 119.56C208.581 119.685 208.61 120.25 208.347 120.537C208.051 120.797 207.675 120.947 207.282 120.961C202.706 121.606 198.04 121.019 193.767 119.26C193.363 119.094 194.423 114.116 194.532 113.606C194.793 112.405 194.923 110.939 195.936 110.131C198.356 108.199 202.661 107.819 205.612 108.048C207.627 108.201 209.598 108.719 211.428 109.577Z" fill="#FBBEBE"/>
<path d="M149.179 101.281C148.314 102.396 147.447 103.534 146.89 104.834C145.824 107.313 145.981 110.121 146.158 112.814C146.207 113.595 146.27 114.392 146.679 115.041C147.032 115.531 147.499 115.928 148.038 116.2C150.294 117.481 152.935 117.864 155.513 118.151C159.462 118.588 163.424 118.855 167.401 118.95C177.251 119.19 187.253 118.385 196.848 120.617C195.66 118.812 195.663 116.424 196.327 114.366C196.991 112.309 198.27 110.517 199.523 108.754C195.131 107.363 190.422 109.535 185.823 109.319C181.101 109.097 176.73 106.368 172.003 106.37C170.987 106.37 169.953 106.498 168.966 106.253C167.979 106.008 167.023 105.263 166.932 104.25C168.192 104.534 169.388 103.456 169.909 102.273C170.43 101.091 170.523 99.7548 171.029 98.5645C172.287 95.6031 175.686 94.2305 177.801 91.7926C178.134 91.4072 178.449 90.9514 178.439 90.4409C178.389 90.0084 178.207 89.6018 177.918 89.2766C176.16 86.9325 173.511 85.6302 171.31 83.807C170.544 83.1715 169 80.7753 168.14 80.5539C166.546 80.145 165.195 82.4475 164.158 83.57C158.924 89.2567 153.931 95.1603 149.179 101.281Z" fill="#464353"/>
<path opacity="0.07" d="M201.552 100.619C202.212 101.109 202.798 101.69 203.294 102.346C203.541 102.676 203.717 103.053 203.81 103.453C203.904 103.854 203.914 104.27 203.838 104.675C203.757 103.92 203.926 103.159 204.317 102.509C204.709 101.858 205.303 101.354 206.008 101.073L201.552 100.619Z" fill="#464655"/>
<g opacity="0.1">
<path opacity="0.1" d="M215.996 32.3175C215.69 31.5035 215.337 30.7077 214.939 29.9343C214.682 29.9838 214.428 30.049 214.178 30.1297C214.625 30.8719 215.028 31.6398 215.384 32.4295C215.585 32.3774 215.788 32.341 215.996 32.3175Z" fill="#464655"/>
<path opacity="0.1" d="M231.108 42.5872C231.178 42.6445 231.246 42.7096 231.314 42.7695C231.309 42.7526 231.303 42.736 231.296 42.72C231.237 42.6766 231.174 42.6323 231.108 42.5872Z" fill="#464655"/>
<path opacity="0.1" d="M206.896 43.7333C207.031 43.6265 207.157 43.5145 207.302 43.4103L207.261 42.1732L204.479 42.1445C204.028 42.5587 203.549 43.1525 203.815 43.7073L206.896 43.7333Z" fill="#464655"/>
<path opacity="0.1" d="M237.307 64.5593C236.812 65.4813 236.098 66.346 235.122 66.7184C234.369 67.0049 233.541 66.9789 232.736 66.9424C229.991 66.8304 227.199 66.708 224.605 65.799C223.391 65.3719 222.229 64.7754 220.958 64.5124C219.471 64.205 217.932 64.3795 216.424 64.5567L209.777 65.338C207.815 65.5672 205.63 65.7391 204.065 64.5358C203.169 63.8482 202.591 62.7777 201.609 62.2256C201.195 61.9912 200.702 61.8401 200.434 61.4442C200.265 61.1502 200.175 60.8172 200.174 60.4779C200.153 60.2044 200.14 59.9309 200.129 59.6575C200.101 60.4521 200.116 61.2476 200.174 62.0406C200.175 62.3799 200.265 62.713 200.434 63.0069C200.695 63.4002 201.195 63.5513 201.609 63.7883C202.591 64.3405 203.172 65.4109 204.065 66.0986C205.628 67.3019 207.815 67.1404 209.777 66.9008L216.424 66.1194C217.932 65.9423 219.471 65.7678 220.958 66.0751C222.219 66.3356 223.38 66.9346 224.605 67.3618C227.209 68.2708 229.991 68.4036 232.736 68.5052C233.541 68.539 234.369 68.5677 235.122 68.2812C236.098 67.9087 236.812 67.044 237.307 66.122C238.265 64.3379 238.534 62.3141 238.432 60.2748C238.376 61.7682 237.992 63.2311 237.307 64.5593Z" fill="#464655"/>
</g>
<path opacity="0.1" d="M215.921 33.9922L219.567 37.3781C219.567 37.3781 216.442 36.0758 215.921 33.9922Z" fill="#464655"/>
</g>
<defs>
<clipPath id="clip0">
<rect width="256" height="209.154" fill="white"/>
</clipPath>
</defs>
</svg>
