<?xml version="1.0" encoding="utf-8"?>
<svg xmlns="http://www.w3.org/2000/svg" viewBox="0 0 100 100" fill="#302360"><path d="M 50 14 C 30.129581 14 14 30.129595 14 50 C 14 69.870405 30.129581 86 50 86 C 69.870419 86 86 69.870405 86 50 C 86 30.129595 69.870419 14 50 14 z M 50 16 C 68.78954 16 84 31.210473 84 50 C 84 68.789527 68.78954 84 50 84 C 31.21046 84 16 68.789527 16 50 C 16 31.210473 31.21046 16 50 16 z M 50 19 C 32.884791 19 19 32.884791 19 50 C 19 67.115209 32.884791 81 50 81 C 67.115209 81 81 67.115209 81 50 C 81 40.904382 77.079076 32.716819 70.835938 27.046875 A 0.50005 0.50005 0 1 0 70.164062 27.787109 C 76.206924 33.275165 80 41.191618 80 50 C 80 66.574791 66.574791 80 50 80 C 33.425209 80 20 66.574791 20 50 C 20 33.425209 33.425209 20 50 20 C 53.630741 20 57.108062 20.645941 60.328125 21.826172 A 0.50018397 0.50018397 0 1 0 60.671875 20.886719 C 57.343938 19.66695 53.749259 19 50 19 z M 63.480469 22.140625 A 0.50005 0.50005 0 0 0 63.277344 23.091797 C 63.947092 23.423229 64.604492 23.779343 65.246094 24.158203 A 0.50005 0.50005 0 1 0 65.753906 23.296875 C 65.091508 22.905735 64.414908 22.53788 63.722656 22.195312 A 0.50005 0.50005 0 0 0 63.480469 22.140625 z M 67.507812 24.511719 A 0.50005 0.50005 0 0 0 67.457031 24.513672 A 0.50005 0.50005 0 0 0 67.212891 25.425781 C 67.545583 25.65906 67.873213 25.899999 68.195312 26.146484 A 0.50080937 0.50080937 0 1 0 68.804688 25.351562 C 68.470787 25.096048 68.130417 24.848143 67.787109 24.607422 A 0.50005 0.50005 0 0 0 67.507812 24.511719 z M 49.101562 27 C 48.363248 27 47.777559 27.481467 47.462891 28.056641 C 43.218617 35.816434 39.598898 39.583802 37.257812 41.388672 C 35.185658 42.986157 34 45.465891 34 48.076172 L 34 60.5 C 34 64.084167 36.915833 67 40.5 67 L 61.330078 67 C 63.203668 67 64.896168 65.595487 64.996094 63.6875 C 65.053396 62.598104 64.572632 61.643475 63.832031 60.964844 C 65.602035 60.794068 67 59.313375 67 57.5 C 67 56.37595 66.429932 55.418524 65.601562 54.777344 C 66.984002 54.309082 68 53.036784 68 51.5 C 68 49.98292 67.018998 48.698347 65.664062 48.214844 C 66.516 47.53953 67.057378 46.490524 66.996094 45.3125 C 66.896162 43.405562 65.204719 42 63.330078 42 L 50.15625 42 C 50.285418 41.018057 50.793049 39.58486 51.466797 37.820312 C 52.221119 35.844743 53 33.625 53 31.5 C 53 29.888889 52.443686 28.729819 51.664062 28.007812 C 50.88444 27.285806 49.920195 27 49.101562 27 z M 49.101562 28 C 49.68193 28 50.4162 28.214193 50.986328 28.742188 C 51.556456 29.270181 52 30.111111 52 31.5 C 52 33.375 51.278881 35.511913 50.533203 37.464844 C 49.787525 39.417775 49 41.138277 49 42.5 A 0.50005 0.50005 0 0 0 49.5 43 L 63.330078 43 C 64.705437 43 65.926026 44.028172 65.996094 45.365234 C 66.071614 46.816896 64.931053 48 63.5 48 L 62.5 48 A 0.50005 0.50005 0 1 0 62.5 49 L 63.464844 49 L 63.5 49 L 64.5 49 C 65.886833 49 67 50.113167 67 51.5 C 67 52.886833 65.886833 54 64.5 54 L 62.5 54 A 0.50005 0.50005 0 1 0 62.5 55 L 63.5 55 C 64.886833 55 66 56.113167 66 57.5 C 66 58.886833 64.886833 60 63.5 60 L 61.5 60 L 60.5 60 A 0.50005 0.50005 0 1 0 60.5 61 L 61.464844 61 L 61.5 61 C 62.932216 61 64.072446 62.183238 63.996094 63.634766 C 63.926019 64.972778 62.704489 66 61.330078 66 L 40.5 66 C 37.456167 66 35 63.543833 35 60.5 L 35 48.076172 C 35 45.768453 36.047295 43.584202 37.869141 42.179688 C 40.348055 40.268557 44.046118 36.387316 48.339844 28.537109 C 48.513175 28.220283 48.823878 28 49.101562 28 z M 57.5 45 A 0.50005 0.50005 0 1 0 57.5 46 L 59.5 46 A 0.50005 0.50005 0 1 0 59.5 45 L 57.5 45 z M 58.5 51 A 0.50005 0.50005 0 1 0 58.5 52 L 60.5 52 A 0.50005 0.50005 0 1 0 60.5 51 L 58.5 51 z M 57.5 57 A 0.50005 0.50005 0 1 0 57.5 58 L 59.5 58 A 0.50005 0.50005 0 1 0 59.5 57 L 57.5 57 z M 55.5 63 A 0.50005 0.50005 0 1 0 55.5 64 L 57.5 64 A 0.50005 0.50005 0 1 0 57.5 63 L 55.5 63 z" fill="#302360"/></svg>
