<?xml version="1.0" encoding="utf-8"?>
<svg xmlns="http://www.w3.org/2000/svg" viewBox="0 0 100 100" fill="#302360"><path d="M 31 15 A 1.0001 1.0001 0 0 0 30 16 L 30 71 L 19 71 A 1.0001 1.0001 0 0 0 18 72 L 18 78 C 18 81.854334 21.145666 85 25 85 L 65.027344 85 C 67.25314 90.835646 72.891964 95 79.5 95 C 88.047 95 95 88.047 95 79.5 C 95 72.518242 90.358032 66.603384 84 64.669922 L 84 16 A 1.0001 1.0001 0 0 0 83 15 L 31 15 z M 32 17 L 82 17 L 82 64.220703 C 81.183917 64.087468 80.35318 64 79.5 64 C 78.993507 64 78.494182 64.028453 78 64.076172 L 78 53.5 A 0.50005 0.50005 0 0 0 77.492188 52.992188 A 0.50005 0.50005 0 0 0 77 53.5 L 77 64.220703 C 75.177723 64.518212 73.459584 65.124094 71.908203 66 L 62.5 66 A 0.50005 0.50005 0 1 0 62.5 67 L 70.373047 67 C 68.875113 68.096835 67.575713 69.447065 66.552734 71 L 32 71 L 32 17 z M 38.5 21 C 37.125015 21 36 22.125015 36 23.5 L 36 67.5 A 0.50005 0.50005 0 1 0 37 67.5 L 37 23.5 C 37 22.664985 37.664985 22 38.5 22 A 0.50005 0.50005 0 1 0 38.5 21 z M 41.5 26 A 0.50005 0.50005 0 1 0 41.5 27 L 52.5 27 A 0.50005 0.50005 0 1 0 52.5 26 L 41.5 26 z M 55.5 26 A 0.50005 0.50005 0 1 0 55.5 27 L 72.5 27 A 0.50005 0.50005 0 1 0 72.5 26 L 55.5 26 z M 41.5 31 A 0.50005 0.50005 0 1 0 41.5 32 L 64.5 32 A 0.50005 0.50005 0 1 0 64.5 31 L 41.5 31 z M 67.5 31 A 0.50005 0.50005 0 1 0 67.5 32 L 72.5 32 A 0.50005 0.50005 0 1 0 72.5 31 L 67.5 31 z M 41.5 36 A 0.50005 0.50005 0 1 0 41.5 37 L 72.5 37 A 0.50005 0.50005 0 1 0 72.5 36 L 41.5 36 z M 77.492188 40.992188 A 0.50005 0.50005 0 0 0 77 41.5 L 77 44.5 A 0.50005 0.50005 0 1 0 78 44.5 L 78 41.5 A 0.50005 0.50005 0 0 0 77.492188 40.992188 z M 41.5 41 A 0.50005 0.50005 0 1 0 41.5 42 L 45.5 42 A 0.50005 0.50005 0 1 0 45.5 41 L 41.5 41 z M 48.5 41 A 0.50005 0.50005 0 1 0 48.5 42 L 72.5 42 A 0.50005 0.50005 0 1 0 72.5 41 L 48.5 41 z M 77.492188 45.992188 A 0.50005 0.50005 0 0 0 77 46.5 L 77 51.5 A 0.50005 0.50005 0 1 0 78 51.5 L 78 46.5 A 0.50005 0.50005 0 0 0 77.492188 45.992188 z M 41.5 46 A 0.50005 0.50005 0 1 0 41.5 47 L 64.5 47 A 0.50005 0.50005 0 1 0 64.5 46 L 41.5 46 z M 67.5 46 A 0.50005 0.50005 0 1 0 67.5 47 L 72.5 47 A 0.50005 0.50005 0 1 0 72.5 46 L 67.5 46 z M 41.5 51 A 0.50005 0.50005 0 1 0 41.5 52 L 49.5 52 A 0.50005 0.50005 0 1 0 49.5 51 L 41.5 51 z M 52.5 51 A 0.50005 0.50005 0 0 0 52.351562 51.019531 A 0.50005 0.50005 0 0 0 52.216797 51.083984 A 0.50005 0.50005 0 0 0 52.050781 51.267578 A 0.50005 0.50005 0 0 0 52.013672 51.359375 A 0.50005 0.50005 0 0 0 51.992188 51.507812 A 0.50005 0.50005 0 0 0 51.996094 51.556641 A 0.50005 0.50005 0 0 0 52.003906 51.607422 A 0.50005 0.50005 0 0 0 52.017578 51.654297 A 0.50005 0.50005 0 0 0 52.058594 51.746094 A 0.50005 0.50005 0 0 0 52.115234 51.828125 A 0.50005 0.50005 0 0 0 52.150391 51.863281 A 0.50005 0.50005 0 0 0 52.228516 51.923828 A 0.50005 0.50005 0 0 0 52.273438 51.949219 A 0.50005 0.50005 0 0 0 52.416016 51.994141 A 0.50005 0.50005 0 0 0 52.5 52 L 60.5 52 L 72.5 52 A 0.50005 0.50005 0 1 0 72.5 51 L 60.535156 51 L 60.5 51 L 52.5 51 z M 41.5 56 A 0.50005 0.50005 0 1 0 41.5 57 L 56.5 57 A 0.50005 0.50005 0 1 0 56.5 56 L 41.5 56 z M 59.5 56 A 0.50005 0.50005 0 1 0 59.5 57 L 64.5 57 A 0.50005 0.50005 0 1 0 64.5 56 L 59.5 56 z M 67.5 56 A 0.50005 0.50005 0 1 0 67.5 57 L 72.5 57 A 0.50005 0.50005 0 1 0 72.5 56 L 67.5 56 z M 41.5 61 A 0.50005 0.50005 0 1 0 41.5 62 L 50.5 62 A 0.50005 0.50005 0 1 0 50.5 61 L 41.5 61 z M 53.5 61 A 0.50005 0.50005 0 0 0 53.351562 61.019531 A 0.50005 0.50005 0 0 0 53.304688 61.037109 A 0.50005 0.50005 0 0 0 53.216797 61.083984 A 0.50005 0.50005 0 0 0 53.105469 61.183594 A 0.50005 0.50005 0 0 0 53.029297 61.3125 A 0.50005 0.50005 0 0 0 53.013672 61.359375 A 0.50005 0.50005 0 0 0 52.994141 61.457031 A 0.50005 0.50005 0 0 0 52.992188 61.507812 A 0.50005 0.50005 0 0 0 53.150391 61.863281 A 0.50005 0.50005 0 0 0 53.1875 61.896484 A 0.50005 0.50005 0 0 0 53.273438 61.949219 A 0.50005 0.50005 0 0 0 53.367188 61.984375 A 0.50005 0.50005 0 0 0 53.416016 61.994141 A 0.50005 0.50005 0 0 0 53.464844 62 A 0.50005 0.50005 0 0 0 53.5 62 L 62.5 62 L 72.5 62 A 0.50005 0.50005 0 1 0 72.5 61 L 62.535156 61 L 53.5 61 z M 41.5 66 A 0.50005 0.50005 0 1 0 41.5 67 L 59.5 67 A 0.50005 0.50005 0 1 0 59.5 66 L 41.5 66 z M 79.5 66 C 86.945 66 93 72.055 93 79.5 C 93 86.945 86.945 93 79.5 93 C 72.055 93 66 86.945 66 79.5 C 66 72.055 72.055 66 79.5 66 z M 74.5 71 C 73.672 71 73 71.672 73 72.5 L 73 74 C 73 76.516 75.457094 78.773125 76.621094 79.703125 C 75.434094 80.520125 73 82.484 73 85 L 73 86.5 C 73 87.328 73.672 88 74.5 88 L 84.5 88 C 85.328 88 86 87.328 86 86.5 L 86 85 C 86 82.484 83.561906 80.464812 82.378906 79.632812 C 83.546906 78.722813 86 76.516 86 74 L 86 72.5 C 86 71.672 85.328 71 84.5 71 L 74.5 71 z M 74.5 72 L 84.5 72 C 84.777 72 85 72.227 85 72.5 L 85 74 C 85 74.348 84.937125 74.69125 84.828125 75.03125 C 84.664125 75.08625 81.828 76 79.5 76 C 77.16 76 74.308875 75.074344 74.171875 75.027344 C 74.061875 74.691344 74 74.348 74 74 L 74 72.5 C 74 72.227 74.223 72 74.5 72 z M 20 73 L 65.447266 73 C 64.527705 74.979829 64 77.177118 64 79.5 C 64 80.705431 64.152492 81.873016 64.414062 83 L 25 83 C 22.226334 83 20 80.773666 20 78 L 20 73 z M 74.757812 76.246094 C 75.858812 76.551094 77.777 77 79.5 77 C 81.215 77 83.120562 76.554906 84.226562 76.253906 C 83.132562 77.948906 81.249656 79.223281 81.222656 79.238281 C 81.077656 79.336281 80.996 79.495969 81 79.667969 C 81.004 79.843969 81.098094 79.999937 81.246094 80.085938 C 81.285094 80.108937 85 82.324 85 85 L 85 85.777344 C 84.426 85.234344 83.655813 84.585875 82.757812 84.046875 C 82.519813 83.901875 82.215313 83.980844 82.070312 84.214844 C 81.929312 84.452844 82.007188 84.761344 82.242188 84.902344 C 83.320188 85.550344 84.229781 86.402562 84.675781 86.851562 C 84.702781 86.878563 84.734625 86.894063 84.765625 86.914062 C 84.686625 86.964062 84.602 87 84.5 87 L 74.5 87 C 74.398 87 74.312375 86.965156 74.234375 86.910156 C 74.265375 86.890156 74.297219 86.879563 74.324219 86.851562 C 74.961219 86.210562 76.242219 85.037109 77.699219 84.412109 C 77.949219 84.303109 78.069937 84.011813 77.960938 83.757812 C 77.851938 83.503812 77.558688 83.381141 77.304688 83.494141 C 75.949687 84.076141 74.758 85.060484 74 85.771484 L 74 85 C 74 82.328 77.711094 80.194781 77.746094 80.175781 C 77.898094 80.089781 77.992 79.933719 78 79.761719 C 78.008 79.589719 77.92625 79.426125 77.78125 79.328125 C 77.75825 79.308125 75.850812 77.984094 74.757812 76.246094 z" fill="#302360"/></svg>
